<?xml version="1.0" encoding="utf-8"?>
<!-- Generator: Adobe Illustrator 17.1.0, SVG Export Plug-In . SVG Version: 6.00 Build 0)  -->
<!DOCTYPE svg PUBLIC "-//W3C//DTD SVG 1.1//EN" "http://www.w3.org/Graphics/SVG/1.1/DTD/svg11.dtd">
<svg enable-background="new 0 0 40 27.9" id="Layer_1" version="1.1" viewBox="0 0 40 27.9" x="0px" xml:space="preserve" xmlns:xlink="http://www.w3.org/1999/xlink" xmlns="http://www.w3.org/2000/svg" y="0px">
    <g>
        <g>
            <path
                d="M33.5,0.6c-0.4,0.4-0.6,1.1-0.7,1.6c-0.4,1.4-0.5,2.3-2,2.9c-4,1.6-5.8-3.2-8.7-4.6
			c-0.5-0.2-1-0.4-1.5-0.5c-2.1-0.3-4.3,0.6-5.4,2.5c-0.9,1.6-1,3.8,0.1,5.4c0.8,1.2,2.2,1.9,3.6,2.1c1.1,0.2,2.2,0.3,3.3,0.3
			c1,0.1,2.1,0.1,3.1,0.3c4.3,1,7.3,3.8,8.3,7.6c0.5,1.8,0.5,3.7,0,5.5c-0.2,0.8-1.2,2.4-0.3,3.1c2.5,2.1,4.7-4.1,5.2-5.4
			c2.3-6,1.9-13.6-1.6-19.1C36.4,1.4,34.6-0.8,33.5,0.6z"
                fill="#FFFFFF"/>
        </g>
        <g>
            <path
                d="M5.8,26.7c0,0,0.1-0.1,0.1-0.1c0.9-0.9,0.7-2.5,1.7-3.4c2.4-2.4,5.2-0.7,7,1.4c0.9,1.1,2,2.3,3.4,2.9
			c3.1,1.2,6.9-0.5,7.3-3.9c0.2-1.5-0.2-3.2-1.3-4.3c-1.3-1.3-3.1-1.3-4.8-1.3C11.2,17.9,4.7,12.2,6.5,4c0.2-1,1.8-3.8-0.4-3.5
			C4.6,0.8,2.9,3.7,2.3,4.9c-2.2,4.1-2.8,9-1.9,13.5C0.7,19.9,3.1,28.6,5.8,26.7z"
                fill="#FFFFFF"/>
        </g>
    </g>
</svg>
