<?xml version="1.0" encoding="utf-8"?>
<!-- Generator: Adobe Illustrator 17.1.0, SVG Export Plug-In . SVG Version: 6.00 Build 0)  -->
<!DOCTYPE svg PUBLIC "-//W3C//DTD SVG 1.1//EN" "http://www.w3.org/Graphics/SVG/1.1/DTD/svg11.dtd">
<svg enable-background="new 0 0 41.4 28.9" id="Layer_1" version="1.1" viewBox="0 0 41.4 28.9" x="0px" xml:space="preserve" xmlns:xlink="http://www.w3.org/1999/xlink" xmlns="http://www.w3.org/2000/svg" y="0px">
    <g>
        <g>
            <path
                d="M34.7,0.6c-0.4,0.5-0.6,1.2-0.8,1.7c-0.4,1.4-0.5,2.4-2.1,3c-4.1,1.7-6-3.3-9-4.8c-0.5-0.2-1-0.4-1.5-0.5
			c-2.2-0.3-4.5,0.6-5.6,2.5c-1,1.7-1,4,0.1,5.6c0.8,1.2,2.3,2,3.7,2.2c1.1,0.2,2.3,0.3,3.5,0.3c1.1,0.1,2.1,0.1,3.2,0.3
			c4.4,1,7.6,3.9,8.6,7.8c0.5,1.9,0.5,3.8,0,5.7c-0.2,0.9-1.2,2.5-0.3,3.2c2.6,2.2,4.9-4.3,5.4-5.6c2.4-6.2,2-14.1-1.6-19.8
			C37.7,1.5,35.9-0.8,34.7,0.6z"
                fill="#255FB5"/>
        </g>
        <g>
            <path
                d="M6.1,27.6c0,0,0.1-0.1,0.1-0.1C7.1,26.6,6.9,25,7.9,24c2.4-2.5,5.4-0.7,7.2,1.5c1,1.2,2,2.4,3.5,3
			c3.2,1.3,7.1-0.5,7.6-4.1c0.2-1.6-0.2-3.3-1.4-4.4c-1.3-1.3-3.2-1.4-5-1.4C11.6,18.5,4.9,12.7,6.7,4.2c0.2-1,1.8-3.9-0.4-3.6
			C4.8,0.8,3,3.8,2.4,5c-2.3,4.3-2.9,9.3-2,14C0.8,20.7,3.2,29.7,6.1,27.6z"
                fill="#09BDFF"/>
        </g>
    </g>
</svg>
