<svg version="1.1" id="flagship" xmlns="http://www.w3.org/2000/svg" xmlns:xlink="http://www.w3.org/1999/xlink" x="0px" y="0px"
	 viewBox="2560.5 274.9 1280.4 251.7" enable-background="new 2560.5 274.9 1280.4 251.7" xml:space="preserve">
<path fill="none" stroke="#255FB5" stroke-width="2" stroke-miterlimit="10" d="M3841.4,437.8c-150,67.5-212.6,5.8-360.8,7.8
	l0.1,0.2c-2.1,0.2-4.1-1.9-3.8-4c0.3-2.1,31.9-10.8,54.9-49.5c23-38.7,26.9-90.4,26.9-90.4s-58,9-90.8,61.5
	c-32.8,52.4-31.5,71.7-18.9,81.3c11.6,8.8,26.7,5.3,6.8-9.9c-18.1-13.9-55-9.6-55-9.6s7.8-25.1,26.4-40.3c17.1-14,43.1-8.6,62.5,6.3
	c19.4,14.9,33.2,37.6,25.6,56.4c-7.7,19.2-31,33.9-31,33.9s-3.2-21.7-14.7-19.5c-12.5,2.4-15.1,12.8-17.9,19.6
	c-4.5,11.1-11.8,10.1-11.8,10.1s-2-8.2-8.7-8.3c-6.7,0-21.2,16.1-21.2,16.1s15.5-24.8,8.3-27.1c-7.2-2.3-13.5,1.7-13.5,1.7
	s4.3-10.2,9.5-17c5.2-6.8,10.7-9.4,10.7-9.4s3.1-8.2-20.3-8.2c-47.1,0-219-74.1-406.7-79.5c-134-3.9-289,9-437.8,58.5"/>
</svg>
