<svg version="1.1" id="miro" xmlns="http://www.w3.org/2000/svg" xmlns:xlink="http://www.w3.org/1999/xlink" x="0px" y="0px"
	 viewBox="1280.1 274.9 1280.4 251.7" enable-background="new 1280.1 274.9 1280.4 251.7" xml:space="preserve">
<path fill="none" stroke="#255FB5" stroke-width="2" stroke-miterlimit="10" d="M2560,418.4c-68.2,27-131,37.9-191.6,31.6
	c-96.1-9.9-133.4-77.7-171.9-66.7c-7.8,1.5-13.8,7.9-14.9,15.8l-12.9,88.6c-0.5,3.4-3.6,5.8-7.2,5.3l-146.5-21.3
	c-3.4-0.5-5.8-3.6-5.3-7.2l23.6-162.5c0.5-3.4,3.6-5.8,7.2-5.3l146.5,21.3c3.4,0.5,5.8,3.6,5.3,7.2l-55.3,86.2
	c-1.3,1.8-3.9,1.3-4.5-0.8l-8.3-28.7c-0.5-1.9-3-2.5-4.3-1l-39.8,45.9c-1.4,1.6-4.1,0.8-4.4-1.4l-2.5-21.6c-0.3-2-2.6-2.9-4.1-1.6
	c0,0-27.9,31.2-57.7,50.8c-29.9,19.6-86.9-11.8-204.3-45.9c-182.4-53-341.4-47.6-526.3,11.4"/>
</svg>
