<svg version="1.1" id="social" xmlns="http://www.w3.org/2000/svg" xmlns:xlink="http://www.w3.org/1999/xlink" x="0px" y="0px"
	 viewBox="-1280.8 274.9 1280.4 251.7" enable-background="new -1280.8 274.9 1280.4 251.7" xml:space="preserve">
<path id="puzzle_1_" fill="none" stroke="#255FB5" stroke-width="2" stroke-miterlimit="10" d="M-0.5,506.3
	c-109,28.1-203.1-8.4-233.2-63.6c-19.7-36.1-26.3-53.7-71.3-63.7c-56.1-12.5-36.8-65-1.5-63.4c39.3,1.9,56,56.2-11.9,65
	c-33.1,4.3-50.6,30.5-54.4,47.4c-1.8,7.8,0.3,20.1,25.7,21.3c30,1.4,2.6-59.5,2.6-59.5l0.4-0.6c0,0-12.7-30.1-51.6-38.9
	c-66.7-15.1-45-67.6-5.8-65.7c35.3,1.6,49.6,54.9-7.3,63c-50.4,7.2-64.7,36.3-64.7,36.3s-33,58.1-2.9,59.5
	c25.5,1.1,28.6-10.9,27.6-18.8c-2.3-17.2-17.2-44.9-49.8-52.3c-66.7-15.1-45-67.6-5.8-65.7c35.3,1.6,49.8,56.2-7.3,63
	c-63.6,7.5-43.9,46.8-96.6,62.1c-74,21.3-113.2-23.3-305.1-42.7c-191.9-19.3-329.1,28.7-367.3,48.8"/>
</svg>
