<?xml version="1.0" encoding="utf-8"?>
<!-- Generator: Adobe Illustrator 17.1.0, SVG Export Plug-In . SVG Version: 6.00 Build 0)  -->
<!DOCTYPE svg PUBLIC "-//W3C//DTD SVG 1.1//EN" "http://www.w3.org/Graphics/SVG/1.1/DTD/svg11.dtd">
<svg enable-background="new -0.4 274.9 1280.4 251.7" id="project" version="1.1" viewBox="-0.4 274.9 1280.4 251.7" x="0px" xml:space="preserve" xmlns:xlink="http://www.w3.org/1999/xlink" xmlns="http://www.w3.org/2000/svg" y="0px">
    <path
        d="M1280.4,418.5
	c-193.4,53.5-300.5,8.5-305,7.8c-17.1-2.9-18.4,6.9-18.4,6.9c-4.6,24.3-4.1,27.6,11.5,25.5c11.9-1.6,22.8-0.5,19.6,19.2
	c-2.4,14.2-12.4,21.5-24.7,15.1c-12.4-6.3-11-17.2-16.3,14.3c-3.8,22.5-6.5,19.8-33,14.7c-31-6,22.2-27.9-23.3-35.4
	c-41-6.8-4.5,30-30.7,25.6c-24.6-4.1-31.1-4-28.1-21.8c1.9-11.2,10.4-24.7,1-24c-13,1.3-33.4,2.9-30.1-16.7
	c3.4-20.1,20.8-18.3,28.6-13c15.1,10.2,11.5-5.5,12.2-14.4c1.1-14.8,0.8-19.4,16.4-16.8c15.8,2.6,32.5,5.6,23.6,18.4
	c-5.1,7.4-14.8,22.2,13.2,26.8c24.6,4.1,24.7-12,19.7-22.2c-5.8-11.5,11-13.7,35.9-9.5c13,2.1,17.9-37.1,0-35.1
	c-16.3,1.8-23.6-4.8-21.7-17.2c1.9-12.4,9.2-21,25.8-14.6c14.6,5.6,15.2,0.8,18.2-17.2s-9.5-16.9-26.1-19.7c-6.4-1-18.4-2.5-13.7-9
	c4-5.6,21.3-24.1-12-29.6c-28.2-4.8-25.6,15.2-21.8,22.7c3.9,7.7-7.4,7.9-12.2,7.2c-19.6-3.3-30.7-10.3-34.2,11
	c-3.3,19.4-2.1,24,12.3,21.6c12.2-2,25.1,2.5,22.3,19.3S877,375.7,861,370.1c-11.4-4-14.9,4.6-15.9,12c-1,7.5-6.1,13.9-13.3,16.6
	c-18.7,6.9-57.7,15.8-119.4,22.3c-85.2,9-127.3-16.1-340.9-37.6C180.1,361.6,79.2,476.5,0,506.3"
        fill="none"
        id="puzzle_2_"
        stroke-miterlimit="10"
        stroke-width="2"
        stroke="#255FB5"/>
</svg>
