<?xml version="1.0" encoding="utf-8"?>
<!-- Generator: Adobe Illustrator 19.1.1, SVG Export Plug-In . SVG Version: 6.00 Build 0)  -->
<svg version="1.1" id="Слой_1" xmlns="http://www.w3.org/2000/svg" xmlns:xlink="http://www.w3.org/1999/xlink" x="0px" y="0px"
	 viewBox="0 0 85 85" style="enable-background:new 0 0 85 85;" xml:space="preserve">
<style type="text/css">
	.st0{fill:#FFFFFF;}
	.st1{fill:none;stroke:#266CD3;stroke-linecap:round;stroke-linejoin:round;stroke-miterlimit:10;}
	.st2{opacity:0.3;fill:#4E8AD1;}
</style>
<g>
	<g>
		<rect x="18.5" y="17.5" class="st0" width="50" height="50"/>
		<g>
			<rect x="18.8" y="17.5" class="st1" width="50" height="50"/>
			<rect x="18.8" y="17.5" class="st1" width="50" height="10.3"/>
			<rect x="18.8" y="17.5" class="st2" width="50" height="10.3"/>
			<rect x="22.3" y="35.6" class="st1" width="12.1" height="17.2"/>
			<rect x="22.3" y="35.6" class="st1" width="12.1" height="4.3"/>
			<rect x="53.3" y="35.6" class="st1" width="12.1" height="17.2"/>
			<rect x="53.3" y="35.6" class="st1" width="12.1" height="4.3"/>
			<rect x="37.8" y="32.2" class="st1" width="12.1" height="24.1"/>
			<rect x="37.8" y="32.2" class="st1" width="12.1" height="4.3"/>
			<rect x="37.8" y="32.2" class="st2" width="12.1" height="4.3"/>
			<rect x="24.9" y="46.8" class="st1" width="6.9" height="3.4"/>
			<rect x="24.9" y="46.8" class="st2" width="6.9" height="3.4"/>
			<rect x="40.4" y="50.3" class="st1" width="6.9" height="3.4"/>
			<rect x="40.4" y="50.3" class="st2" width="6.9" height="3.4"/>
			<rect x="55.9" y="46.8" class="st1" width="6.9" height="3.4"/>
			<rect x="55.9" y="46.8" class="st2" width="6.9" height="3.4"/>
			<line class="st1" x1="22.3" y1="59.7" x2="34.3" y2="59.7"/>
			<line class="st1" x1="37.8" y1="59.7" x2="49.9" y2="59.7"/>
			<line class="st1" x1="53.3" y1="59.7" x2="65.4" y2="59.7"/>
			<line class="st1" x1="38.7" y1="36.5" x2="43" y2="32.2"/>
			<line class="st1" x1="43" y1="36.5" x2="47.3" y2="32.2"/>
			<line class="st1" x1="47.3" y1="36.5" x2="49.9" y2="33.9"/>
			<circle class="st1" cx="24" cy="22.7" r="2.6"/>
			<circle class="st1" cx="31.8" cy="22.7" r="2.6"/>
			<circle class="st1" cx="39.5" cy="22.7" r="2.6"/>
		</g>
	</g>
	<g>
		<g>
			<line class="st1" x1="29" y1="1.3" x2="29" y2="10.4"/>
			<line class="st1" x1="33.5" y1="5.9" x2="24.4" y2="5.9"/>
		</g>
		<g>
			<line class="st1" x1="79.7" y1="23.2" x2="79.7" y2="28.7"/>
			<line class="st1" x1="82.4" y1="25.9" x2="76.9" y2="25.9"/>
		</g>
		<g>
			<line class="st1" x1="7.2" y1="58.3" x2="7.2" y2="67.5"/>
			<line class="st1" x1="11.7" y1="62.9" x2="2.6" y2="62.9"/>
		</g>
		<g>
			<line class="st1" x1="59.1" y1="78.2" x2="59.1" y2="83.7"/>
			<line class="st1" x1="61.9" y1="81" x2="56.4" y2="81"/>
		</g>
	</g>
</g>
</svg>
