<?xml version="1.0" encoding="utf-8"?>
<!-- Generator: Adobe Illustrator 19.1.1, SVG Export Plug-In . SVG Version: 6.00 Build 0)  -->
<svg version="1.1" id="Слой_1" xmlns="http://www.w3.org/2000/svg" xmlns:xlink="http://www.w3.org/1999/xlink" x="0px" y="0px"
	 viewBox="0 0 85 85" style="enable-background:new 0 0 85 85;" xml:space="preserve">
<style type="text/css">
	.st0{fill:#FFFFFF;}
	.st1{fill:none;stroke:#266CD3;stroke-linecap:round;stroke-linejoin:round;stroke-miterlimit:10;}
	.st2{opacity:0.3;fill:#4E8AD1;}
</style>
<g>
	<rect x="16.4" y="17.6" class="st0" width="50" height="50"/>
	<g>
		<rect x="18.2" y="17.5" class="st0" width="50" height="50"/>
		<rect x="18.2" y="17.5" class="st1" width="50" height="50"/>
		<rect x="18.2" y="17.5" class="st1" width="50" height="10.3"/>
		<rect x="18.2" y="17.5" class="st2" width="50" height="10.3"/>
		<rect x="18.2" y="27.8" class="st1" width="6" height="39.7"/>
		<rect x="18.2" y="27.8" class="st2" width="6" height="39.7"/>
		<line class="st1" x1="20.8" y1="32.2" x2="21.7" y2="32.2"/>
		<line class="st1" x1="20.8" y1="35.6" x2="21.7" y2="35.6"/>
		<line class="st1" x1="20.8" y1="39.1" x2="21.7" y2="39.1"/>
		<line class="st1" x1="20.8" y1="42.5" x2="21.7" y2="42.5"/>
		<line class="st1" x1="20.8" y1="45.9" x2="21.7" y2="45.9"/>
		<line class="st1" x1="20.8" y1="49.4" x2="21.7" y2="49.4"/>
		<line class="st1" x1="20.8" y1="52.8" x2="21.7" y2="52.8"/>
		<line class="st1" x1="20.8" y1="56.3" x2="21.7" y2="56.3"/>
		<line class="st1" x1="20.8" y1="59.7" x2="21.7" y2="59.7"/>
		<line class="st1" x1="28.6" y1="32.2" x2="39.8" y2="32.2"/>
		<line class="st1" x1="43.2" y1="32.2" x2="51.9" y2="32.2"/>
		<line class="st1" x1="55.3" y1="32.2" x2="57" y2="32.2"/>
		<line class="st1" x1="61.4" y1="35.6" x2="48.4" y2="35.6"/>
		<line class="st1" x1="45" y1="35.6" x2="32.9" y2="35.6"/>
		<line class="st1" x1="29.5" y1="35.6" x2="28.6" y2="35.6"/>
		<line class="st1" x1="28.6" y1="39.1" x2="36.4" y2="39.1"/>
		<line class="st1" x1="39.8" y1="39.1" x2="41.5" y2="39.1"/>
		<line class="st1" x1="45" y1="39.1" x2="57" y2="39.1"/>
		<line class="st1" x1="28.6" y1="42.5" x2="39.8" y2="42.5"/>
		<line class="st1" x1="43.2" y1="42.5" x2="51.9" y2="42.5"/>
		<line class="st1" x1="55.3" y1="45.9" x2="48.4" y2="45.9"/>
		<line class="st1" x1="45" y1="45.9" x2="32.9" y2="45.9"/>
		<line class="st1" x1="29.5" y1="45.9" x2="28.6" y2="45.9"/>
		<line class="st1" x1="28.6" y1="49.4" x2="36.4" y2="49.4"/>
		<line class="st1" x1="39.8" y1="49.4" x2="41.5" y2="49.4"/>
		<line class="st1" x1="45" y1="49.4" x2="57.9" y2="49.4"/>
		<line class="st1" x1="28.6" y1="52.8" x2="39.8" y2="52.8"/>
		<line class="st1" x1="43.2" y1="52.8" x2="51.9" y2="52.8"/>
		<line class="st1" x1="55.3" y1="52.8" x2="61.4" y2="52.8"/>
		<line class="st1" x1="51.9" y1="56.3" x2="48.4" y2="56.3"/>
		<line class="st1" x1="45" y1="56.3" x2="32.9" y2="56.3"/>
		<line class="st1" x1="29.5" y1="56.3" x2="28.6" y2="56.3"/>
		<line class="st1" x1="28.6" y1="59.7" x2="36.4" y2="59.7"/>
		<line class="st1" x1="39.8" y1="59.7" x2="41.5" y2="59.7"/>
		<line class="st1" x1="45" y1="59.7" x2="51" y2="59.7"/>
		<line class="st1" x1="54.5" y1="59.7" x2="55.3" y2="59.7"/>
		<circle class="st1" cx="23.4" cy="22.7" r="2.6"/>
		<circle class="st1" cx="31.2" cy="22.7" r="2.6"/>
		<circle class="st1" cx="38.9" cy="22.7" r="2.6"/>
	</g>
	<g>
		<g>
			<line class="st1" x1="29" y1="1.3" x2="29" y2="10.4"/>
			<line class="st1" x1="33.5" y1="5.9" x2="24.4" y2="5.9"/>
		</g>
		<g>
			<line class="st1" x1="79.7" y1="23.2" x2="79.7" y2="28.7"/>
			<line class="st1" x1="82.4" y1="25.9" x2="76.9" y2="25.9"/>
		</g>
		<g>
			<line class="st1" x1="7.2" y1="58.3" x2="7.2" y2="67.5"/>
			<line class="st1" x1="11.7" y1="62.9" x2="2.6" y2="62.9"/>
		</g>
		<g>
			<line class="st1" x1="59.1" y1="78.2" x2="59.1" y2="83.7"/>
			<line class="st1" x1="61.9" y1="81" x2="56.4" y2="81"/>
		</g>
	</g>
</g>
</svg>
