<svg version="1.1" id="Layer_1" xmlns="http://www.w3.org/2000/svg" xmlns:xlink="http://www.w3.org/1999/xlink" x="0px" y="0px"
	 viewBox="0 0 92.5 35.9" enable-background="new 0 0 92.5 35.9" xml:space="preserve">
<path fill="#255FB5" d="M46.2,8.7h-4c-0.4,0-0.6,0.3-0.6,0.6v24.3c0,0.4,0.3,0.6,0.6,0.6h4c0.4,0,0.6-0.3,0.6-0.6V9.3
	C46.8,9,46.5,8.7,46.2,8.7"/>
<path fill="#255FB5" d="M71.8,33.2l-5.6-8c2.4-1,3.6-3.1,3.6-6.2v-3.3c0-4.9-2.5-7-8.2-7h-9.9C51.3,8.7,51,9,51,9.3v24.3
	c0,0.4,0.3,0.6,0.7,0.6h4c0.4,0,0.6-0.3,0.6-0.6V26h4.1l5.6,8c0.1,0.2,0.3,0.3,0.5,0.3h4.8h0c0.4,0,0.6-0.3,0.6-0.6
	C71.9,33.4,71.9,33.3,71.8,33.2 M56.3,13.4h5.1c2.6,0,3.1,1,3.1,2.7v2.5c0,2.1-0.8,2.8-3.1,2.8h-5.1V13.4z"/>
<path fill="#255FB5" d="M84.8,9.1c-0.1-0.3-0.3-0.5-0.6-0.5h-6.1c-0.3,0-0.5,0.2-0.6,0.5l-7.7,24.3c-0.1,0.2,0,0.4,0.1,0.6
	c0.1,0.2,0.3,0.3,0.5,0.3h4.2c0.3,0,0.5-0.2,0.6-0.5l5.3-17.8c0,0,0.1-0.4,0.6-0.4c0.5,0,0.6,0.5,0.6,0.5l2.4,8.5h-3.4
	c-0.3,0-0.5,0.2-0.6,0.5l-0.9,3.4c-0.1,0.2,0,0.4,0.1,0.6c0.1,0.2,0.3,0.3,0.5,0.3h5.7l1.5,4.7c0.1,0.3,0.3,0.5,0.6,0.5h4.2
	c0.2,0,0.4-0.1,0.5-0.3c0.1-0.2,0.2-0.4,0.1-0.6L84.8,9.1z"/>
<path fill="#255FB5" d="M36.8,8.7h-4c-0.3,0-0.6,0.3-0.6,0.6v19c0,2.4-1.8,3.2-3,3.2c-0.2,0-0.4,0.1-0.5,0.3
	c-0.1,0.2-0.1,0.4-0.1,0.5l1,3.2c0.1,0.3,0.4,0.4,0.8,0.4c3.9,0,7.1-3,7.1-7.1V9.3c0-0.2-0.1-0.3-0.2-0.4C37.2,8.7,37,8.7,36.8,8.7"
	/>
<path fill="#255FB5" d="M5.6,2c-1.2,0-2.2,1-2.2,2.2c0,1.2,1,2.2,2.2,2.2c1.2,0,2.2-1,2.2-2.2C7.8,3.1,6.8,2,5.6,2"/>
<path fill="#255FB5" d="M20.3,2c-1.2,0-2.2,1-2.2,2.2c0,1.2,1,2.2,2.2,2.2c1.2,0,2.2-1,2.2-2.2C22.6,3.1,21.6,2.1,20.3,2"/>
<path fill="#255FB5" d="M13,0c-1.2,0-2.2,1-2.2,2.2c0,1.2,1,2.2,2.2,2.2c1.2,0,2.2-1,2.2-2.2C15.2,1,14.2,0,13,0"/>
<path fill="#255FB5" d="M25.6,8.3c-0.1-0.1-0.3-0.1-0.4-0.1c-0.1,0-0.2,0-0.3,0c-1.5,0.6-3.1,1-4.5,1.4c-0.3,0.1-0.5,0.3-0.6,0.5
	c-1,2.8-3.6,5.5-6.4,8.3c-0.1,0.1-0.3,0.2-0.5,0.2c-0.3,0-0.4-0.1-0.5-0.2c-2.7-2.8-5.4-5.5-6.4-8.3C5.9,9.9,5.7,9.6,5.4,9.6
	C4,9.2,2.5,8.8,1,8.2c-0.1,0-0.2,0-0.3,0c-0.2,0-0.3,0-0.4,0.1C0.1,8.5,0,8.7,0,8.9c0.2,2.3,1.2,4.6,2.8,7c1.6,2.3,3.6,4.3,5.6,6.4
	c3.6,3.7,7.1,7.2,7.4,11.3c0,0.4,0.3,0.7,0.7,0.7h4.3c0.2,0,0.4-0.1,0.5-0.2c0.1-0.1,0.2-0.3,0.2-0.5c-0.1-2.7-1.2-5.4-3.1-8.3
	c-0.4-0.6-0.9-1.2-1.3-1.8c-0.2-0.2-0.1-0.5,0-0.7c0.1-0.1,0.3-0.3,0.4-0.4c2-2,4-4.1,5.6-6.4c1.7-2.4,2.6-4.7,2.8-7
	C25.9,8.7,25.8,8.5,25.6,8.3"/>
<path fill="#255FB5" d="M8.4,25.5c-0.1-0.1-0.3-0.2-0.5-0.2c-0.3,0-0.5,0.2-0.6,0.3c-1.8,2.7-2.7,5.3-2.9,7.9c0,0.2,0.1,0.4,0.2,0.5
	c0.1,0.1,0.3,0.2,0.5,0.2h4.3c0.4,0,0.7-0.3,0.7-0.7c0.1-1.3,0.5-2.5,1.2-3.8c0.2-0.5,0.1-0.9-0.1-1.1C10.5,27.8,9.6,26.8,8.4,25.5"
	/>
<path fill="#255FB5" d="M13,10.4c1.3,0,2.1-0.1,2.4-0.1c0.3,0,0.6,0.3,0.6,0.7c0,0.1,0,0.2-0.1,0.3c-0.2,0.5-1,2.2-2.5,3.7
	c-0.2,0.2-0.4,0.2-0.5,0.2h0c-0.1,0-0.3,0-0.5-0.2c-1.5-1.5-2.3-3.2-2.5-3.7c0-0.1-0.1-0.1-0.1-0.3c0-0.4,0.3-0.7,0.6-0.7
	C10.8,10.3,11.6,10.4,13,10.4L13,10.4z"/>
</svg>