<svg version="1.1" id="Layer_1" xmlns="http://www.w3.org/2000/svg" xmlns:xlink="http://www.w3.org/1999/xlink" x="0px" y="0px"
	 viewBox="0 0 230 50" enable-background="new 0 0 230 50" xml:space="preserve">
<g>
	<path fill="#255FB5" d="M178.4,12.5h-5.3c-0.5,0-0.9,0.4-0.9,0.9v4.7c0,0.5,0.4,0.9,0.9,0.9h5.3c0.5,0,0.9-0.4,0.9-0.9v-4.7
		C179.3,12.9,178.9,12.5,178.4,12.5"/>
	<path fill="#255FB5" d="M67.6,13.8c-0.1-0.4-0.5-0.6-0.9-0.6h-8.4c-0.4,0-0.7,0.3-0.9,0.6L46.8,47.5c-0.1,0.3,0,0.6,0.1,0.8
		c0.2,0.2,0.4,0.4,0.7,0.4h5.8c0.4,0,0.8-0.3,0.9-0.6l7.3-24.8c0,0,0.2-0.6,0.9-0.6c0.7,0,0.8,0.6,0.8,0.6L66.8,35h-4.6
		c-0.4,0-0.8,0.3-0.9,0.7L60,40.3c-0.1,0.3,0,0.6,0.1,0.8c0.2,0.2,0.4,0.4,0.7,0.4h7.8l2,6.6c0.1,0.4,0.5,0.6,0.9,0.6h5.8
		c0.3,0,0.6-0.1,0.7-0.4c0.2-0.2,0.2-0.5,0.1-0.8L67.6,13.8z"/>
	<path fill="#255FB5" d="M92.9,43.5c0-0.3-0.2-0.5-0.4-0.6c-0.2-0.1-0.5-0.2-0.7-0.1c-0.9,0.2-1.8,0.4-2.5,0.4
		c-1.3,0-1.9-0.6-1.9-1.9V28.3h5.2c0.5,0,0.9-0.4,0.9-0.9v-4c0-0.5-0.4-0.9-0.9-0.9h-5.2v-6.2c0-0.3-0.1-0.5-0.3-0.7
		c-0.2-0.2-0.5-0.3-0.7-0.2L81,16.1c-0.4,0.1-0.8,0.4-0.8,0.9v5.5h-2.9c-0.5,0-0.9,0.4-0.9,0.9v4c0,0.5,0.4,0.9,0.9,0.9h2.9v13.8
		c0,4.7,2.5,7.1,7.4,7.1c1.4,0,3.8-0.3,5.3-0.9c0.4-0.1,0.7-0.6,0.6-1L92.9,43.5z"/>
	<path fill="#255FB5" d="M102.8,12.5h-5.3c-0.5,0-0.9,0.4-0.9,0.9v34.4c0,0.5,0.4,0.9,0.9,0.9h5.3c0.5,0,0.9-0.4,0.9-0.9V13.4
		C103.7,12.9,103.2,12.5,102.8,12.5"/>
	<path fill="#255FB5" d="M116.5,22c-2.7,0-6,0.4-8.4,1.1c-0.4,0.1-0.7,0.6-0.6,1l0.6,3.9c0,0.2,0.2,0.5,0.4,0.6
		c0.2,0.1,0.4,0.2,0.7,0.1c2.2-0.4,4.5-0.7,6.4-0.7c3.8,0,4.5,0.8,4.5,3.4v2.3h-5.7c-5.5,0-7.8,2.3-7.8,7.5c0,5.1,2.6,8,7,8
		c2.6,0,5.2-0.7,7.3-2l0.2,0.8c0.1,0.4,0.5,0.7,0.9,0.7h4.3c0.5,0,0.9-0.4,0.9-0.9V31.5C127.2,24.6,124.3,22,116.5,22 M120,39.1v3.1
		c-0.9,0.5-2.5,1.1-4.4,1.1c-1.7,0-2.2-0.5-2.2-2.2c0-1.6,0.3-2.1,2.3-2.1H120z"/>
	<path fill="#255FB5" d="M140.6,32.5c-3.3-0.9-3.3-0.9-3.3-2.7c0-1.2,0.1-1.8,2.8-1.8c1.9,0,4.6,0.3,6.4,0.6c0.2,0,0.5,0,0.7-0.2
		c0.2-0.1,0.3-0.4,0.4-0.6l0.5-4.1c0.1-0.5-0.2-0.9-0.7-1c-2-0.5-4.9-0.8-7.3-0.8c-8.2,0-9.9,3.1-9.9,7.7c0,5.1,1,6.8,7.2,8.4
		c4.1,1,4.1,1.7,4.1,3c0,1.6-0.1,2.2-2.8,2.2c-2.2,0-4.7-0.3-6.9-0.9c-0.2-0.1-0.5,0-0.7,0.1c-0.2,0.1-0.4,0.4-0.4,0.6l-0.7,3.9
		c-0.1,0.4,0.2,0.9,0.6,1c2.4,0.8,5.9,1.3,8.5,1.3c7.9,0,9.6-3.3,9.6-8.3C148.6,35.4,147.6,34.4,140.6,32.5"/>
	<path fill="#255FB5" d="M161.2,32.5c-3.3-0.9-3.3-0.9-3.3-2.7c0-1.2,0.1-1.8,2.8-1.8c1.9,0,4.6,0.3,6.4,0.6c0.2,0,0.5,0,0.7-0.2
		c0.2-0.1,0.3-0.4,0.4-0.6l0.5-4.1c0.1-0.5-0.2-0.9-0.7-1c-2-0.5-4.9-0.8-7.3-0.8c-8.2,0-9.9,3.1-9.9,7.7c0,5.1,1,6.8,7.2,8.4
		c4.1,1,4.1,1.7,4.1,3c0,1.6-0.1,2.2-2.8,2.2c-2.2,0-4.7-0.3-6.9-0.9c-0.2-0.1-0.5,0-0.7,0.1c-0.2,0.1-0.4,0.4-0.4,0.6l-0.7,3.9
		c-0.1,0.4,0.2,0.9,0.6,1c2.4,0.8,5.9,1.3,8.5,1.3c7.9,0,9.6-3.3,9.6-8.3C169.2,35.4,168.2,34.4,161.2,32.5"/>
	<path fill="#255FB5" d="M178.4,22.5h-5.3c-0.5,0-0.9,0.4-0.9,0.9v24.4c0,0.5,0.4,0.9,0.9,0.9h5.3c0.5,0,0.9-0.4,0.9-0.9V23.4
		C179.3,22.9,178.9,22.5,178.4,22.5"/>
	<path fill="#255FB5" d="M192.3,22c-2.7,0-6,0.4-8.4,1.1c-0.4,0.1-0.7,0.6-0.6,1l0.6,3.9c0,0.2,0.2,0.5,0.4,0.6
		c0.2,0.1,0.4,0.2,0.7,0.1c2.2-0.4,4.5-0.7,6.4-0.7c3.8,0,4.5,0.8,4.5,3.4v2.3h-5.7c-5.5,0-7.8,2.3-7.8,7.5c0,5.1,2.6,8,7,8
		c2.6,0,5.2-0.7,7.3-2l0.2,0.8c0.1,0.4,0.5,0.7,0.9,0.7h4.3c0.5,0,0.9-0.4,0.9-0.9V31.5C203,24.6,200.1,22,192.3,22 M195.8,39.1v3.1
		c-0.9,0.5-2.5,1.1-4.4,1.1c-1.7,0-2.2-0.5-2.2-2.2c0-1.6,0.3-2.1,2.3-2.1H195.8z"/>
	<path fill="#255FB5" d="M222.7,22c-2.8,0-6.7,1-9.9,2.5l-0.4-1.3c-0.1-0.4-0.5-0.6-0.9-0.6h-4c-0.5,0-0.9,0.4-0.9,0.9v24.4
		c0,0.5,0.4,0.9,0.9,0.9h5.3c0.5,0,0.9-0.4,0.9-0.9V30.9c1.9-1,4.6-2,6.2-2c1.2,0,1.6,0.4,1.6,1.6v17.2c0,0.5,0.4,0.9,0.9,0.9h5.3
		c0.5,0,0.9-0.4,0.9-0.9V29.9C228.8,24.6,226.8,22,222.7,22"/>
	<path fill="#9EC73B" d="M53.4,1.3c-0.2-0.3-0.6-0.5-1-0.5c-0.2,0-0.4,0.1-0.6,0.1C44.5,4.9,36.1,7,27.4,7S10.2,4.9,3,0.9
		C2.8,0.8,2.6,0.8,2.4,0.8C2,0.8,1.6,1,1.4,1.3C1.1,1.7,1,2.5,1.6,3c3.6,2.7,7.7,4.8,12,6.3c4.4,1.5,9.1,2.3,13.8,2.3h0
		c4.7,0,9.4-0.8,13.8-2.3c4.3-1.5,8.3-3.6,12-6.3C53.7,2.5,53.7,1.7,53.4,1.3"/>
	<path fill="#09BDFF" d="M45,12.7c-0.2-0.1-0.4-0.2-0.6-0.2c-0.1,0-0.2,0-0.3,0.1c-2.1,0.8-4.3,1.4-6.2,1.9
		c-0.4,0.1-0.7,0.4-0.9,0.7c-1.4,3.9-5.1,7.6-8.9,11.5C28,26.8,27.7,27,27.4,27c-0.3,0-0.6-0.2-0.7-0.3c-3.8-3.9-7.5-7.6-8.9-11.5
		c-0.1-0.4-0.5-0.7-0.9-0.7c-2-0.5-4.1-1.1-6.2-1.9c-0.1,0-0.2-0.1-0.3-0.1c-0.2,0-0.4,0.1-0.6,0.2c-0.3,0.2-0.4,0.5-0.4,0.9
		c0.3,3.2,1.6,6.4,3.9,9.7c2.2,3.1,5,6,7.8,8.8c5.1,5.2,9.8,10,10.3,15.7c0,0.5,0.5,0.9,1,0.9h5.9c0.3,0,0.5-0.1,0.7-0.3
		c0.2-0.2,0.3-0.5,0.3-0.7c-0.2-3.8-1.6-7.6-4.3-11.6c-0.6-0.8-1.2-1.7-1.8-2.5c-0.3-0.3-0.2-0.7,0-0.9c0.2-0.2,0.4-0.4,0.6-0.6
		c2.7-2.8,5.6-5.7,7.8-8.8c2.3-3.3,3.6-6.5,3.9-9.7C45.4,13.2,45.3,12.9,45,12.7"/>
	<path fill="#09BDFF" d="M21,36.5c-0.1-0.1-0.3-0.3-0.7-0.3c-0.4,0-0.7,0.3-0.8,0.5c-2.5,3.8-3.8,7.4-4,11c0,0.3,0.1,0.5,0.3,0.7
		c0.2,0.2,0.4,0.3,0.7,0.3h5.9c0.5,0,0.9-0.4,1-0.9c0.1-1.7,0.7-3.5,1.7-5.3c0.3-0.6,0.1-1.2-0.1-1.5C24,39.7,22.8,38.3,21,36.5"/>
	<path fill="#09BDFF" d="M27.4,15.6c1.9,0,2.9-0.1,3.3-0.1c0.5,0,0.9,0.4,0.9,0.9c0,0.2,0,0.3-0.1,0.4c-0.2,0.7-1.4,3-3.5,5.1
		c-0.2,0.2-0.5,0.3-0.7,0.3c-0.2,0-0.5,0-0.7-0.3c-2.1-2-3.2-4.4-3.5-5.1c0-0.1-0.1-0.2-0.1-0.4c0-0.5,0.4-0.9,0.9-0.9
		C24.4,15.5,25.5,15.6,27.4,15.6L27.4,15.6z"/>
</g>
</svg>