<svg version="1.1" id="Layer_1" xmlns="http://www.w3.org/2000/svg" xmlns:xlink="http://www.w3.org/1999/xlink" x="0px" y="0px"
	 viewBox="0 0 199.4 37.1" enable-background="new 0 0 199.4 37.1" xml:space="preserve">
<path fill="#00609D" d="M59.4,13.9v19.7h-2.5V13.9H59.4z"/>
<path fill="#00609D" d="M64,23.3c0-1.5,0-2.7-0.1-3.8h2.3l0.1,2.3h0.1c0.7-1.3,2.3-2.7,4.7-2.7c2,0,5,1.2,5,6v8.4h-2.6v-8.2
	c0-2.3-0.8-4.2-3.3-4.2c-1.7,0-3,1.2-3.4,2.6c-0.1,0.3-0.2,0.8-0.2,1.2v8.5H64V23.3z"/>
<path fill="#00609D" d="M83.2,15.4v4.1h3.7v2h-3.7V29c0,1.8,0.5,2.7,1.9,2.7c0.7,0,1.2-0.1,1.5-0.2l0.1,1.9
	c-0.5,0.2-1.3,0.4-2.3,0.4c-1.2,0-2.2-0.4-2.8-1.1c-0.7-0.8-1-2-1-3.7v-7.7h-2.2v-2h2.2v-3.4L83.2,15.4z"/>
<path fill="#00609D" d="M91,27c0.1,3.5,2.3,4.9,4.9,4.9c1.8,0,3-0.3,3.9-0.7l0.4,1.8c-0.9,0.4-2.5,0.9-4.7,0.9c-4.4,0-7-2.9-7-7.1
	c0-4.3,2.5-7.6,6.6-7.6c4.6,0,5.8,4.1,5.8,6.7c0,0.5-0.1,0.9-0.1,1.2H91z M98.6,25.1c0-1.6-0.7-4.2-3.6-4.2c-2.6,0-3.7,2.4-3.9,4.2
	H98.6z"/>
<path fill="#00609D" d="M104.3,12.8h2.6v20.8h-2.6V12.8z"/>
<path fill="#00609D" d="M111.1,12.8h2.6v20.8h-2.6V12.8z"/>
<path fill="#00609D" d="M120.9,15.5c0,0.9-0.6,1.6-1.6,1.6c-0.9,0-1.5-0.7-1.5-1.6c0-0.9,0.7-1.6,1.6-1.6
	C120.3,13.9,120.9,14.6,120.9,15.5z M118,33.6V19.5h2.6v14.1H118z"/>
<path fill="#00609D" d="M129,13.9h2.5v13.2c0,5.2-2.6,6.8-6,6.8c-0.9,0-2.1-0.2-2.7-0.5l0.4-2.1c0.5,0.2,1.3,0.4,2.1,0.4
	c2.3,0,3.6-1,3.6-4.9V13.9z"/>
<path fill="#00609D" d="M143.1,13.9v19.7h-4.5V13.9H143.1z"/>
<path fill="#00609D" d="M146.9,14.2c1.6-0.3,3.8-0.4,6-0.4c3.7,0,6.2,0.7,8.1,2.1c2,1.5,3.3,3.9,3.3,7.4c0,3.8-1.4,6.4-3.3,8
	c-2.1,1.7-5.2,2.5-9.1,2.5c-2.3,0-3.9-0.1-5.1-0.3V14.2z M151.4,30.2c0.4,0.1,1,0.1,1.5,0.1c4,0,6.7-2.2,6.7-6.9
	c0-4.1-2.4-6.3-6.2-6.3c-1,0-1.6,0.1-2,0.2V30.2z"/>
<path fill="#00609D" d="M179,25.3h-7.2v4.7h8.1v3.7h-12.6V13.9h12.2v3.7h-7.7v4.1h7.2V25.3z"/>
<path fill="#00609D" d="M187.4,28.5l-1.4,5.1h-4.6l6-19.7h5.8l6.1,19.7h-4.8l-1.5-5.1H187.4z M192.4,25.2l-1.2-4.2
	c-0.3-1.2-0.7-2.6-1-3.8h-0.1c-0.3,1.2-0.6,2.7-0.9,3.8l-1.2,4.2H192.4z"/>
<path fill="#F58A1F" d="M0,18.8c0,2.9,2.4,5.3,5.3,5.3c2.9,0,5.3-2.4,5.3-5.3c0-2.9-2.4-5.3-5.3-5.3C2.4,13.4,0,15.8,0,18.8z"/>
<path fill="#00609D" d="M31.9,0c-2.9,0-4.7,2.4-4.7,6.3c0,0,0,7.6,0,12.5c0,2,0,3.5,0,3.7c0,3.5,0,8.1,0,8.1c0,4,1.7,6.3,4.7,6.3
	c2.9,0,4.7-2.4,4.7-6.3c0,0,0-4.7,0-8.1l0,0c0-0.2,0-1.5,0-3.2c0-0.2,0-0.3,0-0.5c0-4.8,0-12.5,0-12.5C36.6,2.4,34.8,0,31.9,0z"/>
<path fill="#00609D" d="M23.7,0.5C23.7,0.5,23.7,0.5,23.7,0.5c-0.5,0-2.7,0-4.9,0c-2.1,0-4.1,0-4.5,0l0,0H4.7c0,0,0,0,0,0
	c0,0,0,0,0,0H4.5v0C2,0.6,0,2.7,0,5.2s2,4.6,4.5,4.7v0h9.8c0,5,0,5.2,0,8.5c0,0.1,0,0.1,0,0.2h0c0,0.1,0,0.1,0,0.2c0,4.9-4,9-9,9
	c-0.1,0-0.2,0-0.2,0l0,0c-0.1,0-0.3,0-0.4,0c-2.6,0-4.7,2.1-4.7,4.7c0,2.6,2.1,4.7,4.7,4.7c0.1,0,0.3,0,0.4,0l0,0c0.1,0,0.2,0,0.2,0
	c10.1,0,18.3-8.2,18.3-18.3c0-0.1,0-0.1,0-0.2h0c0-0.4,0-1.5,0-3c0,0,0,0,0,0C23.7,15.6,23.7,0.9,23.7,0.5z"/>
</svg>