<svg version="1.1" id="Layer_1" xmlns="http://www.w3.org/2000/svg" xmlns:xlink="http://www.w3.org/1999/xlink" x="0px" y="0px"
	 viewBox="0 0 40 40" enable-background="new 0 0 40 40" xml:space="preserve">
<g>
	<path d="M29.3,33.7H11.3c-2.2,0-3.9-1.8-3.9-3.9v-8.3h3.2v5.9c0,0.4,0.3,0.7,0.7,0.7h2c0.4,0,0.7-0.3,0.7-0.7v-5.9
		h5.8l0.1,0.4c0.9,4.2,4.7,7.2,9,7.2c5.1,0,9.2-4.2,9.2-9.3c0-5.1-4.1-9.2-9.2-9.2c-4.3,0-8.1,3-9,7.2l-0.1,0.4l-16,0
		c-0.8,0-1.5,0.5-1.7,1.3c-0.3,1.1,0.5,2,1.6,2.1l0.5,0v8.3c0,4,3.3,7.3,7.3,7.3h18c4,0,7.3-3.3,7.3-7.3v0c0-0.3-0.4-0.5-0.6-0.3
		c-0.9,0.7-1.9,1.3-3,1.8C32.3,32.8,30.9,33.7,29.3,33.7z M28.8,13.9c3.3,0,5.9,2.7,5.9,5.9c0,3.3-2.7,5.9-5.9,5.9
		c-3.3,0-5.9-2.7-5.9-5.9C22.9,16.6,25.5,13.9,28.8,13.9z"/>
	<path d="M36.5,10.2L36.5,10.2c0-4-3.3-7.3-7.3-7.3h-18c-4,0-7.3,3.3-7.3,7.3v4.6c0,0.4,0.3,0.7,0.7,0.7h2
		c0.4,0,0.7-0.3,0.7-0.7v-4.6c0-2.2,1.8-3.9,3.9-3.9h17.9c1.6,0,3,0.9,3.6,2.3c0,0.1,0.1,0.2,0.2,0.2c1,0.4,2,1,2.9,1.7
		C36.2,10.7,36.5,10.5,36.5,10.2z"/>
</g>
</svg>