<svg version="1.1" id="Layer_1" xmlns="http://www.w3.org/2000/svg" xmlns:xlink="http://www.w3.org/1999/xlink" x="0px" y="0px"
	 viewBox="0 0 164.8 37.5" enable-background="new 0 0 164.8 37.5" xml:space="preserve">
<path fill="#255FB5" d="M104.8,6.8c1.7,0,3.9,0.2,6.1,0.6c0.2,0,0.4,0,0.5-0.1c0.2-0.1,0.3-0.3,0.3-0.5l0.5-3.6
	c0-0.4-0.2-0.7-0.5-0.8c-2.2-0.5-4.7-0.8-7-0.8c-6.6,0-9.9,2.7-9.9,8.1v12.1c0,5.4,3.3,8.1,9.9,8.1c2.3,0,4.8-0.3,7-0.8
	c0.3-0.1,0.6-0.4,0.5-0.8l-0.5-3.6c0-0.2-0.1-0.4-0.3-0.5c-0.2-0.1-0.3-0.2-0.5-0.1c-2.2,0.4-4.5,0.6-6.1,0.6c-3.3,0-4.3-1-4.3-3.8
	V10.6C100.5,7.8,101.6,6.8,104.8,6.8"/>
<path fill="#255FB5" d="M61.9,2h-4.3c-0.4,0-0.7,0.3-0.7,0.7v10.4h-9.4V2.7c0-0.4-0.3-0.7-0.7-0.7h-4.3c-0.4,0-0.7,0.3-0.7,0.7v26.1
	c0,0.4,0.3,0.7,0.7,0.7h4.3c0.4,0,0.7-0.3,0.7-0.7V18.2h9.4v10.7c0,0.4,0.3,0.7,0.7,0.7h4.3c0.4,0,0.7-0.3,0.7-0.7V2.7
	C62.6,2.3,62.3,2,61.9,2"/>
<path fill="#255FB5" d="M141.7,8.8c-2.1,0-4.6,0.3-6.5,0.8c-0.3,0.1-0.6,0.4-0.5,0.8l0.5,3c0,0.2,0.1,0.4,0.3,0.5
	c0.2,0.1,0.3,0.2,0.5,0.1c1.7-0.3,3.5-0.5,5-0.5c3,0,3.5,0.6,3.5,2.7v1.8H140c-4.2,0-6,1.7-6,5.8c0,3.9,2,6.2,5.4,6.2
	c2,0,4-0.6,5.7-1.6l0.2,0.6c0.1,0.3,0.4,0.5,0.7,0.5h3.3c0.4,0,0.7-0.3,0.7-0.7V16.2C150,10.8,147.7,8.8,141.7,8.8 M144.5,22.1v2.4
	c-0.7,0.4-1.9,0.9-3.4,0.9c-1.3,0-1.7-0.4-1.7-1.7c0-1.2,0.2-1.6,1.8-1.6H144.5z"/>
<path fill="#255FB5" d="M164.3,25.5c0-0.2-0.1-0.4-0.3-0.5c-0.2-0.1-0.4-0.1-0.6-0.1c-0.7,0.2-1.4,0.3-2,0.3c-1,0-1.5-0.4-1.5-1.4
	v-10h4c0.4,0,0.7-0.3,0.7-0.7V9.9c0-0.4-0.3-0.7-0.7-0.7h-4V4.4c0-0.2-0.1-0.4-0.2-0.5c-0.2-0.1-0.4-0.2-0.6-0.2l-4.1,0.6
	c-0.3,0-0.6,0.3-0.6,0.7v4.2h-2.3c-0.4,0-0.7,0.3-0.7,0.7v3.1c0,0.4,0.3,0.7,0.7,0.7h2.3v10.7c0,3.7,1.9,5.5,5.7,5.5
	c1.1,0,2.9-0.2,4.1-0.7c0.3-0.1,0.5-0.4,0.5-0.8L164.3,25.5z"/>
<path fill="#255FB5" d="M70.9,9.2h-4.1c-0.4,0-0.7,0.3-0.7,0.7v18.9c0,0.4,0.3,0.7,0.7,0.7h4.1c0.4,0,0.7-0.3,0.7-0.7V9.9
	C71.6,9.5,71.2,9.2,70.9,9.2"/>
<path fill="#255FB5" d="M70.9,1.2h-4.1c-0.4,0-0.7,0.3-0.7,0.7V6c0,0.4,0.3,0.7,0.7,0.7h4.1c0.4,0,0.7-0.3,0.7-0.7V1.9
	C71.6,1.5,71.2,1.2,70.9,1.2"/>
<path fill="#255FB5" d="M70.9,9.2h-4.1c-0.4,0-0.7,0.3-0.7,0.7v18.9c0,0.4,0.3,0.7,0.7,0.7h4.1c0.4,0,0.7-0.3,0.7-0.7V9.9
	C71.6,9.5,71.2,9.2,70.9,9.2"/>
<path fill="#255FB5" d="M85.6,8.8c-2.2,0-4.2,0.6-6.1,1.9l-0.3-1c-0.1-0.3-0.4-0.5-0.7-0.5h-3.2c-0.4,0-0.7,0.3-0.7,0.7v26.9
	c0,0.4,0.3,0.7,0.7,0.7h4.1c0.4,0,0.7-0.3,0.7-0.7v-7.4c1.6,0.3,3.4,0.5,5,0.5c4.5,0,6.8-2.4,6.8-7.3V16C92,10.1,88.5,8.8,85.6,8.8
	 M86.4,15.8v7c0,1.7-0.6,2.3-2.2,2.3c-1.6,0-3.2-0.3-4.1-0.5v-9.4c0.9-0.8,2.5-1.6,4.1-1.6C85.8,13.6,86.4,14.2,86.4,15.8"/>
<path fill="#255FB5" d="M127.1,8.8c-2,0-4.7,0.7-6.9,1.7V1.9c0-0.4-0.3-0.7-0.7-0.7h-4.1c-0.4,0-0.7,0.3-0.7,0.7v26.9
	c0,0.4,0.3,0.7,0.7,0.7h4.1c0.4,0,0.7-0.3,0.7-0.7V15.7c1.5-0.8,3.6-1.5,4.8-1.5c0.9,0,1.3,0.3,1.3,1.3v13.3c0,0.4,0.3,0.7,0.7,0.7
	h4.1c0.4,0,0.7-0.3,0.7-0.7V14.9C131.8,10.9,130.2,8.8,127.1,8.8"/>
<path fill="#255FB5" d="M28.2,19.3c0-0.4-0.3-0.7-0.7-0.7c-0.2,0-0.3,0.1-0.5,0.2c-1.8,1.7-5,3.1-8.8,3.1h0c-3.8,0-6.8-1.5-8.8-3.1
	c-0.1-0.1-0.3-0.2-0.5-0.2c-0.4,0-0.7,0.4-0.7,0.8c0,0.3,0.2,0.6,0.4,0.9c1.1,1.6,4.5,4.4,9.5,4.4h0.1c5.1,0,8.4-2.8,9.5-4.4
	C28,20,28.2,19.6,28.2,19.3z"/>
<path fill="#255FB5" d="M33.3,32c-1.3-0.7-2.5-2-3.1-3.7c-0.1-0.3,0-0.6,0.2-0.8c3.7-2.9,6.1-7.1,6.1-11.7C36.5,7.1,28.4,0,18.3,0
	C8.2,0,0,7.1,0,15.8c0,8.7,8.2,15.8,18.3,15.8c1.3,0,2.6-0.1,3.8-0.3c0.3-0.1,0.6,0,0.8,0.1c2.5,1.5,6.2,2.8,9.5,2.8
	c1.1,0,1.5-0.7,1.5-1.3C33.8,32.5,33.6,32.2,33.3,32z M28.4,30.4c0.1,0.1,0.1,0.1,0.1,0.2c0,0.1-0.1,0.2-0.2,0.2
	c-0.9,0-3.7-1.5-5.2-2.8c-0.2-0.2-0.5-0.2-0.9-0.1c-1.2,0.3-2.5,0.4-3.9,0.4c-8.4,0-15.2-5.6-15.2-12.6c0-6.9,6.8-12.5,15.2-12.5
	c8.4,0,15.2,5.6,15.2,12.5c0,4.1-2.4,7.8-6.2,10.1c-0.2,0.2-0.5,0.4-0.5,0.8C26.8,27.4,27.5,29.2,28.4,30.4z"/>
</svg>