<svg version="1.1" id="Layer_1" xmlns="http://www.w3.org/2000/svg" xmlns:xlink="http://www.w3.org/1999/xlink" x="0px" y="0px"
	 viewBox="0 0 150 150" enable-background="new 0 0 150 150" xml:space="preserve">
<rect x="50" y="50" fill="#FFFFFF" stroke="#266CD3" stroke-linecap="round" stroke-linejoin="round" stroke-miterlimit="10" width="50" height="50"/>
<rect x="50" y="50" fill="none" stroke="#266CD3" stroke-linecap="round" stroke-linejoin="round" stroke-miterlimit="10" width="50" height="10.3"/>
<rect x="50" y="50" opacity="0.3" fill="#4E8AD1" width="50" height="10.3"/>
<line fill="none" stroke="#266CD3" stroke-linecap="round" stroke-linejoin="round" stroke-miterlimit="10" x1="55.2" y1="69.8" x2="68.1" y2="69.8"/>
<line fill="none" stroke="#266CD3" stroke-linecap="round" stroke-linejoin="round" stroke-miterlimit="10" x1="57.8" y1="66.4" x2="65.5" y2="66.4"/>
<line fill="none" stroke="#266CD3" stroke-linecap="round" stroke-linejoin="round" stroke-miterlimit="10" x1="55.2" y1="73.3" x2="68.1" y2="73.3"/>
<path fill="none" stroke="#266CD3" stroke-linecap="round" stroke-linejoin="round" stroke-miterlimit="10" d="M96.6,87.1l-7.7-7.7
	c-0.5,0.5-1.1,0.8-1.8,0.8c-0.7,0-1.4-0.3-1.8-0.8l-6.8,6.8L74.2,82c-0.5,0.5-1.1,0.8-1.8,0.8s-1.4-0.3-1.8-0.8l-7.7,7.7l-5.1-5.1
	c-0.5,0.5-1.1,0.8-1.8,0.8c-0.7,0-1.4-0.3-1.8-0.8L50,88.8V100h50V83.6L96.6,87.1z"/>
<path opacity="0.3" fill="#4E8AD1" d="M96.6,87.1l-7.7-7.7c-0.5,0.5-1.1,0.8-1.8,0.8c-0.7,0-1.4-0.3-1.8-0.8l-6.8,6.8L74.2,82
	c-0.5,0.5-1.1,0.8-1.8,0.8s-1.4-0.3-1.8-0.8l-7.7,7.7l-5.1-5.1c-0.5,0.5-1.1,0.8-1.8,0.8c-0.7,0-1.4-0.3-1.8-0.8L50,88.8V100h50
	V83.6L96.6,87.1z"/>
<circle fill="none" stroke="#266CD3" stroke-linecap="round" stroke-linejoin="round" stroke-miterlimit="10" cx="55.2" cy="55.2" r="2.6"/>
<circle fill="none" stroke="#266CD3" stroke-linecap="round" stroke-linejoin="round" stroke-miterlimit="10" cx="62.9" cy="55.2" r="2.6"/>
<circle fill="none" stroke="#266CD3" stroke-linecap="round" stroke-linejoin="round" stroke-miterlimit="10" cx="70.7" cy="55.2" r="2.6"/>
<circle fill="none" stroke="#266CD3" stroke-linecap="round" stroke-linejoin="round" stroke-miterlimit="10" cx="56" cy="82.8" r="2.6"/>
<circle fill="none" stroke="#266CD3" stroke-linecap="round" stroke-linejoin="round" stroke-miterlimit="10" cx="72.4" cy="80.2" r="2.6"/>
<circle fill="none" stroke="#266CD3" stroke-linecap="round" stroke-linejoin="round" stroke-miterlimit="10" cx="87.1" cy="77.6" r="2.6"/>
<line fill="none" stroke="#266CD3" stroke-linecap="round" stroke-linejoin="round" stroke-miterlimit="10" x1="60.3" y1="33.8" x2="60.3" y2="42.9"/>
<line fill="none" stroke="#266CD3" stroke-linecap="round" stroke-linejoin="round" stroke-miterlimit="10" x1="64.9" y1="38.4" x2="55.8" y2="38.4"/>
<line fill="none" stroke="#266CD3" stroke-linecap="round" stroke-linejoin="round" stroke-miterlimit="10" x1="111" y1="55.7" x2="111" y2="61.2"/>
<line fill="none" stroke="#266CD3" stroke-linecap="round" stroke-linejoin="round" stroke-miterlimit="10" x1="113.8" y1="58.4" x2="108.3" y2="58.4"/>
<line fill="none" stroke="#266CD3" stroke-linecap="round" stroke-linejoin="round" stroke-miterlimit="10" x1="38.6" y1="90.8" x2="38.6" y2="100"/>
<line fill="none" stroke="#266CD3" stroke-linecap="round" stroke-linejoin="round" stroke-miterlimit="10" x1="43.1" y1="95.4" x2="34" y2="95.4"/>
<line fill="none" stroke="#266CD3" stroke-linecap="round" stroke-linejoin="round" stroke-miterlimit="10" x1="90.5" y1="110.7" x2="90.5" y2="116.2"/>
<line fill="none" stroke="#266CD3" stroke-linecap="round" stroke-linejoin="round" stroke-miterlimit="10" x1="93.2" y1="113.5" x2="87.8" y2="113.5"/>
</svg>