<svg version="1.1" id="Layer_1" xmlns="http://www.w3.org/2000/svg" xmlns:xlink="http://www.w3.org/1999/xlink" x="0px" y="0px"
	 viewBox="0 0 150 150" enable-background="new 0 0 150 150" xml:space="preserve">
<rect x="49.5" y="50" fill="#FFFFFF" stroke="#266CD3" stroke-linecap="round" stroke-linejoin="round" stroke-miterlimit="10" width="50" height="50"/>
<rect x="49.5" y="50" fill="none" stroke="#266CD3" stroke-linecap="round" stroke-linejoin="round" stroke-miterlimit="10" width="50" height="10.3"/>
<rect x="49.5" y="50" opacity="0.3" fill="#4E8AD1" width="50" height="10.3"/>
<rect x="52.9" y="68.1" fill="none" stroke="#266CD3" stroke-linecap="round" stroke-linejoin="round" stroke-miterlimit="10" width="12.1" height="17.2"/>
<rect x="52.9" y="68.1" fill="none" stroke="#266CD3" stroke-linecap="round" stroke-linejoin="round" stroke-miterlimit="10" width="12.1" height="4.3"/>
<rect x="83.9" y="68.1" fill="none" stroke="#266CD3" stroke-linecap="round" stroke-linejoin="round" stroke-miterlimit="10" width="12.1" height="17.2"/>
<rect x="83.9" y="68.1" fill="none" stroke="#266CD3" stroke-linecap="round" stroke-linejoin="round" stroke-miterlimit="10" width="12.1" height="4.3"/>
<rect x="68.4" y="64.7" fill="none" stroke="#266CD3" stroke-linecap="round" stroke-linejoin="round" stroke-miterlimit="10" width="12.1" height="24.1"/>
<rect x="68.4" y="64.7" fill="none" stroke="#266CD3" stroke-linecap="round" stroke-linejoin="round" stroke-miterlimit="10" width="12.1" height="4.3"/>
<rect x="68.4" y="64.7" opacity="0.3" fill="#4E8AD1" width="12.1" height="4.3"/>
<rect x="55.5" y="79.3" fill="none" stroke="#266CD3" stroke-linecap="round" stroke-linejoin="round" stroke-miterlimit="10" width="6.9" height="3.4"/>
<rect x="55.5" y="79.3" opacity="0.3" fill="#4E8AD1" width="6.9" height="3.4"/>
<rect x="71" y="82.8" fill="none" stroke="#266CD3" stroke-linecap="round" stroke-linejoin="round" stroke-miterlimit="10" width="6.9" height="3.4"/>
<rect x="71" y="82.8" opacity="0.3" fill="#4E8AD1" width="6.9" height="3.4"/>
<rect x="86.5" y="79.3" fill="none" stroke="#266CD3" stroke-linecap="round" stroke-linejoin="round" stroke-miterlimit="10" width="6.9" height="3.4"/>
<rect x="86.5" y="79.3" opacity="0.3" fill="#4E8AD1" width="6.9" height="3.4"/>
<line fill="none" stroke="#266CD3" stroke-linecap="round" stroke-linejoin="round" stroke-miterlimit="10" x1="52.9" y1="92.2" x2="65" y2="92.2"/>
<line fill="none" stroke="#266CD3" stroke-linecap="round" stroke-linejoin="round" stroke-miterlimit="10" x1="68.4" y1="92.2" x2="80.5" y2="92.2"/>
<line fill="none" stroke="#266CD3" stroke-linecap="round" stroke-linejoin="round" stroke-miterlimit="10" x1="83.9" y1="92.2" x2="96" y2="92.2"/>
<line fill="none" stroke="#266CD3" stroke-linecap="round" stroke-linejoin="round" stroke-miterlimit="10" x1="69.3" y1="69" x2="73.6" y2="64.7"/>
<line fill="none" stroke="#266CD3" stroke-linecap="round" stroke-linejoin="round" stroke-miterlimit="10" x1="73.6" y1="69" x2="77.9" y2="64.7"/>
<line fill="none" stroke="#266CD3" stroke-linecap="round" stroke-linejoin="round" stroke-miterlimit="10" x1="77.9" y1="69" x2="80.5" y2="66.4"/>
<circle fill="none" stroke="#266CD3" stroke-linecap="round" stroke-linejoin="round" stroke-miterlimit="10" cx="54.6" cy="55.2" r="2.6"/>
<circle fill="none" stroke="#266CD3" stroke-linecap="round" stroke-linejoin="round" stroke-miterlimit="10" cx="62.4" cy="55.2" r="2.6"/>
<circle fill="none" stroke="#266CD3" stroke-linecap="round" stroke-linejoin="round" stroke-miterlimit="10" cx="70.1" cy="55.2" r="2.6"/>
<line fill="none" stroke="#266CD3" stroke-linecap="round" stroke-linejoin="round" stroke-miterlimit="10" x1="59.6" y1="33.8" x2="59.6" y2="42.9"/>
<line fill="none" stroke="#266CD3" stroke-linecap="round" stroke-linejoin="round" stroke-miterlimit="10" x1="64.2" y1="38.4" x2="55" y2="38.4"/>
<line fill="none" stroke="#266CD3" stroke-linecap="round" stroke-linejoin="round" stroke-miterlimit="10" x1="110.3" y1="55.7" x2="110.3" y2="61.2"/>
<line fill="none" stroke="#266CD3" stroke-linecap="round" stroke-linejoin="round" stroke-miterlimit="10" x1="113" y1="58.4" x2="107.6" y2="58.4"/>
<line fill="none" stroke="#266CD3" stroke-linecap="round" stroke-linejoin="round" stroke-miterlimit="10" x1="37.8" y1="90.8" x2="37.8" y2="100"/>
<line fill="none" stroke="#266CD3" stroke-linecap="round" stroke-linejoin="round" stroke-miterlimit="10" x1="42.4" y1="95.4" x2="33.2" y2="95.4"/>
<line fill="none" stroke="#266CD3" stroke-linecap="round" stroke-linejoin="round" stroke-miterlimit="10" x1="89.8" y1="110.7" x2="89.8" y2="116.2"/>
<line fill="none" stroke="#266CD3" stroke-linecap="round" stroke-linejoin="round" stroke-miterlimit="10" x1="92.5" y1="113.5" x2="87" y2="113.5"/>
</svg>