<svg version="1.1" id="Layer_1" xmlns="http://www.w3.org/2000/svg" xmlns:xlink="http://www.w3.org/1999/xlink" x="0px" y="0px"
	 viewBox="0 0 150 150" enable-background="new 0 0 150 150" xml:space="preserve">
<rect x="50" y="50" fill="#FFFFFF" stroke="#266CD3" stroke-linecap="round" stroke-linejoin="round" stroke-miterlimit="10" width="50" height="50"/>
<rect x="50" y="50" fill="none" stroke="#266CD3" stroke-linecap="round" stroke-linejoin="round" stroke-miterlimit="10" width="50" height="10.3"/>
<rect x="50" y="50" opacity="0.3" fill="#4E8AD1" width="50" height="10.3"/>
<rect x="50" y="60.3" fill="none" stroke="#266CD3" stroke-linecap="round" stroke-linejoin="round" stroke-miterlimit="10" width="10.3" height="39.7"/>
<rect x="50" y="60.3" opacity="0.3" fill="#4E8AD1" width="10.3" height="39.7"/>
<line fill="none" stroke="#266CD3" stroke-linecap="round" stroke-linejoin="round" stroke-miterlimit="10" x1="53.4" y1="65.5" x2="56.9" y2="65.5"/>
<line fill="none" stroke="#266CD3" stroke-linecap="round" stroke-linejoin="round" stroke-miterlimit="10" x1="53.4" y1="69.8" x2="56.9" y2="69.8"/>
<line fill="none" stroke="#266CD3" stroke-linecap="round" stroke-linejoin="round" stroke-miterlimit="10" x1="53.4" y1="74.1" x2="56.9" y2="74.1"/>
<line fill="none" stroke="#266CD3" stroke-linecap="round" stroke-linejoin="round" stroke-miterlimit="10" x1="53.4" y1="78.4" x2="56.9" y2="78.4"/>
<line fill="none" stroke="#266CD3" stroke-linecap="round" stroke-linejoin="round" stroke-miterlimit="10" x1="53.4" y1="82.8" x2="56.9" y2="82.8"/>
<line fill="none" stroke="#266CD3" stroke-linecap="round" stroke-linejoin="round" stroke-miterlimit="10" x1="53.4" y1="87.1" x2="56.9" y2="87.1"/>
<line fill="none" stroke="#266CD3" stroke-linecap="round" stroke-linejoin="round" stroke-miterlimit="10" x1="53.4" y1="91.4" x2="56.9" y2="91.4"/>
<rect x="65.5" y="65.5" fill="none" stroke="#266CD3" stroke-linecap="round" stroke-linejoin="round" stroke-miterlimit="10" width="12.1" height="12.1"/>
<rect x="65.5" y="65.5" opacity="0.3" fill="#4E8AD1" width="12.1" height="12.1"/>
<rect x="82.8" y="65.5" fill="none" stroke="#266CD3" stroke-linecap="round" stroke-linejoin="round" stroke-miterlimit="10" width="12.1" height="12.1"/>
<rect x="65.5" y="82.8" fill="none" stroke="#266CD3" stroke-linecap="round" stroke-linejoin="round" stroke-miterlimit="10" width="12.1" height="12.1"/>
<rect x="82.8" y="82.8" fill="none" stroke="#266CD3" stroke-linecap="round" stroke-linejoin="round" stroke-miterlimit="10" width="12.1" height="12.1"/>
<circle fill="none" stroke="#266CD3" stroke-linecap="round" stroke-linejoin="round" stroke-miterlimit="10" cx="55.2" cy="55.2" r="2.6"/>
<circle fill="none" stroke="#266CD3" stroke-linecap="round" stroke-linejoin="round" stroke-miterlimit="10" cx="62.9" cy="55.2" r="2.6"/>
<circle fill="none" stroke="#266CD3" stroke-linecap="round" stroke-linejoin="round" stroke-miterlimit="10" cx="70.7" cy="55.2" r="2.6"/>
<line fill="none" stroke="#266CD3" stroke-linecap="round" stroke-linejoin="round" stroke-miterlimit="10" x1="60.3" y1="33.8" x2="60.3" y2="42.9"/>
<line fill="none" stroke="#266CD3" stroke-linecap="round" stroke-linejoin="round" stroke-miterlimit="10" x1="64.9" y1="38.3" x2="55.8" y2="38.3"/>
<line fill="none" stroke="#266CD3" stroke-linecap="round" stroke-linejoin="round" stroke-miterlimit="10" x1="111" y1="55.7" x2="111" y2="61.1"/>
<line fill="none" stroke="#266CD3" stroke-linecap="round" stroke-linejoin="round" stroke-miterlimit="10" x1="113.8" y1="58.4" x2="108.3" y2="58.4"/>
<line fill="none" stroke="#266CD3" stroke-linecap="round" stroke-linejoin="round" stroke-miterlimit="10" x1="38.6" y1="90.8" x2="38.6" y2="99.9"/>
<line fill="none" stroke="#266CD3" stroke-linecap="round" stroke-linejoin="round" stroke-miterlimit="10" x1="43.1" y1="95.4" x2="34" y2="95.4"/>
<line fill="none" stroke="#266CD3" stroke-linecap="round" stroke-linejoin="round" stroke-miterlimit="10" x1="90.5" y1="110.7" x2="90.5" y2="116.2"/>
<line fill="none" stroke="#266CD3" stroke-linecap="round" stroke-linejoin="round" stroke-miterlimit="10" x1="93.2" y1="113.4" x2="87.8" y2="113.4"/>
</svg>