<svg version="1.1" id="Layer_1" xmlns="http://www.w3.org/2000/svg" xmlns:xlink="http://www.w3.org/1999/xlink" x="0px" y="0px"
	 viewBox="0 0 150 150" enable-background="new 0 0 150 150" xml:space="preserve">
<rect x="50" y="50" fill="#4E8AD1" fill-opacity="0.3" stroke="#266CD3" stroke-linecap="round" stroke-linejoin="round" stroke-miterlimit="10" width="50" height="50"/>
<rect x="50" y="50" fill="none" stroke="#266CD3" stroke-linecap="round" stroke-linejoin="round" stroke-miterlimit="10" width="50" height="10.3"/>
<rect x="56.9" y="66.4" fill="#FDFEFF" stroke="#266CD3" stroke-linecap="round" stroke-linejoin="round" stroke-miterlimit="10" width="36.2" height="25.9"/>
<rect x="56.9" y="66.4" fill="none" stroke="#266CD3" stroke-linecap="round" stroke-linejoin="round" stroke-miterlimit="10" width="36.2" height="8.6"/>
<line fill="none" stroke="#266CD3" stroke-linecap="round" stroke-linejoin="round" stroke-miterlimit="10" x1="60.3" y1="70.7" x2="67.2" y2="70.7"/>
<line fill="none" stroke="#266CD3" stroke-linecap="round" stroke-linejoin="round" stroke-miterlimit="10" x1="89.7" y1="69" x2="86.2" y2="72.4"/>
<line fill="none" stroke="#266CD3" stroke-linecap="round" stroke-linejoin="round" stroke-miterlimit="10" x1="86.2" y1="69" x2="89.7" y2="72.4"/>
<line fill="none" stroke="#266CD3" stroke-linecap="round" stroke-linejoin="round" stroke-miterlimit="10" x1="62.1" y1="80.2" x2="75" y2="80.2"/>
<line fill="none" stroke="#266CD3" stroke-linecap="round" stroke-linejoin="round" stroke-miterlimit="10" x1="62.1" y1="83.6" x2="84.5" y2="83.6"/>
<line fill="none" stroke="#266CD3" stroke-linecap="round" stroke-linejoin="round" stroke-miterlimit="10" x1="62.1" y1="87.1" x2="84.5" y2="87.1"/>
<circle fill="none" stroke="#266CD3" stroke-linecap="round" stroke-linejoin="round" stroke-miterlimit="10" cx="55.2" cy="55.2" r="2.6"/>
<circle fill="none" stroke="#266CD3" stroke-linecap="round" stroke-linejoin="round" stroke-miterlimit="10" cx="62.9" cy="55.2" r="2.6"/>
<circle fill="none" stroke="#266CD3" stroke-linecap="round" stroke-linejoin="round" stroke-miterlimit="10" cx="70.7" cy="55.2" r="2.6"/>
<line fill="none" stroke="#266CD3" stroke-linecap="round" stroke-linejoin="round" stroke-miterlimit="10" x1="60.3" y1="33.8" x2="60.3" y2="42.9"/>
<line fill="none" stroke="#266CD3" stroke-linecap="round" stroke-linejoin="round" stroke-miterlimit="10" x1="64.9" y1="38.4" x2="55.8" y2="38.4"/>
<line fill="none" stroke="#266CD3" stroke-linecap="round" stroke-linejoin="round" stroke-miterlimit="10" x1="111" y1="55.7" x2="111" y2="61.2"/>
<line fill="none" stroke="#266CD3" stroke-linecap="round" stroke-linejoin="round" stroke-miterlimit="10" x1="113.8" y1="58.4" x2="108.3" y2="58.4"/>
<line fill="none" stroke="#266CD3" stroke-linecap="round" stroke-linejoin="round" stroke-miterlimit="10" x1="38.6" y1="90.8" x2="38.6" y2="100"/>
<line fill="none" stroke="#266CD3" stroke-linecap="round" stroke-linejoin="round" stroke-miterlimit="10" x1="43.1" y1="95.4" x2="34" y2="95.4"/>
<line fill="none" stroke="#266CD3" stroke-linecap="round" stroke-linejoin="round" stroke-miterlimit="10" x1="90.5" y1="110.7" x2="90.5" y2="116.2"/>
<line fill="none" stroke="#266CD3" stroke-linecap="round" stroke-linejoin="round" stroke-miterlimit="10" x1="93.2" y1="113.5" x2="87.8" y2="113.5"/>
</svg>