<?xml version="1.0" encoding="utf-8"?>
<!-- Generator: Adobe Illustrator 19.1.1, SVG Export Plug-In . SVG Version: 6.00 Build 0)  -->
<svg version="1.1" id="Слой_1" xmlns="http://www.w3.org/2000/svg" xmlns:xlink="http://www.w3.org/1999/xlink" x="0px" y="0px"
	 viewBox="0 0 85 85" style="enable-background:new 0 0 85 85;" xml:space="preserve">
<style type="text/css">
	.st0{fill:#FFFFFF;}
	.st1{fill:none;stroke:#266CD3;stroke-linecap:round;stroke-linejoin:round;stroke-miterlimit:10;}
	.st2{opacity:0.3;fill:#4E8AD1;}
</style>
<g>
	<g>
		<rect x="18.6" y="17.5" class="st0" width="50" height="50"/>
		<g>
			<rect x="18.6" y="17.5" class="st1" width="50" height="50"/>
			<rect x="18.6" y="17.5" class="st1" width="50" height="10.3"/>
			<rect x="18.6" y="17.5" class="st2" width="50" height="10.3"/>
			<line class="st1" x1="23.8" y1="37.3" x2="36.7" y2="37.3"/>
			<line class="st1" x1="26.4" y1="33.9" x2="34.1" y2="33.9"/>
			<line class="st1" x1="23.8" y1="40.8" x2="36.7" y2="40.8"/>
			<path class="st1" d="M65.2,54.6l-7.7-7.7c-0.5,0.5-1.1,0.8-1.8,0.8s-1.4-0.3-1.8-0.8l-6.8,6.8l-4.2-4.2c-0.5,0.5-1.1,0.8-1.8,0.8
				c-0.7,0-1.4-0.3-1.8-0.8l-7.7,7.7l-5.1-5.1c-0.5,0.5-1.1,0.8-1.8,0.8c-0.7,0-1.4-0.3-1.8-0.8l-4.2,4.2v11.2h50V51.1L65.2,54.6z"
				/>
			<path class="st2" d="M65.2,54.6l-7.7-7.7c-0.5,0.5-1.1,0.8-1.8,0.8s-1.4-0.3-1.8-0.8l-6.8,6.8l-4.2-4.2c-0.5,0.5-1.1,0.8-1.8,0.8
				c-0.7,0-1.4-0.3-1.8-0.8l-7.7,7.7l-5.1-5.1c-0.5,0.5-1.1,0.8-1.8,0.8c-0.7,0-1.4-0.3-1.8-0.8l-4.2,4.2v11.2h50V51.1L65.2,54.6z"
				/>
			<circle class="st1" cx="23.8" cy="22.7" r="2.6"/>
			<circle class="st1" cx="31.5" cy="22.7" r="2.6"/>
			<circle class="st1" cx="39.3" cy="22.7" r="2.6"/>
			<circle class="st1" cx="24.6" cy="50.3" r="2.6"/>
			<circle class="st1" cx="41" cy="47.7" r="2.6"/>
			<circle class="st1" cx="55.7" cy="45.1" r="2.6"/>
		</g>
	</g>
	<g>
		<g>
			<line class="st1" x1="29" y1="1.3" x2="29" y2="10.4"/>
			<line class="st1" x1="33.5" y1="5.9" x2="24.4" y2="5.9"/>
		</g>
		<g>
			<line class="st1" x1="79.7" y1="23.2" x2="79.7" y2="28.7"/>
			<line class="st1" x1="82.4" y1="25.9" x2="76.9" y2="25.9"/>
		</g>
		<g>
			<line class="st1" x1="7.2" y1="58.3" x2="7.2" y2="67.5"/>
			<line class="st1" x1="11.7" y1="62.9" x2="2.6" y2="62.9"/>
		</g>
		<g>
			<line class="st1" x1="59.1" y1="78.2" x2="59.1" y2="83.7"/>
			<line class="st1" x1="61.9" y1="81" x2="56.4" y2="81"/>
		</g>
	</g>
</g>
</svg>
