<svg xmlns="http://www.w3.org/2000/svg" style="width:0; height:0; visibility:hidden;">
	<symbol id="add" viewBox="0 0 16 16">
		<path fill-rule="evenodd" d="M8 0a8 8 0 1 0 0 16A8 8 0 0 0 8 0zm4 9H9v3H7V9H4V7h3V4h2v3h3v2z"/>
	</symbol>
	<symbol id="chevron-down" viewBox="0 0 10 5">
		<path d="M5 5L0 1.072.683 0 5 3.39 9.317 0 10 1.072 5 5z"/>
	</symbol>
	<symbol id="chevron-left" viewBox="0 0 7.13 14">
		<path d="M0 7l5.598-7 1.528.956L2.293 7l4.833 6.043L5.598 14 0 7z"/>
	</symbol>
	<symbol id="chevron-right" viewBox="0 0 7.12 14">
		<path d="M7.12 7l-5.598 7-1.528-.957L4.827 7-.006.956 1.522 0 7.12 7z"/>
	</symbol>
	<symbol id="chevron-up" viewBox="0 0 10 5">
		<path d="M5 0l5 3.928L9.317 5 5 1.61.683 5 0 3.928 5 0z" class="cls-1"/>
	</symbol>
	<symbol id="close" viewBox="0 0 16 16">
		<path d="M16 14.546L14.545 16 8 9.455 1.455 16 0 14.546 6.545 8 0 1.455 1.455 0 8 6.546 14.545 0 16 1.455 9.454 8 16 14.546z" class="cls-1"/>
	</symbol>
	<symbol id="fb" viewBox="0 0 18 18">
		<path d="M16.2 0H1.8C.8 0 0 .8 0 1.8v14.4c0 1 .8 1.8 1.8 1.8h14.4c1 0 1.8-.8 1.8-1.8V1.8c0-1-.8-1.8-1.8-1.8zm-.9 1.8v2.7h-1.8c-.5 0-.9.4-.9.9v1.8h2.7v2.7h-2.7v6.3H9.9V9.9H8.1V7.2h1.8V4.9c0-1.7 1.4-3.1 3.2-3.1h2.2z"/>
	</symbol>
	<symbol id="github-octocat" viewBox="0 0 100 100">
		<path fill-rule="evenodd" clip-rule="evenodd" d="M49.94 99.04C22.827 99.04.847 77.06.847 49.942.846 22.828 22.826.847 49.94.847c27.117 0 49.1 21.982 49.1 49.096 0 27.116-21.982 49.096-49.1 49.096zm0-90.61C27.016 8.43 8.43 27.016 8.43 49.943c0 18.678 12.335 34.474 29.304 39.69-.006-.952.006-6.692-.008-7.697-.092-.056-9.734 2.825-13.88-4.128-.66-1.13-1.73-5.102-4.622-7.3-.1-.086-2.24-1.172-2.435-2.24-.022-.147.137-.46.348-.535.22-.08 3.735-1.518 7.652 3.43 1.182 1.656 3.85 8.008 13.183 4.083.25-.98.75-3.236 3.715-3.852-13.9-1.654-20.248-6.93-22.22-18.758-1.23-8.062 1.136-14.764 4.69-18.072-.54-.703-2.313-6.596.443-12.828 2.987-.595 8.466 1.54 13.282 4.99 6.792-2.44 19.543-1.807 24.106 0 2.168-1.785 9.913-5.953 13.236-4.98.976 2.473 2.383 8.467.438 12.836 4.327 4.433 5.548 10.158 4.767 17.188-.956 10.655-7.515 18.267-22.243 19.523 3.71 2.546 3.874 6.53 4.002 8.1.033 3.664-.042 8.65.005 10.226 16.95-5.226 29.266-21.013 29.266-39.677C91.456 27.016 72.87 8.43 49.94 8.43z"/>
	</symbol>
	<symbol id="gp" viewBox="0 0 18 18">
		<path d="M8.3 6.2c0-.9-.5-2.7-1.9-2.7-.6 0-1.2.4-1.2 1.5S5.7 7.6 7 7.6c0 .1 1.3 0 1.3-1.4zm-.6 4.4h-.2c-.3 0-1.1.1-1.6.3-.6.2-1.3.6-1.3 1.5 0 1 .9 2 2.7 2 1.4 0 2.2-.9 2.2-1.8-.1-.6-.6-1.1-1.8-2zM16.2 0H1.8C.8 0 0 .8 0 1.8v14.4c0 1 .8 1.8 1.8 1.8h14.4c1 0 1.8-.8 1.8-1.8V1.8c0-1-.8-1.8-1.8-1.8zM6.4 15.5c-2.5 0-3.7-1.4-3.7-2.7 0-.4.1-1.4 1.4-2.2.7-.5 1.6-.7 2.8-.8-.2-.2-.3-.4-.3-.9 0-.2 0-.3.1-.5h-.4c-1.8 0-2.9-1.3-2.9-2.7 0-1.5 1.2-3.2 3.7-3.2h3.8l-.3.3-.6.6-.1.1h-.6c.4.4.8 1 .8 2 0 1.3-.6 1.9-1.4 2.4-.2.1-.4.4-.4.7 0 .3.2.4.4.5.1.1.3.2.4.3.7.5 1.7 1.2 1.7 2.6 0 1.6-1.2 3.5-4.4 3.5zM15.3 9h-1.8v1.8h-.9V9h-1.8v-.9h1.8V6.3h.9v1.8h1.8V9z"/>
	</symbol>
	<symbol id="grid" viewBox="0 0 35 35">
		<path d="M0 0h16v16H0zM19 0h16v16H19zM0 19h16v16H0zM19 19h16v16H19z"/>
	</symbol>
	<symbol id="hamburger" viewBox="0 0 20 14">
		<path d="M0 14v-2h20v2H0zm0-8h20v2H0V6zm0-6h20v2H0V0z"/>
	</symbol>
	<symbol id="heart" viewBox="0 0 510 510">
		<path d="M255 489.6l-35.7-35.7C86.7 336.6 0 257.55 0 160.65 0 81.6 61.2 20.4 140.25 20.4c43.35 0 86.7 20.4 114.75 53.55C283.05 40.8 326.4 20.4 369.75 20.4 448.8 20.4 510 81.6 510 160.65c0 96.9-86.7 175.95-219.3 293.25L255 489.6z"/>
	</symbol>
	<symbol id="input" viewBox="0 0 41 41">
		<path d="M28 10.5H0v20h28v-20zm-4 16H4v-12h20v12zm17-20v-4H27v4h5v28h-5v4h14v-4h-5v-28h5z"/>
	</symbol>
	<symbol id="logo-attlassians" viewBox="0 0 230 50">
		<path fill="#255FB5" d="M178.4 12.5h-5.3c-.5 0-.9.4-.9.9v4.7c0 .5.4.9.9.9h5.3c.5 0 .9-.4.9-.9v-4.7c0-.5-.4-.9-.9-.9M67.6 13.8c-.1-.4-.5-.6-.9-.6h-8.4c-.4 0-.7.3-.9.6L46.8 47.5c-.1.3 0 .6.1.8.2.2.4.4.7.4h5.8c.4 0 .8-.3.9-.6l7.3-24.8s.2-.6.9-.6.8.6.8.6L66.8 35h-4.6c-.4 0-.8.3-.9.7L60 40.3c-.1.3 0 .6.1.8.2.2.4.4.7.4h7.8l2 6.6c.1.4.5.6.9.6h5.8c.3 0 .6-.1.7-.4.2-.2.2-.5.1-.8L67.6 13.8zM92.9 43.5c0-.3-.2-.5-.4-.6-.2-.1-.5-.2-.7-.1-.9.2-1.8.4-2.5.4-1.3 0-1.9-.6-1.9-1.9v-13h5.2c.5 0 .9-.4.9-.9v-4c0-.5-.4-.9-.9-.9h-5.2v-6.2c0-.3-.1-.5-.3-.7-.2-.2-.5-.3-.7-.2l-5.4.7c-.4.1-.8.4-.8.9v5.5h-2.9c-.5 0-.9.4-.9.9v4c0 .5.4.9.9.9h2.9v13.8c0 4.7 2.5 7.1 7.4 7.1 1.4 0 3.8-.3 5.3-.9.4-.1.7-.6.6-1l-.6-3.8zM102.8 12.5h-5.3c-.5 0-.9.4-.9.9v34.4c0 .5.4.9.9.9h5.3c.5 0 .9-.4.9-.9V13.4c0-.5-.5-.9-.9-.9M116.5 22c-2.7 0-6 .4-8.4 1.1-.4.1-.7.6-.6 1l.6 3.9c0 .2.2.5.4.6.2.1.4.2.7.1 2.2-.4 4.5-.7 6.4-.7 3.8 0 4.5.8 4.5 3.4v2.3h-5.7c-5.5 0-7.8 2.3-7.8 7.5 0 5.1 2.6 8 7 8 2.6 0 5.2-.7 7.3-2l.2.8c.1.4.5.7.9.7h4.3c.5 0 .9-.4.9-.9V31.5c0-6.9-2.9-9.5-10.7-9.5m3.5 17.1v3.1c-.9.5-2.5 1.1-4.4 1.1-1.7 0-2.2-.5-2.2-2.2 0-1.6.3-2.1 2.3-2.1h4.3zM140.6 32.5c-3.3-.9-3.3-.9-3.3-2.7 0-1.2.1-1.8 2.8-1.8 1.9 0 4.6.3 6.4.6.2 0 .5 0 .7-.2.2-.1.3-.4.4-.6l.5-4.1c.1-.5-.2-.9-.7-1-2-.5-4.9-.8-7.3-.8-8.2 0-9.9 3.1-9.9 7.7 0 5.1 1 6.8 7.2 8.4 4.1 1 4.1 1.7 4.1 3 0 1.6-.1 2.2-2.8 2.2-2.2 0-4.7-.3-6.9-.9-.2-.1-.5 0-.7.1-.2.1-.4.4-.4.6l-.7 3.9c-.1.4.2.9.6 1 2.4.8 5.9 1.3 8.5 1.3 7.9 0 9.6-3.3 9.6-8.3-.1-5.5-1.1-6.5-8.1-8.4M161.2 32.5c-3.3-.9-3.3-.9-3.3-2.7 0-1.2.1-1.8 2.8-1.8 1.9 0 4.6.3 6.4.6.2 0 .5 0 .7-.2.2-.1.3-.4.4-.6l.5-4.1c.1-.5-.2-.9-.7-1-2-.5-4.9-.8-7.3-.8-8.2 0-9.9 3.1-9.9 7.7 0 5.1 1 6.8 7.2 8.4 4.1 1 4.1 1.7 4.1 3 0 1.6-.1 2.2-2.8 2.2-2.2 0-4.7-.3-6.9-.9-.2-.1-.5 0-.7.1-.2.1-.4.4-.4.6l-.7 3.9c-.1.4.2.9.6 1 2.4.8 5.9 1.3 8.5 1.3 7.9 0 9.6-3.3 9.6-8.3-.1-5.5-1.1-6.5-8.1-8.4M178.4 22.5h-5.3c-.5 0-.9.4-.9.9v24.4c0 .5.4.9.9.9h5.3c.5 0 .9-.4.9-.9V23.4c0-.5-.4-.9-.9-.9M192.3 22c-2.7 0-6 .4-8.4 1.1-.4.1-.7.6-.6 1l.6 3.9c0 .2.2.5.4.6.2.1.4.2.7.1 2.2-.4 4.5-.7 6.4-.7 3.8 0 4.5.8 4.5 3.4v2.3h-5.7c-5.5 0-7.8 2.3-7.8 7.5 0 5.1 2.6 8 7 8 2.6 0 5.2-.7 7.3-2l.2.8c.1.4.5.7.9.7h4.3c.5 0 .9-.4.9-.9V31.5c0-6.9-2.9-9.5-10.7-9.5m3.5 17.1v3.1c-.9.5-2.5 1.1-4.4 1.1-1.7 0-2.2-.5-2.2-2.2 0-1.6.3-2.1 2.3-2.1h4.3zM222.7 22c-2.8 0-6.7 1-9.9 2.5l-.4-1.3c-.1-.4-.5-.6-.9-.6h-4c-.5 0-.9.4-.9.9v24.4c0 .5.4.9.9.9h5.3c.5 0 .9-.4.9-.9v-17c1.9-1 4.6-2 6.2-2 1.2 0 1.6.4 1.6 1.6v17.2c0 .5.4.9.9.9h5.3c.5 0 .9-.4.9-.9V29.9c.2-5.3-1.8-7.9-5.9-7.9"/><path fill="#9EC73B" d="M53.4 1.3c-.2-.3-.6-.5-1-.5-.2 0-.4.1-.6.1C44.5 4.9 36.1 7 27.4 7S10.2 4.9 3 .9C2.8.8 2.6.8 2.4.8c-.4 0-.8.2-1 .5-.3.4-.4 1.2.2 1.7 3.6 2.7 7.7 4.8 12 6.3 4.4 1.5 9.1 2.3 13.8 2.3 4.7 0 9.4-.8 13.8-2.3 4.3-1.5 8.3-3.6 12-6.3.5-.5.5-1.3.2-1.7"/><path fill="#09BDFF" d="M45 12.7c-.2-.1-.4-.2-.6-.2-.1 0-.2 0-.3.1-2.1.8-4.3 1.4-6.2 1.9-.4.1-.7.4-.9.7-1.4 3.9-5.1 7.6-8.9 11.5-.1.1-.4.3-.7.3-.3 0-.6-.2-.7-.3-3.8-3.9-7.5-7.6-8.9-11.5-.1-.4-.5-.7-.9-.7-2-.5-4.1-1.1-6.2-1.9-.1 0-.2-.1-.3-.1-.2 0-.4.1-.6.2-.3.2-.4.5-.4.9.3 3.2 1.6 6.4 3.9 9.7 2.2 3.1 5 6 7.8 8.8 5.1 5.2 9.8 10 10.3 15.7 0 .5.5.9 1 .9h5.9c.3 0 .5-.1.7-.3.2-.2.3-.5.3-.7-.2-3.8-1.6-7.6-4.3-11.6-.6-.8-1.2-1.7-1.8-2.5-.3-.3-.2-.7 0-.9l.6-.6c2.7-2.8 5.6-5.7 7.8-8.8 2.3-3.3 3.6-6.5 3.9-9.7-.1-.4-.2-.7-.5-.9M21 36.5c-.1-.1-.3-.3-.7-.3-.4 0-.7.3-.8.5-2.5 3.8-3.8 7.4-4 11 0 .3.1.5.3.7.2.2.4.3.7.3h5.9c.5 0 .9-.4 1-.9.1-1.7.7-3.5 1.7-5.3.3-.6.1-1.2-.1-1.5-1-1.3-2.2-2.7-4-4.5"/><path fill="#09BDFF" d="M27.4 15.6c1.9 0 2.9-.1 3.3-.1.5 0 .9.4.9.9 0 .2 0 .3-.1.4-.2.7-1.4 3-3.5 5.1-.2.2-.5.3-.7.3-.2 0-.5 0-.7-.3-2.1-2-3.2-4.4-3.5-5.1 0-.1-.1-.2-.1-.4 0-.5.4-.9.9-.9s1.6.1 3.5.1z"/>
	</symbol>
	<symbol id="logo-confluence" viewBox="0 0 200.3 30.3">
		<path fill="#255FB5" d="M63.1 7.5c-5.5 0-8.4 2.6-8.4 7.6v4.7c0 5 2.9 7.6 8.4 7.6s8.4-2.6 8.4-7.6v-4.7c0-5-3-7.6-8.4-7.6m-3.2 7.4c0-2.1.9-2.9 3.2-2.9 2.2 0 3.2.9 3.2 2.9v5c0 2.1-.9 2.9-3.2 2.9-2.2 0-3.2-.9-3.2-2.9v-5zM85.7 7.5c-2.1 0-4.9.7-7.3 1.8l-.3-1c-.1-.3-.4-.5-.6-.5h-2.9c-.4 0-.7.3-.7.7v17.9c0 .4.3.7.7.7h3.9c.4 0 .7-.3.7-.7V14c1.4-.7 3.4-1.5 4.6-1.5.9 0 1.2.3 1.2 1.2v12.6c0 .4.3.7.7.7h3.9c.4 0 .7-.3.7-.7v-13c-.1-3.9-1.7-5.8-4.6-5.8M104.3.4c-1.1-.3-2.3-.4-3.4-.4-4.2 0-6.2 2-6.2 6.1v2.3h-2.2c-.4 0-.7.3-.7.7v3c0 .4.3.7.7.7h2.2v13.7c0 .4.3.7.7.7h3.9c.4 0 .7-.3.7-.7V12.7h3.8c.3 0 .6-.3.7-.6v-3c0-.2 0-.4-.2-.5-.1-.1-.3-.2-.5-.2H100V6.3c0-1.4.3-1.9 1.8-1.9.5 0 1.2.1 1.9.2.2 0 .4 0 .5-.1.1-.1.2-.3.3-.4l.4-2.9c-.1-.4-.3-.7-.6-.8M111.4.5h-3.9c-.4 0-.7.3-.7.7v25.2c0 .4.3.7.7.7h3.9c.4 0 .7-.3.7-.7V1.2c-.1-.4-.4-.7-.7-.7M130.5 7.8h-3.9c-.4 0-.7.3-.7.7v12.4c-1.4.7-3.4 1.5-4.6 1.5-.9 0-1.2-.3-1.2-1.2V8.5c0-.4-.3-.7-.7-.7h-3.9c-.4 0-.7.3-.7.7v13.1c0 3.8 1.5 5.8 4.5 5.8 2.1 0 4.9-.7 7.3-1.8l.3 1c.1.3.3.5.6.5h2.9c.4 0 .7-.3.7-.7V8.5c.1-.4-.2-.7-.6-.7M141.5 7.5c-5.2 0-8 2.6-8 7.6V20c0 5.1 2.6 7.5 8.2 7.5 2.3 0 4.7-.4 6.6-1.1.3-.1.5-.4.4-.8l-.6-2.8c0-.2-.1-.3-.3-.4-.2-.1-.3-.1-.5-.1-1.8.5-3.5.8-5.2.8-2.9 0-3.4-.9-3.4-2.9v-.7h9.7c.4 0 .7-.3.7-.7v-3.6c0-5.3-2.4-7.7-7.6-7.7m-2.8 7.7v-.6c0-1.8.9-2.7 2.8-2.7 2.1 0 2.5 1 2.5 2.7v.6h-5.3zM163.2 7.5c-2.1 0-4.9.7-7.3 1.8l-.3-1c-.1-.3-.3-.5-.6-.5h-2.9c-.4 0-.7.3-.7.7v17.9c0 .4.3.7.7.7h3.9c.4 0 .7-.3.7-.7V14c1.4-.7 3.4-1.5 4.6-1.5.9 0 1.2.3 1.2 1.2v12.6c0 .4.3.7.7.7h3.9c.4 0 .7-.3.7-.7v-13c-.1-3.9-1.6-5.8-4.6-5.8M182.8 23c0-.2-.1-.3-.3-.4-.2-.1-.3-.1-.5-.1-1.1.3-2.3.4-3.4.4-2.5 0-3.2-.6-3.2-2.8v-5.2c0-2.2.7-2.8 3.2-2.8.7 0 2.2.1 3.4.4.2 0 .4 0 .5-.1.2-.1.3-.3.3-.4l.5-3.1c0-.3-.2-.6-.5-.7-1.5-.4-3.3-.6-4.3-.6-5.9 0-8.3 2.2-8.3 7.4v5c0 5.3 2.4 7.4 8.3 7.4 1.4 0 3.1-.2 4.3-.6.3-.1.5-.4.5-.7l-.5-3.1zM192.7 7.5c-5.2 0-8 2.6-8 7.6V20c0 5.1 2.6 7.5 8.2 7.5 2.3 0 4.7-.4 6.6-1.1.3-.1.5-.4.4-.8l-.6-2.8c0-.2-.1-.3-.3-.4-.2-.1-.3-.1-.5-.1-1.8.5-3.5.8-5.2.8-2.9 0-3.4-.9-3.4-2.9v-.7h9.7c.4 0 .7-.3.7-.7v-3.6c0-5.3-2.4-7.7-7.6-7.7m-2.8 7.7v-.6c0-1.8.9-2.7 2.8-2.7 2.1 0 2.5 1 2.5 2.7v.6h-5.3zM46.3 5.6c1.6 0 3.7.2 5.8.6.2 0 .4 0 .5-.1.1-.1.2-.3.3-.4l.4-3.4c0-.3-.2-.6-.5-.7-2.1-.5-4.4-.8-6.7-.8-6.2 0-9.4 2.6-9.4 7.7V20c0 5.1 3.1 7.7 9.4 7.7 2.2 0 4.6-.3 6.7-.8.3-.1.5-.4.5-.7l-.4-3.4c0-.2-.1-.3-.3-.4-.1-.1-.3-.1-.5-.1-2.1.4-4.2.6-5.8.6-3.1 0-4.1-.9-4.1-3.6V9.2c0-2.7 1.1-3.6 4.1-3.6M23.9 20.4c-.4-.8-.9-1.7-1.5-2.5-.4-.7-.9-1.3-1.4-1.9-.2-.2-.1-.5 0-.7l.4-.4c2-2.1 4.1-4.2 5.7-6.5C28.8 6 29.7 3.6 30 1.3c0-.2-.1-.5-.3-.6-.1-.1-.3-.1-.4-.1H29c-1.6.6-3.1 1-4.6 1.4-.1 0-.4.2-.5.4-1 2.9-3.7 5.6-6.5 8.5-.1.1-.3.2-.5.2s-.4-.1-.5-.2C13.6 8 10.9 5.3 9.8 2.5c-.1-.3-.3-.5-.6-.6-1.4-.3-3-.8-4.6-1.4h-.3c-.2 0-.3 0-.4.1-.1.1-.2.4-.2.6.2 2.4 1.2 4.8 2.9 7.2 1.6 2.3 3.7 4.4 5.7 6.5 3.7 3.8 7.2 7.4 7.5 11.5 0 .4.3.7.7.7h4.4c.2 0 .4-.1.5-.2.1-.1.2-.3.2-.5 0-.8-.2-1.6-.3-2.3V24c0-.2.1-.3.3-.3 3.6.5 5.8 1.4 5.8 2.3 0 .9-2 2.2-5.3 3.1-.3.1-.5.3-.5.7 0 .4.3.7.7.7h.2c4.4-1 7.4-2.7 7.4-4.7-.1-2.5-4.1-4.5-10-5.4M12.2 18.1c-.1-.1-.3-.2-.5-.2-.3 0-.5.2-.6.3-.5.7-.9 1.4-1.3 2.1-5.8 1-9.8 3-9.8 5.3 0 1.9 2.9 3.7 7.3 4.7h.2c.4 0 .7-.3.7-.7 0-.3-.2-.6-.5-.7-3.3-1-5.3-2.3-5.3-3.1 0-.9 2.2-1.7 5.8-2.3.2 0 .3.1.3.3v.1c-.2.8-.3 1.6-.3 2.3 0 .2.1.4.2.5.1.1.3.2.5.2h4.4c.4 0 .7-.3.7-.7.1-1.3.5-2.6 1.2-3.9.3-.5.1-.9-.1-1.1-.7-.7-1.6-1.7-2.9-3.1"/><path fill="#255FB5" d="M16.4 7.3c.2.2.4.2.5.2.1 0 .3 0 .5-.2 1.5-1.5 2.4-3.2 2.5-3.7.1-.1.1-.2.1-.3 0-.4-.3-.7-.7-.7-.3 0-1.1.1-2.4.1-1.4 0-2.2-.1-2.4-.1-.3 0-.7.3-.7.7 0 .1 0 .2.1.3.1.5.9 2.2 2.5 3.7"/>
	</symbol>
	<symbol id="logo-e2e" viewBox="0 0 40 40">
		<path d="M29.3 33.7h-18c-2.2 0-3.9-1.8-3.9-3.9v-8.3h3.2v5.9c0 .4.3.7.7.7h2c.4 0 .7-.3.7-.7v-5.9h5.8l.1.4c.9 4.2 4.7 7.2 9 7.2 5.1 0 9.2-4.2 9.2-9.3 0-5.1-4.1-9.2-9.2-9.2-4.3 0-8.1 3-9 7.2l-.1.4h-16c-.8 0-1.5.5-1.7 1.3-.3 1.1.5 2 1.6 2.1h.5v8.3c0 4 3.3 7.3 7.3 7.3h18c4 0 7.3-3.3 7.3-7.3 0-.3-.4-.5-.6-.3-.9.7-1.9 1.3-3 1.8-.9 1.4-2.3 2.3-3.9 2.3zm-.5-19.8c3.3 0 5.9 2.7 5.9 5.9 0 3.3-2.7 5.9-5.9 5.9-3.3 0-5.9-2.7-5.9-5.9s2.6-5.9 5.9-5.9z"/><path d="M36.5 10.2c0-4-3.3-7.3-7.3-7.3h-18c-4 0-7.3 3.3-7.3 7.3v4.6c0 .4.3.7.7.7h2c.4 0 .7-.3.7-.7v-4.6c0-2.2 1.8-3.9 3.9-3.9h17.9c1.6 0 3 .9 3.6 2.3 0 .1.1.2.2.2 1 .4 2 1 2.9 1.7.4.2.7 0 .7-.3z"/>
	</symbol>
	<symbol id="logo-hipchat" viewBox="0 0 164.8 37.5">
		<path fill="#255FB5" d="M104.8 6.8c1.7 0 3.9.2 6.1.6.2 0 .4 0 .5-.1.2-.1.3-.3.3-.5l.5-3.6c0-.4-.2-.7-.5-.8-2.2-.5-4.7-.8-7-.8-6.6 0-9.9 2.7-9.9 8.1v12.1c0 5.4 3.3 8.1 9.9 8.1 2.3 0 4.8-.3 7-.8.3-.1.6-.4.5-.8l-.5-3.6c0-.2-.1-.4-.3-.5-.2-.1-.3-.2-.5-.1-2.2.4-4.5.6-6.1.6-3.3 0-4.3-1-4.3-3.8V10.6c0-2.8 1.1-3.8 4.3-3.8M61.9 2h-4.3c-.4 0-.7.3-.7.7v10.4h-9.4V2.7c0-.4-.3-.7-.7-.7h-4.3c-.4 0-.7.3-.7.7v26.1c0 .4.3.7.7.7h4.3c.4 0 .7-.3.7-.7V18.2h9.4v10.7c0 .4.3.7.7.7h4.3c.4 0 .7-.3.7-.7V2.7c0-.4-.3-.7-.7-.7M141.7 8.8c-2.1 0-4.6.3-6.5.8-.3.1-.6.4-.5.8l.5 3c0 .2.1.4.3.5.2.1.3.2.5.1 1.7-.3 3.5-.5 5-.5 3 0 3.5.6 3.5 2.7V18H140c-4.2 0-6 1.7-6 5.8 0 3.9 2 6.2 5.4 6.2 2 0 4-.6 5.7-1.6l.2.6c.1.3.4.5.7.5h3.3c.4 0 .7-.3.7-.7V16.2c0-5.4-2.3-7.4-8.3-7.4m2.8 13.3v2.4c-.7.4-1.9.9-3.4.9-1.3 0-1.7-.4-1.7-1.7 0-1.2.2-1.6 1.8-1.6h3.3zM164.3 25.5c0-.2-.1-.4-.3-.5-.2-.1-.4-.1-.6-.1-.7.2-1.4.3-2 .3-1 0-1.5-.4-1.5-1.4v-10h4c.4 0 .7-.3.7-.7V9.9c0-.4-.3-.7-.7-.7h-4V4.4c0-.2-.1-.4-.2-.5-.2-.1-.4-.2-.6-.2l-4.1.6c-.3 0-.6.3-.6.7v4.2h-2.3c-.4 0-.7.3-.7.7V13c0 .4.3.7.7.7h2.3v10.7c0 3.7 1.9 5.5 5.7 5.5 1.1 0 2.9-.2 4.1-.7.3-.1.5-.4.5-.8l-.4-2.9zM70.9 9.2h-4.1c-.4 0-.7.3-.7.7v18.9c0 .4.3.7.7.7h4.1c.4 0 .7-.3.7-.7V9.9c0-.4-.4-.7-.7-.7M70.9 1.2h-4.1c-.4 0-.7.3-.7.7V6c0 .4.3.7.7.7h4.1c.4 0 .7-.3.7-.7V1.9c0-.4-.4-.7-.7-.7"/><path fill="#255FB5" d="M70.9 9.2h-4.1c-.4 0-.7.3-.7.7v18.9c0 .4.3.7.7.7h4.1c.4 0 .7-.3.7-.7V9.9c0-.4-.4-.7-.7-.7M85.6 8.8c-2.2 0-4.2.6-6.1 1.9l-.3-1c-.1-.3-.4-.5-.7-.5h-3.2c-.4 0-.7.3-.7.7v26.9c0 .4.3.7.7.7h4.1c.4 0 .7-.3.7-.7v-7.4c1.6.3 3.4.5 5 .5 4.5 0 6.8-2.4 6.8-7.3V16c.1-5.9-3.4-7.2-6.3-7.2m.8 7v7c0 1.7-.6 2.3-2.2 2.3s-3.2-.3-4.1-.5v-9.4c.9-.8 2.5-1.6 4.1-1.6 1.6 0 2.2.6 2.2 2.2M127.1 8.8c-2 0-4.7.7-6.9 1.7V1.9c0-.4-.3-.7-.7-.7h-4.1c-.4 0-.7.3-.7.7v26.9c0 .4.3.7.7.7h4.1c.4 0 .7-.3.7-.7V15.7c1.5-.8 3.6-1.5 4.8-1.5.9 0 1.3.3 1.3 1.3v13.3c0 .4.3.7.7.7h4.1c.4 0 .7-.3.7-.7V14.9c0-4-1.6-6.1-4.7-6.1M28.2 19.3c0-.4-.3-.7-.7-.7-.2 0-.3.1-.5.2-1.8 1.7-5 3.1-8.8 3.1-3.8 0-6.8-1.5-8.8-3.1-.1-.1-.3-.2-.5-.2-.4 0-.7.4-.7.8 0 .3.2.6.4.9 1.1 1.6 4.5 4.4 9.5 4.4h.1c5.1 0 8.4-2.8 9.5-4.4.3-.3.5-.7.5-1z"/><path fill="#255FB5" d="M33.3 32c-1.3-.7-2.5-2-3.1-3.7-.1-.3 0-.6.2-.8 3.7-2.9 6.1-7.1 6.1-11.7C36.5 7.1 28.4 0 18.3 0S0 7.1 0 15.8c0 8.7 8.2 15.8 18.3 15.8 1.3 0 2.6-.1 3.8-.3.3-.1.6 0 .8.1 2.5 1.5 6.2 2.8 9.5 2.8 1.1 0 1.5-.7 1.5-1.3-.1-.4-.3-.7-.6-.9zm-4.9-1.6c.1.1.1.1.1.2s-.1.2-.2.2c-.9 0-3.7-1.5-5.2-2.8-.2-.2-.5-.2-.9-.1-1.2.3-2.5.4-3.9.4-8.4 0-15.2-5.6-15.2-12.6 0-6.9 6.8-12.5 15.2-12.5 8.4 0 15.2 5.6 15.2 12.5 0 4.1-2.4 7.8-6.2 10.1-.2.2-.5.4-.5.8 0 .8.7 2.6 1.6 3.8z"/>
	</symbol>
	<symbol id="logo-intellejidea" viewBox="0 0 199.4 37.1">
		<path fill="#00609D" d="M59.4 13.9v19.7h-2.5V13.9h2.5zM64 23.3c0-1.5 0-2.7-.1-3.8h2.3l.1 2.3h.1c.7-1.3 2.3-2.7 4.7-2.7 2 0 5 1.2 5 6v8.4h-2.6v-8.2c0-2.3-.8-4.2-3.3-4.2-1.7 0-3 1.2-3.4 2.6-.1.3-.2.8-.2 1.2v8.5H64V23.3zM83.2 15.4v4.1h3.7v2h-3.7V29c0 1.8.5 2.7 1.9 2.7.7 0 1.2-.1 1.5-.2l.1 1.9c-.5.2-1.3.4-2.3.4-1.2 0-2.2-.4-2.8-1.1-.7-.8-1-2-1-3.7v-7.7h-2.2v-2h2.2v-3.4l2.6-.5zM91 27c.1 3.5 2.3 4.9 4.9 4.9 1.8 0 3-.3 3.9-.7l.4 1.8c-.9.4-2.5.9-4.7.9-4.4 0-7-2.9-7-7.1 0-4.3 2.5-7.6 6.6-7.6 4.6 0 5.8 4.1 5.8 6.7 0 .5-.1.9-.1 1.2H91zm7.6-1.9c0-1.6-.7-4.2-3.6-4.2-2.6 0-3.7 2.4-3.9 4.2h7.5zM104.3 12.8h2.6v20.8h-2.6V12.8zM111.1 12.8h2.6v20.8h-2.6V12.8zM120.9 15.5c0 .9-.6 1.6-1.6 1.6-.9 0-1.5-.7-1.5-1.6 0-.9.7-1.6 1.6-1.6.9 0 1.5.7 1.5 1.6zM118 33.6V19.5h2.6v14.1H118zM129 13.9h2.5v13.2c0 5.2-2.6 6.8-6 6.8-.9 0-2.1-.2-2.7-.5l.4-2.1c.5.2 1.3.4 2.1.4 2.3 0 3.6-1 3.6-4.9V13.9zM143.1 13.9v19.7h-4.5V13.9h4.5zM146.9 14.2c1.6-.3 3.8-.4 6-.4 3.7 0 6.2.7 8.1 2.1 2 1.5 3.3 3.9 3.3 7.4 0 3.8-1.4 6.4-3.3 8-2.1 1.7-5.2 2.5-9.1 2.5-2.3 0-3.9-.1-5.1-.3V14.2zm4.5 16c.4.1 1 .1 1.5.1 4 0 6.7-2.2 6.7-6.9 0-4.1-2.4-6.3-6.2-6.3-1 0-1.6.1-2 .2v12.9zM179 25.3h-7.2V30h8.1v3.7h-12.6V13.9h12.2v3.7h-7.7v4.1h7.2v3.6zM187.4 28.5l-1.4 5.1h-4.6l6-19.7h5.8l6.1 19.7h-4.8l-1.5-5.1h-5.6zm5-3.3l-1.2-4.2c-.3-1.2-.7-2.6-1-3.8h-.1c-.3 1.2-.6 2.7-.9 3.8l-1.2 4.2h4.4z"/><path fill="#F58A1F" d="M0 18.8c0 2.9 2.4 5.3 5.3 5.3s5.3-2.4 5.3-5.3-2.4-5.3-5.3-5.3C2.4 13.4 0 15.8 0 18.8z"/><path fill="#00609D" d="M31.9 0c-2.9 0-4.7 2.4-4.7 6.3V30.6c0 4 1.7 6.3 4.7 6.3 2.9 0 4.7-2.4 4.7-6.3v-8.1-3.2-.5V6.3c0-3.9-1.8-6.3-4.7-6.3zM23.7.5H4.5C2 .6 0 2.7 0 5.2s2 4.6 4.5 4.7h9.8V18.8c0 4.9-4 9-9 9H4.7c-2.6 0-4.7 2.1-4.7 4.7s2.1 4.7 4.7 4.7H5.3c10.1 0 18.3-8.2 18.3-18.3v-.2-3c.1-.1.1-14.8.1-15.2z"/>
	</symbol>
	<symbol id="logo-jetbrains" viewBox="0 0 249.5 70.4">
		<path fill="#00609D" d="M247.8 23.6c-5.2-2.3-7.3-3.1-10.4-3.1-2.9 0-4.2 1.1-4.2 2.9 0 5.3 16.4 3.8 16.4 16.1 0 6.7-4.8 10.8-12.9 10.8-5 0-7.3-1.7-10.9-3.5v-7.6c5.2 3.3 7.3 4.6 11.3 4.6 3 0 4.2-1.2 4.2-3.3 0-5.8-16.3-3.6-16.3-16.4 0-6.1 3.3-10.1 11.7-10.1 4.1 0 6.6.8 11.2 2.8v6.8zM115.3 28.8h3.7c2.6 0 5-1 5-4 0-2.7-1.8-4-5.2-4h-3.5v8zm6.2-14.5c7.5 0 10.7 4.9 10.7 10.1 0 3.8-2 6.7-6.2 8.6-1.2.4-1.8.5-2.6.7L136 49.6h-8.8l-11.8-14.4v14.4h-8V14.3h14.1zM154.9 22.6l-4.2 13.8h9l-4.8-13.8zm19 27h-8.6l-3-7h-14.1l-2.7 7H137l13.5-35.3h8.4l15 35.3zM176.6 14.3h8v35.3h-8zM221.5 49.6H215l-16.8-22.7v22.7h-8V14.3h7.2l16.2 21.5V14.3h7.9zM88.4 43h-2.9v-8.3h4.2c3.2 0 5.5 1.3 5.5 3.9 0 3.2-1.8 4.4-6.8 4.4m7.5-12.9c3.1-1.4 5-4 5-7 0-1.6-.4-3.3-1.4-4.8-2.9 2-6.2 4.2-7.1 4.9.2.4.2.8.2 1.2 0 1.9-1.3 3.8-4.6 3.8h-2.6v-8.4l9.5-4.8c-1.4-.5-3-.7-5-.7H77.5v35.3h13.3c10.7 0 12.9-6.3 12.9-10.3 0-4.2-2.6-7.9-7.8-9.2"/><path fill="#F58A1F" d="M107.2 10.1c-.5-.2-6.3 2.6-10 4.6l-1.3.7-9.4 4.9v5.4c2-1.1 3.6-2.1 4.8-3l7-4.7s3.5-2.4 5.3-3.9l.7-.5c.5-.4.9-.6.9-.9v-.1c0-.1 2.3-2.4 2-2.5M43.5 37.7c-.1-1.9-.6-4.3 2.5-5.6 1.2-.5 1.9-.2 2.3.1.9.7-1 3.6-4.8 5.5M16.8 59.1c-2.2-1.4-3.2-2.5-4.8-5.5-2.7-5 1-6.6 7.7-9.5-.7 5.4-1.3 16.3-2.9 15m53.7-25.9l5.7-3v-5.4l-5.1 2.6s-4.6 2.3-6.1 3.1l.2-1.4c.8-4.6 1.5-9.2 1.5-12.3 0-1.5-.2-2.6-.6-3.2-.3-.4-.8-.7-1.3-.8-.7-.1-1.6.1-2.5.6-2.6 1.4-3.9 5.6-3.9 12.6 0 2.3.1 4.9.4 7.7-.3.2-1.8 1.3-1.8 1.3l-2.6 1.8-.1.1c-2.4 1.7-3.9 2.6-4.5 2.8-.7.2-1.4.3-1.9.2 3.3-1.9 6-5.9 6-8.3 0-.3 0-.5-.1-.8-.5-1.6-1.6-2.8-3.1-3.4-1.4-.6-3.2-.6-5.2-.1l-.8.2C41 28.7 30 33.5 26.6 35c.4-3.7 2.4-20.8 3-29.9.4-5.8 0-2.2 0-3.3 0-4.2-6.9 0-10.6 3-1.6 1.2-6.6 4.8-4.8 7.5 1.9 2.9 4 1.9 5.1 6.9 1.9 8.8.4 17.7.4 18.3-.6.2-5.3 2-5.3 2C6.2 42.3 0 44.5 0 48.2c0 .6.2 1.2.5 1.8C7.2 63.7 16.4 71.1 20 70.3c5.3-1.1 5.5-6.5 5.8-14.6.2-4.1.3-8.6 1.2-13.8.4-.2 9.3-5.3 10.9-6.1-.8 1.2-.8 2.4-.8 3.1 0 1.6.3 2.9.7 3.6.7 1.2 1.3 2 3 2.6 2.1.8 3.8 1 7.4-.1 1.6-.5 4.3-1.9 7.3-3.9.6.8 3.2 4.3 3.2 4.3l2.4 3.2c1.1 1.5 2.8 1.9 4.7 1.2 1.4-.6 2.4-1.1 2.7-1.8.1-.2.1-.3.1-.4 0-.5-.3-1-.5-1.3-2.7-3.8-2.9-7.1-2.9-9.6v-.5c.3-.4 5.3-3 5.3-3"/>
	</symbol>
	<symbol id="logo-jira" viewBox="0 0 92.5 35.9">
		<path fill="#255FB5" d="M46.2 8.7h-4c-.4 0-.6.3-.6.6v24.3c0 .4.3.6.6.6h4c.4 0 .6-.3.6-.6V9.3c0-.3-.3-.6-.6-.6M71.8 33.2l-5.6-8c2.4-1 3.6-3.1 3.6-6.2v-3.3c0-4.9-2.5-7-8.2-7h-9.9c-.4 0-.7.3-.7.6v24.3c0 .4.3.6.7.6h4c.4 0 .6-.3.6-.6V26h4.1l5.6 8c.1.2.3.3.5.3h4.8c.4 0 .6-.3.6-.6s0-.4-.1-.5M56.3 13.4h5.1c2.6 0 3.1 1 3.1 2.7v2.5c0 2.1-.8 2.8-3.1 2.8h-5.1v-8z"/><path fill="#255FB5" d="M84.8 9.1c-.1-.3-.3-.5-.6-.5h-6.1c-.3 0-.5.2-.6.5l-7.7 24.3c-.1.2 0 .4.1.6.1.2.3.3.5.3h4.2c.3 0 .5-.2.6-.5L80.5 16s.1-.4.6-.4.6.5.6.5l2.4 8.5h-3.4c-.3 0-.5.2-.6.5l-.9 3.4c-.1.2 0 .4.1.6.1.2.3.3.5.3h5.7l1.5 4.7c.1.3.3.5.6.5h4.2c.2 0 .4-.1.5-.3.1-.2.2-.4.1-.6L84.8 9.1zM36.8 8.7h-4c-.3 0-.6.3-.6.6v19c0 2.4-1.8 3.2-3 3.2-.2 0-.4.1-.5.3-.1.2-.1.4-.1.5l1 3.2c.1.3.4.4.8.4 3.9 0 7.1-3 7.1-7.1V9.3c0-.2-.1-.3-.2-.4-.1-.2-.3-.2-.5-.2M5.6 2C4.4 2 3.4 3 3.4 4.2c0 1.2 1 2.2 2.2 2.2 1.2 0 2.2-1 2.2-2.2 0-1.1-1-2.2-2.2-2.2M20.3 2c-1.2 0-2.2 1-2.2 2.2 0 1.2 1 2.2 2.2 2.2 1.2 0 2.2-1 2.2-2.2.1-1.1-.9-2.1-2.2-2.2M13 0c-1.2 0-2.2 1-2.2 2.2 0 1.2 1 2.2 2.2 2.2 1.2 0 2.2-1 2.2-2.2C15.2 1 14.2 0 13 0M25.6 8.3c-.1-.1-.3-.1-.4-.1h-.3c-1.5.6-3.1 1-4.5 1.4-.3.1-.5.3-.6.5-1 2.8-3.6 5.5-6.4 8.3-.1.1-.3.2-.5.2-.3 0-.4-.1-.5-.2C9.7 15.6 7 12.9 6 10.1c-.1-.2-.3-.5-.6-.5C4 9.2 2.5 8.8 1 8.2H.7c-.2 0-.3 0-.4.1-.2.2-.3.4-.3.6.2 2.3 1.2 4.6 2.8 7 1.6 2.3 3.6 4.3 5.6 6.4 3.6 3.7 7.1 7.2 7.4 11.3 0 .4.3.7.7.7h4.3c.2 0 .4-.1.5-.2.1-.1.2-.3.2-.5-.1-2.7-1.2-5.4-3.1-8.3-.4-.6-.9-1.2-1.3-1.8-.2-.2-.1-.5 0-.7l.4-.4c2-2 4-4.1 5.6-6.4 1.7-2.4 2.6-4.7 2.8-7 0-.3-.1-.5-.3-.7M8.4 25.5c-.1-.1-.3-.2-.5-.2-.3 0-.5.2-.6.3-1.8 2.7-2.7 5.3-2.9 7.9 0 .2.1.4.2.5.1.1.3.2.5.2h4.3c.4 0 .7-.3.7-.7.1-1.3.5-2.5 1.2-3.8.2-.5.1-.9-.1-1.1-.7-.8-1.6-1.8-2.8-3.1"/><path fill="#255FB5" d="M13 10.4c1.3 0 2.1-.1 2.4-.1.3 0 .6.3.6.7 0 .1 0 .2-.1.3-.2.5-1 2.2-2.5 3.7-.2.2-.4.2-.5.2-.1 0-.3 0-.5-.2-1.5-1.5-2.3-3.2-2.5-3.7 0-.1-.1-.1-.1-.3 0-.4.3-.7.6-.7.4 0 1.2.1 2.6.1z"/>
	</symbol>
	<symbol id="logo-stash" viewBox="0 0 119.1 31.1">
		<g fill="#255FB5"><path d="M94.1 16.6c-2.5-.6-2.5-.7-2.5-2 0-.9.1-1.4 2.1-1.4 1.4 0 3.5.2 4.8.5.2 0 .4 0 .5-.1.1-.1.2-.3.3-.5l.4-3.1c0-.3-.2-.7-.5-.7-1.5-.4-3.7-.6-5.5-.6-6.2 0-7.4 2.3-7.4 5.8 0 3.9.7 5.1 5.5 6.3 3.1.8 3.1 1.3 3.1 2.2 0 1.2-.1 1.6-2.1 1.6-1.6 0-3.5-.3-5.2-.7-.2 0-.4 0-.5.1-.2.1-.3.3-.3.5l-.5 2.9c-.1.3.1.7.5.8 1.8.6 4.4 1 6.4 1 6 0 7.2-2.5 7.2-6.3-.2-4.1-.9-4.9-6.3-6.3M114.5 8.7c-2 0-4.6.7-6.7 1.7V2.7c0-.4-.3-.7-.7-.7h-4c-.4 0-.7.3-.7.7v25.4c0 .4.3.7.7.7h4c.4 0 .7-.3.7-.7V15.4c1.4-.7 3.5-1.5 4.7-1.5.9 0 1.2.3 1.2 1.2v13c0 .4.3.7.7.7h4c.4 0 .7-.3.7-.7V14.6c0-3.9-1.6-5.9-4.6-5.9M66.6 24.9c0-.2-.1-.4-.3-.5-.2-.1-.4-.1-.5-.1-.7.2-1.4.3-1.9.3-1 0-1.4-.4-1.4-1.4v-9.7h3.9c.4 0 .7-.3.7-.7v-3c-.1-.5-.4-.8-.7-.8h-3.9V4.4c0-.2-.1-.4-.2-.5-.1-.1-.3-.2-.5-.2l-4 .6c-.3 0-.6.3-.6.7v4H55c-.4 0-.7.3-.7.7v3c0 .4.3.7.7.7h2.2v10.4c0 3.6 1.9 5.4 5.6 5.4 1 0 2.8-.2 4-.6.3-.1.5-.4.4-.7l-.6-3zM46.2 13c-4.4-1.1-4.4-1.1-4.4-3.9 0-2.1.5-2.7 3.6-2.7 2 0 4.4.3 6.5.7.2 0 .4 0 .5-.1.2-.1.3-.3.3-.5l.4-3.4c0-.4-.2-.7-.5-.8-2.3-.5-5-.8-7.3-.8-6.5 0-9.1 2.1-9.1 7.4 0 2.7.2 4.6 1.3 5.8 1 1.1 2.6 1.9 6.1 2.6 4.6 1 4.6 1.1 4.6 3.9 0 2.4-.5 3-3.9 3-2.2 0-4.4-.3-6.9-1.1-.2-.1-.4 0-.5.1-.2.1-.3.3-.3.4l-.7 3.2c-.1.3.1.6.4.8 1.7.7 4.9 1.5 8 1.5 8 0 9.5-2.7 9.5-7.8 0-2.6-.1-4.3-1.1-5.5-1.1-1.3-3.2-2-6.5-2.8M76 8.7c-2 0-4.5.3-6.3.8-.3.1-.5.4-.5.8l.5 2.9c0 .2.1.3.3.5.2.1.3.1.5.1 1.7-.3 3.4-.5 4.9-.5 2.9 0 3.4.6 3.4 2.6v1.7h-4.3c-4.1 0-5.9 1.7-5.9 5.7 0 3.8 1.9 6 5.3 6 1.9 0 3.9-.5 5.5-1.5l.2.6c.1.3.3.5.7.5h3.2c.4 0 .7-.3.7-.7V15.9c-.1-5.3-2.3-7.2-8.2-7.2m2.7 15.2c-.7.4-1.9.9-3.3.9-1.3 0-1.6-.4-1.6-1.6 0-1.2.2-1.6 1.7-1.6h3.2v2.3zM19.3 15.4c0-2-1.6-3.7-3.7-3.7S12 13.4 12 15.4s1.6 3.7 3.7 3.7 3.6-1.6 3.6-3.7M27.5 24.6l-1.9-1.1c-.2-.1-.5-.1-.7.1-2.3 2.6-5.7 4.1-9.2 4.2-3.5 0-6.9-1.5-9.2-4.2-.2-.2-.5-.3-.7-.1l-1.9 1.1c-.1.1-.3.2-.3.4s0 .3.1.5c3 3.6 7.4 5.6 12 5.6s9-2 12-5.6c.1-.1.2-.3.1-.5 0-.2-.2-.3-.3-.4"/><path d="M17.5 24.5h.1c4.2-.9 7.3-4.8 7.3-9.1 0-.9-.1-1.9-.4-2.8-.1-.2-.2-.3-.4-.4-.2-.1-.4-.1-.5 0l-1.1.7c-.3.1-.4.4-.3.7.2.6.2 1.2.2 1.8 0 3.1-2.1 5.8-5 6.5-.3.1-.5.3-.5.6v1.3c0 .2.1.4.2.5.2.2.3.2.4.2M15.7 6.1c-2.6 0-5.1 1.1-6.9 3-.1.2-.2.4-.2.6 0 .2.1.4.3.5l1.1.7c.1.1.2.1.3.1.2 0 .3-.1.5-.2 1.3-1.3 3-2 4.8-2 1.8 0 3.5.7 4.8 2 .2.2.5.2.8.1l1.1-.7c.2-.1.3-.3.3-.5s0-.4-.2-.5c-1.7-2-4.2-3.1-6.7-3.1"/><path d="M4 19.3c-.4-1.3-.6-2.6-.6-3.9 0-5.8 4.1-10.9 9.9-12.1.3-.1.5-.3.5-.6V.6c0-.2-.1-.3-.2-.4-.3-.2-.5-.2-.6-.2C5.5 1.3 0 7.8 0 15.4c0 1.8.3 3.7 1 5.4 0 .2.1.3.3.4h.2c.1 0 .2 0 .3-.1L3.7 20c.2-.1.3-.4.3-.7"/><path d="M8.8 12.9l-1.1-.7c-.2-.1-.4-.1-.5 0-.2.1-.3.2-.4.4-.3.9-.4 1.8-.4 2.8 0 4.3 3.1 8.1 7.3 9.1h.1c.1 0 .3 0 .4-.1.2-.1.2-.3.2-.5v-1.3c0-.3-.2-.5-.5-.6-3-.8-5-3.5-5-6.5 0-.6.1-1.2.2-1.8.1-.3 0-.6-.3-.8M18.3 0c-.2 0-.3 0-.5.1-.1.1-.2.3-.2.4v2.2c0 .3.2.5.5.6C23.8 4.5 28 9.6 28 15.4c0 1.3-.2 2.6-.6 3.9-.1.3 0 .6.3.7l1.9 1.1c.1.1.2.1.3.1h.2c.2-.1.3-.2.3-.3.6-1.7 1-3.5 1-5.4C31.3 7.8 25.9 1.3 18.3 0"/></g>
	</symbol>
	<symbol id="logo-upsource" viewBox="0 0 178.6 43.5">
		<path fill="#00609D" d="M60.4 14.9v11.5c0 3.5 1.3 5.2 3.6 5.2 2.4 0 3.7-1.7 3.7-5.2V14.9h4.5v11.3c0 6.2-3.1 9.1-8.4 9.1-5.1 0-8-2.8-8-9.2V14.9h4.6zM76 25.3c0-1.9-.1-3.5-.1-4.9h3.9l.2 2h.1c1.1-1.5 2.7-2.4 4.9-2.4 3.2 0 6 2.8 6 7.4 0 5.3-3.4 7.8-6.6 7.8-1.8 0-3.1-.7-3.8-1.7h-.1v7.2H76V25.3zm4.5 3.4c0 .4 0 .7.1 1 .3 1.2 1.3 2.1 2.7 2.1 2 0 3.1-1.6 3.1-4.1 0-2.3-1-4.1-3.1-4.1-1.3 0-2.4 1-2.7 2.3-.1.2-.1.5-.1.8v2zM93.8 31c.8.5 2.6 1.1 3.9 1.1 1.4 0 1.9-.4 1.9-1.2 0-.8-.4-1.1-2.1-1.7-3-1-4.2-2.7-4.2-4.4 0-2.7 2.3-4.8 5.9-4.8 1.7 0 3.2.4 4.1.9l-.8 3.1c-.7-.4-1.9-.8-3.2-.8-1.1 0-1.7.4-1.7 1.2 0 .7.6 1.1 2.4 1.7 2.8 1 3.9 2.4 3.9 4.5 0 2.7-2.1 4.7-6.3 4.7-1.9 0-3.6-.4-4.7-1l.9-3.3zM121.2 27.5c0 5.3-3.8 7.8-7.7 7.8-4.3 0-7.5-2.8-7.5-7.5s3.1-7.7 7.8-7.7c4.4-.1 7.4 3 7.4 7.4zm-10.6.1c0 2.5 1 4.4 3 4.4 1.8 0 2.9-1.8 2.9-4.4 0-2.1-.8-4.4-2.9-4.4-2.2.1-3 2.3-3 4.4zM137.7 30.3c0 1.9.1 3.5.1 4.7h-3.9l-.2-2.1h-.1c-.6.9-1.9 2.4-4.6 2.4-3 0-5.1-1.8-5.1-6.3v-8.6h4.5v7.8c0 2.1.7 3.4 2.3 3.4 1.3 0 2-.9 2.3-1.6.1-.3.2-.6.2-1v-8.7h4.5v10zM141.3 25.2c0-2.1 0-3.5-.1-4.8h3.9l.2 2.7h.1c.7-2.1 2.5-3 3.9-3 .4 0 .6 0 1 .1v4.3c-.4-.1-.7-.1-1.2-.1-1.7 0-2.8.9-3.1 2.3-.1.3-.1.7-.1 1v7.4h-4.5v-9.9zM163.4 34.6c-.8.4-2.3.7-4.1.7-4.7 0-7.7-2.9-7.7-7.5 0-4.3 2.9-7.7 8.3-7.7 1.2 0 2.5.2 3.5.6l-.7 3.4c-.5-.2-1.3-.4-2.5-.4-2.4 0-3.9 1.7-3.9 4.1 0 2.7 1.8 4.1 4 4.1 1.1 0 1.9-.2 2.6-.5l.5 3.2zM169 29.1c.1 1.9 2 2.8 4.1 2.8 1.5 0 2.8-.2 4-.6l.6 3.1c-1.5.6-3.3.9-5.3.9-4.9 0-7.8-2.9-7.8-7.4 0-3.7 2.3-7.8 7.4-7.8 4.7 0 6.5 3.7 6.5 7.3 0 .8-.1 1.5-.1 1.8H169zm5.4-3.1c0-1.1-.5-3-2.6-3-1.9 0-2.7 1.8-2.8 3h5.4z"/><circle fill="#F58A1F" cx="18.1" cy="18" r="5.1"/><path fill="#F58A1F" d="M24.6 36.8c-2 1.2-4.3 2.1-6.4 2.1h-.1-.1c-2.1 0-4.4-.9-6.4-2.1-.1 3.1-.3 6.7 6.4 6.7h.2c6.7 0 6.5-3.6 6.4-6.7z"/><path fill="#00609D" d="M18.1 0H18C8.1 0 0 7.4 0 16.6 0 22 2.8 27.1 7.3 31.2c3 2.8 7.5 5.6 10.8 5.6 3.3 0 7.8-2.8 10.8-5.6 4.5-4.1 7.3-9.2 7.3-14.6C36.1 7.4 28.1 0 18.1 0zm.1 28.6H18c-2.5 0-8.5-4.9-8.5-11.2 0-2 .9-4 2.5-5.4 1.6-1.4 3.7-2.2 6-2.2h.2c2.3 0 4.4.8 6 2.2 1.6 1.4 2.5 3.4 2.5 5.4-.1 6.3-6.1 11.2-8.5 11.2z"/>
	</symbol>
	<symbol id="maginifer" viewBox="0 0 17 17">
		<path d="M17 15.803L15.803 17l-3.655-3.656C10.866 14.364 9.265 15 7.5 15A7.5 7.5 0 1 1 15 7.5c0 1.765-.635 3.366-1.655 4.647L17 15.803zM7.5 2a5.5 5.5 0 1 0 0 11 5.5 5.5 0 1 0 0-11z"/>
	</symbol>
	<symbol id="mr" viewBox="0 0 18 18">
		<path fill-rule="evenodd" clip-rule="evenodd" d="M8.8 6.5c-1.5 0-2.4 1.2-2.4 2.6 0 1.6 1 2.5 2.3 2.5 1.5 0 2.4-1.1 2.5-2.4v-.3c0-1.5-1.1-2.4-2.4-2.4zM16.2 0H1.8C.8 0 0 .8 0 1.8v14.4c0 1 .8 1.8 1.8 1.8h14.4c1 0 1.8-.8 1.8-1.8V1.8c0-1-.8-1.8-1.8-1.8zm-2.4 13.4c-1 .8-2.5 0-2.5-1.2v-.4c-.6.7-1.5 1.2-2.5 1.2-2 0-3.7-1.8-3.7-3.9 0-2.1 1.7-3.9 3.7-3.9 1 0 1.9.5 2.6 1.2 0-.3.2-.6.5-.6h.1c.5 0 .6.5.6.6v5.4c0 .4.3.5.6.3.8-.9 1.8-4.6-.5-6.7-2.2-2-5.1-1.7-6.7-.5C4.3 6 3.3 8.6 4.3 11.1c1.1 2.7 4.3 3.5 6.2 2.7 1-.4 1.4 1 .4 1.4-1.5.7-5.7.6-7.7-3C1.9 9.9 2 5.6 5.5 3.5c2.7-1.7 6.3-1.2 8.4 1.1 2.3 2.4 2.1 7-.1 8.8z"/>
	</symbol>
	<symbol id="ok" viewBox="0 0 18 18">
		<path fill-rule="evenodd" clip-rule="evenodd" d="M16.2 0H1.8C.8 0 0 .8 0 1.8v14.4c0 1 .8 1.8 1.8 1.8h14.4c1 0 1.8-.8 1.8-1.8V1.8c0-1-.8-1.8-1.8-1.8zM9 2.5c1.9 0 3.4 1.6 3.4 3.6 0 1.9-1.6 3.5-3.5 3.5C7.1 9.5 5.5 7.9 5.6 6c0-2 1.5-3.6 3.4-3.5zm3.9 8.4c-.4.4-.9.8-1.5 1-.5.2-1.1.3-1.7.4l.2.2 2.4 2.4c.3.3.3.6.2.9-.2.3-.5.6-.9.6-.2 0-.4-.1-.6-.3l-1.8-1.8c-.2-.2-.3-.1-.4 0-.6.6-1.2 1.2-1.8 1.9-.3.3-.6.3-.9.2-.3-.2-.6-.5-.5-.9 0-.2.1-.4.3-.6.8-.8 1.6-1.6 2.3-2.4l.2-.2c-1.1-.1-2-.4-2.8-1-.1-.1-.2-.2-.3-.2-.4-.3-.4-.8-.1-1.2.2-.4.6-.4 1.1-.2.1 0 .2.1.2.1 1.5 1.1 3.6 1.1 5.1 0 .2-.1.3-.2.5-.3.4-.1.7 0 .9.4.2.3.1.7-.1 1zM9 7.7c.9 0 1.7-.8 1.7-1.7 0-1-.7-1.7-1.7-1.7-.9 0-1.7.7-1.7 1.7 0 .9.8 1.7 1.7 1.7z"/>
	</symbol>
	<symbol id="rss" viewBox="0 0 16 16">
		<path d="M15.75 16H12.64a.248.248 0 0 1-.245-.247C12.393 9.05 6.945 3.595.247 3.595A.247.247 0 0 1 0 3.35V.247C0 .11.11 0 .247 0c8.65 0 15.696 7.023 15.74 15.676l.013.077a.25.25 0 0 1-.25.247zM.248 5.226c5.77 0 10.475 4.682 10.518 10.45l.012.077c0 .134-.11.246-.248.246H7.505a.246.246 0 0 1-.246-.247c0-3.87-3.148-7.02-7.013-7.02A.248.248 0 0 1 0 8.488V5.474c0-.137.11-.248.247-.248zm2.125 6.028a2.375 2.375 0 0 1 2.372 2.374A2.376 2.376 0 0 1 2.372 16 2.376 2.376 0 0 1 0 13.628a2.375 2.375 0 0 1 2.372-2.374z"/>
	</symbol>
	<symbol id="ss-site-content-distribution" viewBox="0 0 150 150">
		<path fill="#FFF" stroke="#266CD3" stroke-linecap="round" stroke-linejoin="round" stroke-miterlimit="10" d="M50 50h50v50H50z"/><path fill="none" stroke="#266CD3" stroke-linecap="round" stroke-linejoin="round" stroke-miterlimit="10" d="M50 50h50v10.3H50z"/><path opacity=".3" fill="#4E8AD1" d="M50 50h50v10.3H50z"/><path fill="none" stroke="#266CD3" stroke-linecap="round" stroke-linejoin="round" stroke-miterlimit="10" d="M66.4 69h5.2M75 72.4v4.3M78.4 80.2h5.2M87.1 83.6v4.3M83.6 91.4h-5.2M71.6 91.4h-5.2M62.9 87.9v-4.3"/><circle fill="none" stroke="#266CD3" stroke-linecap="round" stroke-linejoin="round" stroke-miterlimit="10" cx="55.2" cy="55.2" r="2.6"/><circle fill="none" stroke="#266CD3" stroke-linecap="round" stroke-linejoin="round" stroke-miterlimit="10" cx="62.9" cy="55.2" r="2.6"/><circle fill="none" stroke="#266CD3" stroke-linecap="round" stroke-linejoin="round" stroke-miterlimit="10" cx="70.7" cy="55.2" r="2.6"/><circle fill="none" stroke="#266CD3" stroke-linecap="round" stroke-linejoin="round" stroke-miterlimit="10" cx="62.9" cy="69" r="3.4"/><circle fill="none" stroke="#266CD3" stroke-linecap="round" stroke-linejoin="round" stroke-miterlimit="10" cx="75" cy="69" r="3.4"/><circle fill="none" stroke="#266CD3" stroke-linecap="round" stroke-linejoin="round" stroke-miterlimit="10" cx="87.1" cy="69" r="3.4"/><circle opacity=".3" fill="#4E8AD1" cx="87.1" cy="69" r="3.4"/><circle fill="none" stroke="#266CD3" stroke-linecap="round" stroke-linejoin="round" stroke-miterlimit="10" cx="62.9" cy="80.2" r="3.4"/><circle fill="none" stroke="#266CD3" stroke-linecap="round" stroke-linejoin="round" stroke-miterlimit="10" cx="75" cy="80.2" r="3.4"/><circle fill="none" stroke="#266CD3" stroke-linecap="round" stroke-linejoin="round" stroke-miterlimit="10" cx="87.1" cy="80.2" r="3.4"/><circle fill="none" stroke="#266CD3" stroke-linecap="round" stroke-linejoin="round" stroke-miterlimit="10" cx="62.9" cy="91.4" r="3.4"/><circle fill="none" stroke="#266CD3" stroke-linecap="round" stroke-linejoin="round" stroke-miterlimit="10" cx="75" cy="91.4" r="3.4"/><circle opacity=".3" fill="#4E8AD1" cx="62.9" cy="80.2" r="3.4"/><circle opacity=".3" fill="#4E8AD1" cx="62.9" cy="91.4" r="3.4"/><circle opacity=".3" fill="#4E8AD1" cx="75" cy="91.4" r="3.4"/><circle fill="none" stroke="#266CD3" stroke-linecap="round" stroke-linejoin="round" stroke-miterlimit="10" cx="87.1" cy="91.4" r="3.4"/><path fill="none" stroke="#266CD3" stroke-linecap="round" stroke-linejoin="round" stroke-miterlimit="10" d="M60.3 33.4v9.1M64.9 37.9h-9.1M111 55.3v5.4M113.8 58h-5.5M38.6 90.4v9.1M43.1 95H34M90.5 110.3v5.5M93.2 113h-5.4"/>
	</symbol>
	<symbol id="ss-site-cyber-defence" viewBox="0 0 150 150">
		<path fill="#4E8AD1" fill-opacity=".3" stroke="#266CD3" stroke-linecap="round" stroke-linejoin="round" stroke-miterlimit="10" d="M50 50h50v50H50z"/><path fill="none" stroke="#266CD3" stroke-linecap="round" stroke-linejoin="round" stroke-miterlimit="10" d="M50 50h50v10.3H50z"/><path fill="#FDFEFF" stroke="#266CD3" stroke-linecap="round" stroke-linejoin="round" stroke-miterlimit="10" d="M56.9 66.4h36.2v25.9H56.9z"/><path fill="none" stroke="#266CD3" stroke-linecap="round" stroke-linejoin="round" stroke-miterlimit="10" d="M56.9 66.4h36.2V75H56.9zM60.3 70.7h6.9M89.7 69l-3.5 3.4M86.2 69l3.5 3.4M62.1 80.2H75M62.1 83.6h22.4M62.1 87.1h22.4"/><circle fill="none" stroke="#266CD3" stroke-linecap="round" stroke-linejoin="round" stroke-miterlimit="10" cx="55.2" cy="55.2" r="2.6"/><circle fill="none" stroke="#266CD3" stroke-linecap="round" stroke-linejoin="round" stroke-miterlimit="10" cx="62.9" cy="55.2" r="2.6"/><circle fill="none" stroke="#266CD3" stroke-linecap="round" stroke-linejoin="round" stroke-miterlimit="10" cx="70.7" cy="55.2" r="2.6"/><path fill="none" stroke="#266CD3" stroke-linecap="round" stroke-linejoin="round" stroke-miterlimit="10" d="M60.3 33.8v9.1M64.9 38.4h-9.1M111 55.7v5.5M113.8 58.4h-5.5M38.6 90.8v9.2M43.1 95.4H34M90.5 110.7v5.5M93.2 113.5h-5.4"/>
	</symbol>
	<symbol id="ss-site-own-amazon" viewBox="0 0 150 150">
		<path fill="#FFF" stroke="#266CD3" stroke-linecap="round" stroke-linejoin="round" stroke-miterlimit="10" d="M49.5 50h50v50h-50z"/><path fill="none" stroke="#266CD3" stroke-linecap="round" stroke-linejoin="round" stroke-miterlimit="10" d="M49.5 50h50v10.3h-50z"/><path opacity=".3" fill="#4E8AD1" d="M49.5 50h50v10.3h-50z"/><path fill="none" stroke="#266CD3" stroke-linecap="round" stroke-linejoin="round" stroke-miterlimit="10" d="M52.9 68.1H65v17.2H52.9z"/><path fill="none" stroke="#266CD3" stroke-linecap="round" stroke-linejoin="round" stroke-miterlimit="10" d="M52.9 68.1H65v4.3H52.9zM83.9 68.1H96v17.2H83.9z"/><path fill="none" stroke="#266CD3" stroke-linecap="round" stroke-linejoin="round" stroke-miterlimit="10" d="M83.9 68.1H96v4.3H83.9zM68.4 64.7h12.1v24.1H68.4z"/><path fill="none" stroke="#266CD3" stroke-linecap="round" stroke-linejoin="round" stroke-miterlimit="10" d="M68.4 64.7h12.1V69H68.4z"/><path opacity=".3" fill="#4E8AD1" d="M68.4 64.7h12.1V69H68.4z"/><path fill="none" stroke="#266CD3" stroke-linecap="round" stroke-linejoin="round" stroke-miterlimit="10" d="M55.5 79.3h6.9v3.4h-6.9z"/><path opacity=".3" fill="#4E8AD1" d="M55.5 79.3h6.9v3.4h-6.9z"/><path fill="none" stroke="#266CD3" stroke-linecap="round" stroke-linejoin="round" stroke-miterlimit="10" d="M71 82.8h6.9v3.4H71z"/><path opacity=".3" fill="#4E8AD1" d="M71 82.8h6.9v3.4H71z"/><path fill="none" stroke="#266CD3" stroke-linecap="round" stroke-linejoin="round" stroke-miterlimit="10" d="M86.5 79.3h6.9v3.4h-6.9z"/><path opacity=".3" fill="#4E8AD1" d="M86.5 79.3h6.9v3.4h-6.9z"/><path fill="none" stroke="#266CD3" stroke-linecap="round" stroke-linejoin="round" stroke-miterlimit="10" d="M52.9 92.2H65M68.4 92.2h12.1M83.9 92.2H96M69.3 69l4.3-4.3M73.6 69l4.3-4.3M77.9 69l2.6-2.6"/><circle fill="none" stroke="#266CD3" stroke-linecap="round" stroke-linejoin="round" stroke-miterlimit="10" cx="54.6" cy="55.2" r="2.6"/><circle fill="none" stroke="#266CD3" stroke-linecap="round" stroke-linejoin="round" stroke-miterlimit="10" cx="62.4" cy="55.2" r="2.6"/><circle fill="none" stroke="#266CD3" stroke-linecap="round" stroke-linejoin="round" stroke-miterlimit="10" cx="70.1" cy="55.2" r="2.6"/><path fill="none" stroke="#266CD3" stroke-linecap="round" stroke-linejoin="round" stroke-miterlimit="10" d="M59.6 33.8v9.1M64.2 38.4H55M110.3 55.7v5.5M113 58.4h-5.4M37.8 90.8v9.2M42.4 95.4h-9.2M89.8 110.7v5.5M92.5 113.5H87"/>
	</symbol>
	<symbol id="ss-site-own-google" viewBox="0 0 150 150">
		<path fill="#FFF" stroke="#266CD3" stroke-linecap="round" stroke-linejoin="round" stroke-miterlimit="10" d="M49.8 50.2h50v50h-50z"/><path fill="none" stroke="#266CD3" stroke-linecap="round" stroke-linejoin="round" stroke-miterlimit="10" d="M49.8 50.2h50v10.3h-50z"/><path opacity=".3" fill="#4E8AD1" d="M49.8 50.2h50v10.3h-50z"/><path fill="none" stroke="#266CD3" stroke-linecap="round" stroke-linejoin="round" stroke-miterlimit="10" d="M49.8 60.6h6v39.7h-6z"/><path opacity=".3" fill="#4E8AD1" d="M49.8 60.6h6v39.7h-6z"/><path fill="none" stroke="#266CD3" stroke-linecap="round" stroke-linejoin="round" stroke-miterlimit="10" d="M52.4 64.9h.9M52.4 68.3h.9M52.4 71.8h.9M52.4 75.2h.9M52.4 78.7h.9M52.4 82.1h.9M52.4 85.6h.9M52.4 89h.9M52.4 92.5h.9M60.2 64.9h11.2M74.8 64.9h8.7M86.9 64.9h1.7M92.9 68.3H80M76.6 68.3H64.5M61.1 68.3h-.9M60.2 71.8h7.7M71.4 71.8h1.7M76.6 71.8h12M60.2 75.2h11.2M74.8 75.2h8.7M86.9 78.7H80M76.6 78.7H64.5M61.1 78.7h-.9M60.2 82.1h7.7M71.4 82.1h1.7M76.6 82.1h12.9M60.2 85.6h11.2M74.8 85.6h8.7M86.9 85.6h6M83.5 89H80M76.6 89H64.5M61.1 89h-.9M60.2 92.5h7.7M71.4 92.5h1.7M76.6 92.5h6M86.1 92.5h.8"/><circle fill="none" stroke="#266CD3" stroke-linecap="round" stroke-linejoin="round" stroke-miterlimit="10" cx="55" cy="55.4" r="2.6"/><circle fill="none" stroke="#266CD3" stroke-linecap="round" stroke-linejoin="round" stroke-miterlimit="10" cx="62.8" cy="55.4" r="2.6"/><circle fill="none" stroke="#266CD3" stroke-linecap="round" stroke-linejoin="round" stroke-miterlimit="10" cx="70.5" cy="55.4" r="2.6"/><path fill="none" stroke="#266CD3" stroke-linecap="round" stroke-linejoin="round" stroke-miterlimit="10" d="M60.6 34v9.1M65.1 38.6H56M111.3 55.9v5.5M114 58.6h-5.5M38.8 91v9.2M43.3 95.6h-9.1M90.7 110.9v5.5M93.5 113.7H88"/>
	</symbol>
	<symbol id="ss-site-socialized-services" viewBox="0 0 150 150">
		<path fill="#FFF" stroke="#266CD3" stroke-linecap="round" stroke-linejoin="round" stroke-miterlimit="10" d="M50 50h50v50H50z"/><path fill="none" stroke="#266CD3" stroke-linecap="round" stroke-linejoin="round" stroke-miterlimit="10" d="M50 50h50v10.3H50z"/><path opacity=".3" fill="#4E8AD1" d="M50 50h50v10.3H50z"/><path fill="none" stroke="#266CD3" stroke-linecap="round" stroke-linejoin="round" stroke-miterlimit="10" d="M50 60.3h10.3V100H50z"/><path opacity=".3" fill="#4E8AD1" d="M50 60.3h10.3V100H50z"/><path fill="none" stroke="#266CD3" stroke-linecap="round" stroke-linejoin="round" stroke-miterlimit="10" d="M53.4 65.5h3.5M53.4 69.8h3.5M53.4 74.1h3.5M53.4 78.4h3.5M53.4 82.8h3.5M53.4 87.1h3.5M53.4 91.4h3.5M65.5 65.5h12.1v12.1H65.5z"/><path opacity=".3" fill="#4E8AD1" d="M65.5 65.5h12.1v12.1H65.5z"/><path fill="none" stroke="#266CD3" stroke-linecap="round" stroke-linejoin="round" stroke-miterlimit="10" d="M82.8 65.5h12.1v12.1H82.8zM65.5 82.8h12.1v12.1H65.5zM82.8 82.8h12.1v12.1H82.8z"/><circle fill="none" stroke="#266CD3" stroke-linecap="round" stroke-linejoin="round" stroke-miterlimit="10" cx="55.2" cy="55.2" r="2.6"/><circle fill="none" stroke="#266CD3" stroke-linecap="round" stroke-linejoin="round" stroke-miterlimit="10" cx="62.9" cy="55.2" r="2.6"/><circle fill="none" stroke="#266CD3" stroke-linecap="round" stroke-linejoin="round" stroke-miterlimit="10" cx="70.7" cy="55.2" r="2.6"/><path fill="none" stroke="#266CD3" stroke-linecap="round" stroke-linejoin="round" stroke-miterlimit="10" d="M60.3 33.8v9.1M64.9 38.3h-9.1M111 55.7v5.4M113.8 58.4h-5.5M38.6 90.8v9.1M43.1 95.4H34M90.5 110.7v5.5M93.2 113.4h-5.4"/>
	</symbol>
	<symbol id="ss-site-virtual-electronics" viewBox="0 0 150 150">
		<path fill="none" stroke="#266CD3" stroke-linecap="round" stroke-linejoin="round" stroke-miterlimit="10" d="M50 50.3h50v10.3H50z"/><path fill="#FFF" stroke="#266CD3" stroke-linecap="round" stroke-linejoin="round" stroke-miterlimit="10" d="M50 60.6h50v39.7H50z"/><path fill="none" stroke="#266CD3" stroke-linecap="round" stroke-linejoin="round" stroke-miterlimit="10" d="M55.2 71.8h10.3v10.3H55.2zM84.5 71.8h10.3v10.3H84.5zM69.8 71.8h10.3v10.3H69.8z"/><path opacity=".3" fill="#4E8AD1" d="M50 50.3h50v10.3H50zM55.2 71.8h10.3v10.3H55.2zM84.5 71.8h10.3v10.3H84.5zM69.8 71.8h10.3v10.3H69.8z"/><path fill="none" stroke="#266CD3" stroke-linecap="round" stroke-linejoin="round" stroke-miterlimit="10" d="M50 60.6V77h5.2v-5.2h10.3V77h4.3v-5.2h10.4V77h4.3v-5.2h10.3V77h5.2V60.6zM55.2 87.3h10.3M55.2 90.8h10.3M55.2 94.2h10.3M69.8 87.3h10.4M69.8 90.8h10.4M69.8 94.2h10.4M84.5 87.3h10.3M84.5 90.8h10.3M84.5 94.2h10.3"/><circle fill="none" stroke="#266CD3" stroke-linecap="round" stroke-linejoin="round" stroke-miterlimit="10" cx="55.2" cy="55.4" r="2.6"/><circle fill="none" stroke="#266CD3" stroke-linecap="round" stroke-linejoin="round" stroke-miterlimit="10" cx="62.9" cy="55.4" r="2.6"/><circle fill="none" stroke="#266CD3" stroke-linecap="round" stroke-linejoin="round" stroke-miterlimit="10" cx="70.7" cy="55.4" r="2.6"/><path fill="none" stroke="#266CD3" stroke-linecap="round" stroke-linejoin="round" stroke-miterlimit="10" d="M60.4 34.1v9.1M64.9 38.6h-9.1M111.1 56v5.4M113.8 58.7h-5.4M38.6 91.1v9.1M43.2 95.7H34M90.6 111v5.5M93.3 113.7h-5.5"/>
	</symbol>
	<symbol id="ss-site-virtual-office" viewBox="0 0 150 150">
		<path fill="#FFF" stroke="#266CD3" stroke-linecap="round" stroke-linejoin="round" stroke-miterlimit="10" d="M50 50h50v50H50z"/><path fill="none" stroke="#266CD3" stroke-linecap="round" stroke-linejoin="round" stroke-miterlimit="10" d="M50 50h50v10.3H50z"/><path opacity=".3" fill="#4E8AD1" d="M50 50h50v10.3H50z"/><path fill="none" stroke="#266CD3" stroke-linecap="round" stroke-linejoin="round" stroke-miterlimit="10" d="M55.2 69.8h12.9M57.8 66.4h7.7M55.2 73.3h12.9M96.6 87.1l-7.7-7.7c-.5.5-1.1.8-1.8.8s-1.4-.3-1.8-.8l-6.8 6.8-4.3-4.2c-.5.5-1.1.8-1.8.8s-1.4-.3-1.8-.8l-7.7 7.7-5.1-5.1c-.5.5-1.1.8-1.8.8s-1.4-.3-1.8-.8L50 88.8V100h50V83.6l-3.4 3.5z"/><path opacity=".3" fill="#4E8AD1" d="M96.6 87.1l-7.7-7.7c-.5.5-1.1.8-1.8.8s-1.4-.3-1.8-.8l-6.8 6.8-4.3-4.2c-.5.5-1.1.8-1.8.8s-1.4-.3-1.8-.8l-7.7 7.7-5.1-5.1c-.5.5-1.1.8-1.8.8s-1.4-.3-1.8-.8L50 88.8V100h50V83.6l-3.4 3.5z"/><circle fill="none" stroke="#266CD3" stroke-linecap="round" stroke-linejoin="round" stroke-miterlimit="10" cx="55.2" cy="55.2" r="2.6"/><circle fill="none" stroke="#266CD3" stroke-linecap="round" stroke-linejoin="round" stroke-miterlimit="10" cx="62.9" cy="55.2" r="2.6"/><circle fill="none" stroke="#266CD3" stroke-linecap="round" stroke-linejoin="round" stroke-miterlimit="10" cx="70.7" cy="55.2" r="2.6"/><circle fill="none" stroke="#266CD3" stroke-linecap="round" stroke-linejoin="round" stroke-miterlimit="10" cx="56" cy="82.8" r="2.6"/><circle fill="none" stroke="#266CD3" stroke-linecap="round" stroke-linejoin="round" stroke-miterlimit="10" cx="72.4" cy="80.2" r="2.6"/><circle fill="none" stroke="#266CD3" stroke-linecap="round" stroke-linejoin="round" stroke-miterlimit="10" cx="87.1" cy="77.6" r="2.6"/><path fill="none" stroke="#266CD3" stroke-linecap="round" stroke-linejoin="round" stroke-miterlimit="10" d="M60.3 33.8v9.1M64.9 38.4h-9.1M111 55.7v5.5M113.8 58.4h-5.5M38.6 90.8v9.2M43.1 95.4H34M90.5 110.7v5.5M93.2 113.5h-5.4"/>
	</symbol>
	<symbol id="text" viewBox="0 0 475.082 475.082">
		<path d="M473.37 433.11c-10.656-3.997-20.457-6.563-29.406-7.706-8.945-.767-15.516-2.95-19.7-6.567-2.476-1.53-5.81-6.95-9.997-16.28-7.806-15.603-13.99-29.785-18.555-42.536-7.427-20.18-13.617-35.788-18.565-46.828-10.845-25.31-19.982-47.678-27.4-67.092-4.002-10.466-15.798-38.73-35.406-84.796l-58.527-137.04-3.142-5.995H216.13l-79.94 206.703-67.665 175.874c-5.33 9.896-9.9 16.372-13.706 19.417-3.996 2.848-14.466 5.805-31.405 8.843-11.042 2.102-18.654 3.812-22.84 5.14L0 456.813h5.996c16.37 0 32.264-1.334 47.68-3.997l13.705-2.28c53.87 3.807 87.083 5.71 99.643 5.71.38-1.903.57-4.477.57-7.707 0-5.715-.093-11.23-.286-16.563-3.996-.568-7.85-1.143-11.56-1.71-3.712-.576-6.568-1.048-8.566-1.432-1.996-.373-3.283-.568-3.854-.568-14.657-2.094-24.46-5.14-29.407-9.134-3.237-2.28-4.855-6.374-4.855-12.277 0-3.806 2.19-11.796 6.567-23.982 14.277-39.775 24.172-65.855 29.692-78.223l128.483.568 26.27 65.096 13.41 32.542c1.144 3.24 1.71 6.283 1.71 9.138s-1.14 5.428-3.425 7.707c-2.285 1.905-8.753 4.093-19.417 6.563l-37.404 7.994c-.762 6.283-1.135 13.702-1.135 22.27l16.56-.574 57.103-3.138c10.656-.38 23.51-.575 38.547-.575 18.264 0 36.25.763 53.957 2.282 21.313 1.522 39.588 2.282 54.82 2.282.19-2.283.28-4.754.28-7.423 0-3.423-.57-8.843-1.71-16.27zM251.246 270.94c-2.666 0-7.662-.05-14.99-.143-7.326-.09-18.648-.233-33.972-.425-15.32-.195-29.93-.383-43.824-.574l48.534-128.477c7.424 15.038 16.178 35.118 26.264 60.243 11.425 27.79 20.18 50.727 26.273 68.81l-8.285.568z"/>
	</symbol>
	<symbol id="tw" viewBox="0 0 18 18">
		<path d="M16.2 0H1.8C.8 0 0 .8 0 1.8v14.4c0 1 .8 1.8 1.8 1.8h14.4c1 0 1.8-.8 1.8-1.8V1.8c0-1-.8-1.8-1.8-1.8zm-2.1 6.6c-.1 4.1-2.7 7-6.7 7.2-1.6.1-2.8-.4-3.9-1.1 1.2.2 2.7-.3 3.5-1-1.1-.1-1.8-.7-2.1-1.7.4.1.7 0 1 0C4.8 9.6 4.1 9 4 7.6c.3.2.6.3 1 .3-.9-.5-1.4-2.2-.8-3.3 1.2 1.3 2.6 2.3 4.9 2.5-.5-2.5 2.9-3.9 4.2-2.2.6-.1 1.1-.4 1.5-.5-.2.6-.5 1-1 1.3.4-.1.9-.2 1.3-.4-.1.5-.5.9-1 1.3z"/>
	</symbol>
	<symbol id="vk" viewBox="0 0 18 18">
		<path fill-rule="evenodd" clip-rule="evenodd" d="M16.2 0H1.8C.8 0 0 .8 0 1.8v14.4c0 1 .8 1.8 1.8 1.8h14.4c1 0 1.8-.8 1.8-1.8V1.8c0-1-.8-1.8-1.8-1.8zm-2.5 10.4c.4.4.9.8 1.3 1.3.2.2.3.4.5.7.2.3 0 .7-.3.7h-1.9c-.5 0-.9-.2-1.2-.5-.3-.3-.5-.6-.8-.8l-.3-.3c-.3-.2-.5-.1-.6.2-.2.3-.2.6-.2.9 0 .4-.2.6-.6.6-1 0-1.9-.1-2.7-.6-.7-.4-1.3-1-1.8-1.7C4 9.5 3.2 8 2.5 6.5c-.1-.3 0-.5.4-.5h1.9c.2 0 .3.1.4.4.4.8.8 1.6 1.3 2.3.1.2.3.4.5.5.2.2.4.1.5-.1.1-.2.1-.3.1-.5 0-.6.1-1.1 0-1.7-.1-.4-.3-.6-.7-.7-.1 0-.1-.1 0-.2.1-.2.3-.3.6-.3h2.2c.3.1.3.2.4.6v2.4c0 .1.1.5.3.6.2.1.3-.1.4-.2.5-.5.9-1.2 1.2-1.9.1-.3.3-.6.4-.9.1-.2.2-.3.5-.3H15.2c.3.1.4.2.3.5-.2.5-.5 1-.8 1.4-.3.5-.7.9-1.1 1.4-.3.5-.3.7.1 1.1z"/>
	</symbol>
</svg>