<?xml version="1.0" standalone="no"?>
<!DOCTYPE svg PUBLIC "-//W3C//DTD SVG 20010904//EN"
 "http://www.w3.org/TR/2001/REC-SVG-20010904/DTD/svg10.dtd">
<svg version="1.0" xmlns="http://www.w3.org/2000/svg"
 width="258.000000pt" height="258.000000pt" viewBox="0 0 258.000000 258.000000"
 preserveAspectRatio="xMidYMid meet">
<metadata>
Created by potrace 1.11, written by Peter Selinger 2001-2013
</metadata>
<g transform="translate(0.000000,258.000000) scale(0.100000,-0.100000)"
fill="#000000" stroke="none">
<path d="M1039 2568 c-54 -10 -108 -52 -136 -107 -21 -41 -22 -56 -23 -302 0
-160 4 -275 10 -300 14 -52 77 -115 128 -128 20 -5 123 -12 227 -14 105 -2
201 -7 215 -9 58 -11 133 -53 170 -95 66 -75 73 -107 79 -374 6 -234 6 -236
33 -276 15 -22 44 -51 65 -64 37 -24 43 -24 321 -26 264 -3 286 -2 322 17 54
28 98 85 106 139 12 77 8 524 -5 563 -15 45 -74 104 -117 118 -19 7 -123 13
-236 14 -229 3 -271 12 -346 73 -102 83 -119 143 -119 418 -1 222 -6 246 -63
302 -18 18 -48 38 -67 44 -38 12 -498 18 -564 7z"/>
<path d="M134 1691 c-53 -24 -101 -83 -110 -135 -4 -23 -7 -154 -6 -293 1
-274 5 -300 61 -351 52 -47 81 -53 290 -56 236 -4 306 -20 382 -88 77 -70 96
-147 97 -404 1 -220 6 -246 58 -298 56 -56 74 -58 370 -58 302 0 316 2 374 68
47 54 51 90 48 384 l-3 268 -30 43 c-54 77 -79 83 -330 89 l-220 5 -67 33
c-40 19 -81 49 -102 74 -62 72 -69 106 -75 370 l-6 236 -30 43 c-16 23 -50 53
-74 66 -43 22 -51 23 -315 23 -242 0 -275 -2 -312 -19z"/>
</g>
</svg>
