<?xml version="1.0" encoding="iso-8859-1"?>
<!-- Generator: Adobe Illustrator 19.0.0, SVG Export Plug-In . SVG Version: 6.00 Build 0)  -->
<svg version="1.1" id="Capa_1" xmlns="http://www.w3.org/2000/svg" xmlns:xlink="http://www.w3.org/1999/xlink" x="0px" y="0px"
	 viewBox="0 0 512 512" style="enable-background:new 0 0 512 512;" xml:space="preserve">
<path style="fill:#319CD6;" d="M0,77v358c0,16.569,13.431,30,30,30h452c16.569,0,30-13.431,30-30V77c0-16.569-13.431-30-30-30H30
	C13.431,47,0,60.432,0,77z"/>
<path style="fill:#55D8EF;" d="M256,47H30C13.432,47,0,60.432,0,77v358c0,16.569,13.432,30,30,30h226V47z"/>
<path style="fill:#F2F4F9;" d="M165.248,47H30C13.432,47,0,60.432,0,77v358c0,16.569,13.432,30,30,30h135.248V47z"/>
<path style="fill:#D2D6E3;" d="M180.524,47v418h-30V47H180.524z"/>
<path style="fill:#B1B4BF;" d="M512,149.238V77c0-16.569-13.432-30-30-30H30C13.432,47,0,60.432,0,77v72.238H512z"/>
<path style="fill:#D2D6E3;" d="M256,47H30C13.432,47,0,60.432,0,77v72.238h256V47z"/>
<path style="fill:#FFDF63;" d="M58.772,81.991h-10.71c-8.284,0-15,6.716-15,15s6.716,15,15,15h10.71c8.284,0,15-6.716,15-15
	S67.057,81.991,58.772,81.991z"/>
<path style="fill:#FF5CA5;" d="M114.688,81.991h-10.709c-8.284,0-15,6.716-15,15s6.716,15,15,15h10.709c8.284,0,15-6.716,15-15
	S122.972,81.991,114.688,81.991z"/>
<path style="fill:#52CCA5;" d="M170.603,81.991h-10.709c-8.284,0-15,6.716-15,15s6.716,15,15,15h10.709c8.284,0,15-6.716,15-15
	S178.887,81.991,170.603,81.991z"/>
<g>
	<path style="fill:#3A2370;" d="M221.2,215.412h134.206c8.284,0,15-6.716,15-15s-6.716-15-15-15H221.2c-8.284,0-15,6.716-15,15
		S212.916,215.412,221.2,215.412z"/>
	<path style="fill:#3A2370;" d="M221.2,270.447h227.103c8.284,0,15-6.716,15-15s-6.716-15-15-15H221.2c-8.284,0-15,6.716-15,15
		S212.916,270.447,221.2,270.447z"/>
	<path style="fill:#3A2370;" d="M221.2,325.481h134.206c8.284,0,15-6.716,15-15s-6.716-15-15-15H221.2c-8.284,0-15,6.716-15,15
		S212.916,325.481,221.2,325.481z"/>
	<path style="fill:#3A2370;" d="M448.303,350.516H221.2c-8.284,0-15,6.716-15,15s6.716,15,15,15h227.103c8.284,0,15-6.716,15-15
		S456.587,350.516,448.303,350.516z"/>
	<path style="fill:#3A2370;" d="M355.406,405.55H221.2c-8.284,0-15,6.716-15,15s6.716,15,15,15h134.206c8.284,0,15-6.716,15-15
		S363.69,405.55,355.406,405.55z"/>
</g>
<g>
	<path style="fill:#3A458F;" d="M256,185.412h-34.8c-8.284,0-15,6.716-15,15s6.716,15,15,15H256V185.412z"/>
	<path style="fill:#3A458F;" d="M256,240.447h-34.8c-8.284,0-15,6.716-15,15c0,8.284,6.716,15,15,15H256V240.447z"/>
	<path style="fill:#3A458F;" d="M256,295.481h-34.8c-8.284,0-15,6.716-15,15s6.716,15,15,15H256V295.481z"/>
	<path style="fill:#3A458F;" d="M256,350.516h-34.8c-8.284,0-15,6.716-15,15s6.716,15,15,15H256V350.516z"/>
	<path style="fill:#3A458F;" d="M256,405.55h-34.8c-8.284,0-15,6.716-15,15s6.716,15,15,15H256V405.55z"/>
</g>
<g>
</g>
<g>
</g>
<g>
</g>
<g>
</g>
<g>
</g>
<g>
</g>
<g>
</g>
<g>
</g>
<g>
</g>
<g>
</g>
<g>
</g>
<g>
</g>
<g>
</g>
<g>
</g>
<g>
</g>
</svg>
