<svg version="1" xmlns="http://www.w3.org/2000/svg" width="344" height="344" viewBox="0 0 258.000000 258.000000"><path d="M103.9 1.2c-5.4 1-10.8 5.2-13.6 10.7-2.1 4.1-2.2 5.6-2.3 30.2 0 16 .4 27.5 1 30 1.4 5.2 7.7 11.5 12.8 12.8 2 .5 12.3 1.2 22.7 1.4 10.5.2 20.1.7 21.5.9 5.8 1.1 13.3 5.3 17 9.5 6.6 7.5 7.3 10.7 7.9 37.4.6 23.4.6 23.6 3.3 27.6 1.5 2.2 4.4 5.1 6.5 6.4 3.7 2.4 4.3 2.4 32.1 2.6 26.4.3 28.6.2 32.2-1.7 5.4-2.8 9.8-8.5 10.6-13.9 1.2-7.7.8-52.4-.5-56.3-1.5-4.5-7.4-10.4-11.7-11.8-1.9-.7-12.3-1.3-23.6-1.4-22.9-.3-27.1-1.2-34.6-7.3C175 70 173.3 64 173.3 36.5c-.1-22.2-.6-24.6-6.3-30.2-1.8-1.8-4.8-3.8-6.7-4.4-3.8-1.2-49.8-1.8-56.4-.7zM13.4 88.9c-5.3 2.4-10.1 8.3-11 13.5-.4 2.3-.7 15.4-.6 29.3.1 27.4.5 30 6.1 35.1 5.2 4.7 8.1 5.3 29 5.6 23.6.4 30.6 2 38.2 8.8 7.7 7 9.6 14.7 9.7 40.4.1 22 .6 24.6 5.8 29.8 5.6 5.6 7.4 5.8 37 5.8 30.2 0 31.6-.2 37.4-6.8 4.7-5.4 5.1-9 4.8-38.4l-.3-26.8-3-4.3c-5.4-7.7-7.9-8.3-33-8.9l-22-.5-6.7-3.3c-4-1.9-8.1-4.9-10.2-7.4-6.2-7.2-6.9-10.6-7.5-37l-.6-23.6-3-4.3c-1.6-2.3-5-5.3-7.4-6.6C71.8 87.1 71 87 44.6 87c-24.2 0-27.5.2-31.2 1.9z"/></svg>