<?xml version="1.0" encoding="utf-8"?>
<!-- Generator: Adobe Illustrator 17.1.0, SVG Export Plug-In . SVG Version: 6.00 Build 0)  -->
<!DOCTYPE svg PUBLIC "-//W3C//DTD SVG 1.1//EN" "http://www.w3.org/Graphics/SVG/1.1/DTD/svg11.dtd">
<svg enable-background="new 0 0 200.3 30.3" id="Layer_1" version="1.1" viewBox="0 0 200.3 30.3" x="0px" xml:space="preserve" xmlns:xlink="http://www.w3.org/1999/xlink" xmlns="http://www.w3.org/2000/svg" y="0px">
    <g>
        <path
            d="M63.1,7.5c-5.5,0-8.4,2.6-8.4,7.6v4.7c0,5,2.9,7.6,8.4,7.6c5.5,0,8.4-2.6,8.4-7.6v-4.7
		C71.5,10.1,68.5,7.5,63.1,7.5 M59.9,14.9c0-2.1,0.9-2.9,3.2-2.9c2.2,0,3.2,0.9,3.2,2.9v5c0,2.1-0.9,2.9-3.2,2.9
		c-2.2,0-3.2-0.9-3.2-2.9V14.9z"
            fill="#2F61AD"/>
        <path
            d="M85.7,7.5c-2.1,0-4.9,0.7-7.3,1.8l-0.3-1C78,8,77.7,7.8,77.5,7.8h-2.9c-0.4,0-0.7,0.3-0.7,0.7v17.9
		c0,0.4,0.3,0.7,0.7,0.7h3.9c0.4,0,0.7-0.3,0.7-0.7V14c1.4-0.7,3.4-1.5,4.6-1.5c0.9,0,1.2,0.3,1.2,1.2v12.6c0,0.4,0.3,0.7,0.7,0.7
		h3.9c0.4,0,0.7-0.3,0.7-0.7V13.3C90.2,9.4,88.6,7.5,85.7,7.5"
            fill="#2F61AD"/>
        <path
            d="M104.3,0.4C103.2,0.1,102,0,100.9,0c-4.2,0-6.2,2-6.2,6.1v2.3h-2.2c-0.4,0-0.7,0.3-0.7,0.7v3
		c0,0.4,0.3,0.7,0.7,0.7h2.2v13.7c0,0.4,0.3,0.7,0.7,0.7h3.9c0.4,0,0.7-0.3,0.7-0.7V12.7h3.8c0.3,0,0.6-0.3,0.7-0.6l0-3
		c0-0.2,0-0.4-0.2-0.5c-0.1-0.1-0.3-0.2-0.5-0.2h-3.8V6.3c0-1.4,0.3-1.9,1.8-1.9c0.5,0,1.2,0.1,1.9,0.2c0.2,0,0.4,0,0.5-0.1
		c0.1-0.1,0.2-0.3,0.3-0.4l0.4-2.9C104.8,0.8,104.6,0.5,104.3,0.4"
            fill="#2F61AD"/>
        <path d="M111.4,0.5h-3.9c-0.4,0-0.7,0.3-0.7,0.7v25.2c0,0.4,0.3,0.7,0.7,0.7h3.9c0.4,0,0.7-0.3,0.7-0.7V1.2
		C112,0.8,111.7,0.5,111.4,0.5" fill="#2F61AD"/>
        <path
            d="M130.5,7.8h-3.9c-0.4,0-0.7,0.3-0.7,0.7v12.4c-1.4,0.7-3.4,1.5-4.6,1.5c-0.9,0-1.2-0.3-1.2-1.2V8.5
		c0-0.4-0.3-0.7-0.7-0.7h-3.9c-0.4,0-0.7,0.3-0.7,0.7v13.1c0,3.8,1.5,5.8,4.5,5.8c2.1,0,4.9-0.7,7.3-1.8l0.3,1
		c0.1,0.3,0.3,0.5,0.6,0.5h2.9c0.4,0,0.7-0.3,0.7-0.7V8.5C131.2,8.1,130.9,7.8,130.5,7.8"
            fill="#2F61AD"/>
        <path
            d="M141.5,7.5c-5.2,0-8,2.6-8,7.6V20c0,5.1,2.6,7.5,8.2,7.5c2.3,0,4.7-0.4,6.6-1.1c0.3-0.1,0.5-0.4,0.4-0.8
		l-0.6-2.8c0-0.2-0.1-0.3-0.3-0.4c-0.2-0.1-0.3-0.1-0.5-0.1c-1.8,0.5-3.5,0.8-5.2,0.8c-2.9,0-3.4-0.9-3.4-2.9v-0.7h9.7
		c0.4,0,0.7-0.3,0.7-0.7v-3.6C149.1,9.9,146.7,7.5,141.5,7.5 M138.7,15.2v-0.6c0-1.8,0.9-2.7,2.8-2.7c2.1,0,2.5,1,2.5,2.7v0.6H138.7
		z"
            fill="#2F61AD"/>
        <path
            d="M163.2,7.5c-2.1,0-4.9,0.7-7.3,1.8l-0.3-1c-0.1-0.3-0.3-0.5-0.6-0.5h-2.9c-0.4,0-0.7,0.3-0.7,0.7v17.9
		c0,0.4,0.3,0.7,0.7,0.7h3.9c0.4,0,0.7-0.3,0.7-0.7V14c1.4-0.7,3.4-1.5,4.6-1.5c0.9,0,1.2,0.3,1.2,1.2v12.6c0,0.4,0.3,0.7,0.7,0.7
		h3.9c0.4,0,0.7-0.3,0.7-0.7V13.3C167.7,9.4,166.2,7.5,163.2,7.5"
            fill="#2F61AD"/>
        <path
            d="M182.8,23c0-0.2-0.1-0.3-0.3-0.4c-0.2-0.1-0.3-0.1-0.5-0.1c-1.1,0.3-2.3,0.4-3.4,0.4
		c-2.5,0-3.2-0.6-3.2-2.8v-5.2c0-2.2,0.7-2.8,3.2-2.8c0.7,0,2.2,0.1,3.4,0.4c0.2,0,0.4,0,0.5-0.1c0.2-0.1,0.3-0.3,0.3-0.4l0.5-3.1
		c0-0.3-0.2-0.6-0.5-0.7c-1.5-0.4-3.3-0.6-4.3-0.6c-5.9,0-8.3,2.2-8.3,7.4V20c0,5.3,2.4,7.4,8.3,7.4c1.4,0,3.1-0.2,4.3-0.6
		c0.3-0.1,0.5-0.4,0.5-0.7L182.8,23z"
            fill="#2F61AD"/>
        <path
            d="M192.7,7.5c-5.2,0-8,2.6-8,7.6V20c0,5.1,2.6,7.5,8.2,7.5c2.3,0,4.7-0.4,6.6-1.1c0.3-0.1,0.5-0.4,0.4-0.8
		l-0.6-2.8c0-0.2-0.1-0.3-0.3-0.4c-0.2-0.1-0.3-0.1-0.5-0.1c-1.8,0.5-3.5,0.8-5.2,0.8c-2.9,0-3.4-0.9-3.4-2.9v-0.7h9.7
		c0.4,0,0.7-0.3,0.7-0.7v-3.6C200.3,9.9,197.9,7.5,192.7,7.5 M189.9,15.2v-0.6c0-1.8,0.9-2.7,2.8-2.7c2.1,0,2.5,1,2.5,2.7v0.6H189.9
		z"
            fill="#2F61AD"/>
        <path
            d="M46.3,5.6c1.6,0,3.7,0.2,5.8,0.6c0.2,0,0.4,0,0.5-0.1c0.1-0.1,0.2-0.3,0.3-0.4l0.4-3.4
		c0-0.3-0.2-0.6-0.5-0.7c-2.1-0.5-4.4-0.8-6.7-0.8c-6.2,0-9.4,2.6-9.4,7.7v11.5c0,5.1,3.1,7.7,9.4,7.7c2.2,0,4.6-0.3,6.7-0.8
		c0.3-0.1,0.5-0.4,0.5-0.7l-0.4-3.4c0-0.2-0.1-0.3-0.3-0.4c-0.1-0.1-0.3-0.1-0.5-0.1c-2.1,0.4-4.2,0.6-5.8,0.6
		c-3.1,0-4.1-0.9-4.1-3.6V9.2C42.2,6.5,43.3,5.6,46.3,5.6"
            fill="#2F61AD"/>
        <path
            d="M23.9,20.4c-0.4-0.8-0.9-1.7-1.5-2.5C22,17.2,21.5,16.6,21,16c-0.2-0.2-0.1-0.5,0-0.7
		c0.1-0.1,0.3-0.3,0.4-0.4c2-2.1,4.1-4.2,5.7-6.5c1.7-2.4,2.6-4.8,2.9-7.1c0-0.2-0.1-0.5-0.3-0.6c-0.1-0.1-0.3-0.1-0.4-0.1
		c-0.1,0-0.2,0-0.3,0c-1.6,0.6-3.1,1-4.6,1.4C24.3,2,24,2.2,23.9,2.4c-1,2.9-3.7,5.6-6.5,8.5c-0.1,0.1-0.3,0.2-0.5,0.2
		c-0.3,0-0.4-0.1-0.5-0.2C13.6,8,10.9,5.3,9.8,2.5C9.7,2.2,9.5,2,9.2,1.9c-1.4-0.3-3-0.8-4.6-1.4c-0.1,0-0.2,0-0.3,0
		c-0.2,0-0.3,0-0.4,0.1C3.8,0.7,3.7,1,3.7,1.2C3.9,3.6,4.9,6,6.6,8.4c1.6,2.3,3.7,4.4,5.7,6.5c3.7,3.8,7.2,7.4,7.5,11.5
		c0,0.4,0.3,0.7,0.7,0.7h4.4c0.2,0,0.4-0.1,0.5-0.2c0.1-0.1,0.2-0.3,0.2-0.5c0-0.8-0.2-1.6-0.3-2.3l0,0c0,0,0,0,0-0.1
		c0-0.2,0.1-0.3,0.3-0.3c0,0,0,0,0,0c3.6,0.5,5.8,1.4,5.8,2.3v0c0,0.9-2,2.2-5.3,3.1l0,0c-0.3,0.1-0.5,0.3-0.5,0.7
		c0,0.4,0.3,0.7,0.7,0.7c0.1,0,0.1,0,0.2,0c4.4-1,7.4-2.7,7.4-4.7C33.8,23.3,29.8,21.3,23.9,20.4"
            fill="#2F61AD"/>
        <path
            d="M12.2,18.1c-0.1-0.1-0.3-0.2-0.5-0.2c-0.3,0-0.5,0.2-0.6,0.3c-0.5,0.7-0.9,1.4-1.3,2.1
		C4,21.3,0,23.3,0,25.6c0,1.9,2.9,3.7,7.3,4.7c0,0,0,0,0,0c0.1,0,0.1,0,0.2,0c0.4,0,0.7-0.3,0.7-0.7c0-0.3-0.2-0.6-0.5-0.7l0,0
		c-3.3-1-5.3-2.3-5.3-3.1v0c0-0.9,2.2-1.7,5.8-2.3c0,0,0,0,0,0c0.2,0,0.3,0.1,0.3,0.3c0,0,0,0,0,0.1l0,0c-0.2,0.8-0.3,1.6-0.3,2.3
		c0,0.2,0.1,0.4,0.2,0.5c0.1,0.1,0.3,0.2,0.5,0.2h4.4c0.4,0,0.7-0.3,0.7-0.7c0.1-1.3,0.5-2.6,1.2-3.9c0.3-0.5,0.1-0.9-0.1-1.1
		C14.4,20.5,13.5,19.5,12.2,18.1"
            fill="#2F61AD"/>
        <path
            d="M16.4,7.3c0.2,0.2,0.4,0.2,0.5,0.2h0c0.1,0,0.3,0,0.5-0.2c1.5-1.5,2.4-3.2,2.5-3.7C20,3.5,20,3.4,20,3.3
		c0-0.4-0.3-0.7-0.7-0.7c-0.3,0-1.1,0.1-2.4,0.1h0c-1.4,0-2.2-0.1-2.4-0.1c-0.3,0-0.7,0.3-0.7,0.7c0,0.1,0,0.2,0.1,0.3
		C14,4.1,14.8,5.8,16.4,7.3"
            fill="#2F61AD"/>
    </g>
</svg>
