<?xml version="1.0" encoding="utf-8"?>
<!-- Generator: Adobe Illustrator 17.1.0, SVG Export Plug-In . SVG Version: 6.00 Build 0)  -->
<!DOCTYPE svg PUBLIC "-//W3C//DTD SVG 1.1//EN" "http://www.w3.org/Graphics/SVG/1.1/DTD/svg11.dtd">
<svg enable-background="new 0 0 119.1 31.1" id="Layer_1" version="1.1" viewBox="0 0 119.1 31.1" x="0px" xml:space="preserve" xmlns:xlink="http://www.w3.org/1999/xlink" xmlns="http://www.w3.org/2000/svg" y="0px">
    <g>
        <path
            d="M94.1,16.6c-2.5-0.6-2.5-0.7-2.5-2c0-0.9,0.1-1.4,2.1-1.4c1.4,0,3.5,0.2,4.8,0.5c0.2,0,0.4,0,0.5-0.1
		c0.1-0.1,0.2-0.3,0.3-0.5l0.4-3.1c0-0.3-0.2-0.7-0.5-0.7c-1.5-0.4-3.7-0.6-5.5-0.6c-6.2,0-7.4,2.3-7.4,5.8c0,3.9,0.7,5.1,5.5,6.3
		c3.1,0.8,3.1,1.3,3.1,2.2c0,1.2-0.1,1.6-2.1,1.6c-1.6,0-3.5-0.3-5.2-0.7c-0.2,0-0.4,0-0.5,0.1c-0.2,0.1-0.3,0.3-0.3,0.5l-0.5,2.9
		c-0.1,0.3,0.1,0.7,0.5,0.8c1.8,0.6,4.4,1,6.4,1c6,0,7.2-2.5,7.2-6.3C100.2,18.8,99.5,18,94.1,16.6"
            fill="#2F61AD"/>
        <path
            d="M114.5,8.7c-2,0-4.6,0.7-6.7,1.7V2.7c0-0.4-0.3-0.7-0.7-0.7h-4c-0.4,0-0.7,0.3-0.7,0.7v25.4
		c0,0.4,0.3,0.7,0.7,0.7h4c0.4,0,0.7-0.3,0.7-0.7V15.4c1.4-0.7,3.5-1.5,4.7-1.5c0.9,0,1.2,0.3,1.2,1.2v13c0,0.4,0.3,0.7,0.7,0.7h4
		c0.4,0,0.7-0.3,0.7-0.7V14.6C119.1,10.7,117.5,8.7,114.5,8.7"
            fill="#2F61AD"/>
        <path
            d="M66.6,24.9c0-0.2-0.1-0.4-0.3-0.5c-0.2-0.1-0.4-0.1-0.5-0.1c-0.7,0.2-1.4,0.3-1.9,0.3c-1,0-1.4-0.4-1.4-1.4
		v-9.7h3.9c0.4,0,0.7-0.3,0.7-0.7v-3C67,9.3,66.7,9,66.4,9h-3.9V4.4c0-0.2-0.1-0.4-0.2-0.5c-0.1-0.1-0.3-0.2-0.5-0.2l-4,0.6
		c-0.3,0-0.6,0.3-0.6,0.7V9h-2.2c-0.4,0-0.7,0.3-0.7,0.7v3c0,0.4,0.3,0.7,0.7,0.7h2.2v10.4c0,3.6,1.9,5.4,5.6,5.4c1,0,2.8-0.2,4-0.6
		c0.3-0.1,0.5-0.4,0.4-0.7L66.6,24.9z"
            fill="#2F61AD"/>
        <path
            d="M46.2,13c-4.4-1.1-4.4-1.1-4.4-3.9c0-2.1,0.5-2.7,3.6-2.7c2,0,4.4,0.3,6.5,0.7c0.2,0,0.4,0,0.5-0.1
		c0.2-0.1,0.3-0.3,0.3-0.5l0.4-3.4c0-0.4-0.2-0.7-0.5-0.8c-2.3-0.5-5-0.8-7.3-0.8c-6.5,0-9.1,2.1-9.1,7.4c0,2.7,0.2,4.6,1.3,5.8
		c1,1.1,2.6,1.9,6.1,2.6c4.6,1,4.6,1.1,4.6,3.9c0,2.4-0.5,3-3.9,3c-2.2,0-4.4-0.3-6.9-1.1c-0.2-0.1-0.4,0-0.5,0.1
		c-0.2,0.1-0.3,0.3-0.3,0.4l-0.7,3.2c-0.1,0.3,0.1,0.6,0.4,0.8c1.7,0.7,4.9,1.5,8,1.5c8,0,9.5-2.7,9.5-7.8c0-2.6-0.1-4.3-1.1-5.5
		C51.6,14.5,49.5,13.8,46.2,13"
            fill="#2F61AD"/>
        <path
            d="M76,8.7c-2,0-4.5,0.3-6.3,0.8c-0.3,0.1-0.5,0.4-0.5,0.8l0.5,2.9c0,0.2,0.1,0.3,0.3,0.5
		c0.2,0.1,0.3,0.1,0.5,0.1c1.7-0.3,3.4-0.5,4.9-0.5c2.9,0,3.4,0.6,3.4,2.6v1.7h-4.3c-4.1,0-5.9,1.7-5.9,5.7c0,3.8,1.9,6,5.3,6
		c1.9,0,3.9-0.5,5.5-1.5l0.2,0.6c0.1,0.3,0.3,0.5,0.7,0.5h3.2c0.4,0,0.7-0.3,0.7-0.7V15.9C84.1,10.6,81.9,8.7,76,8.7 M78.7,23.9
		c-0.7,0.4-1.9,0.9-3.3,0.9c-1.3,0-1.6-0.4-1.6-1.6c0-1.2,0.2-1.6,1.7-1.6h3.2V23.9z"
            fill="#2F61AD"/>
        <path d="M19.3,15.4c0-2-1.6-3.7-3.7-3.7S12,13.4,12,15.4c0,2,1.6,3.7,3.7,3.7S19.3,17.5,19.3,15.4" fill="#2F61AD"/>
        <path
            d="M27.5,24.6l-1.9-1.1c-0.2-0.1-0.5-0.1-0.7,0.1c-2.3,2.6-5.7,4.1-9.2,4.2c-3.5,0-6.9-1.5-9.2-4.2
		c-0.2-0.2-0.5-0.3-0.7-0.1l-1.9,1.1c-0.1,0.1-0.3,0.2-0.3,0.4c0,0.2,0,0.3,0.1,0.5c3,3.6,7.4,5.6,12,5.6c4.6,0,9-2,12-5.6
		c0.1-0.1,0.2-0.3,0.1-0.5C27.8,24.8,27.6,24.7,27.5,24.6"
            fill="#2F61AD"/>
        <path
            d="M17.5,24.5c0,0,0.1,0,0.1,0c4.2-0.9,7.3-4.8,7.3-9.1c0-0.9-0.1-1.9-0.4-2.8c-0.1-0.2-0.2-0.3-0.4-0.4
		c-0.2-0.1-0.4-0.1-0.5,0l-1.1,0.7c-0.3,0.1-0.4,0.4-0.3,0.7c0.2,0.6,0.2,1.2,0.2,1.8c0,3.1-2.1,5.8-5,6.5c-0.3,0.1-0.5,0.3-0.5,0.6
		v1.3c0,0.2,0.1,0.4,0.2,0.5C17.3,24.5,17.4,24.5,17.5,24.5"
            fill="#2F61AD"/>
        <path
            d="M15.7,6.1c-2.6,0-5.1,1.1-6.9,3C8.7,9.3,8.6,9.5,8.6,9.7c0,0.2,0.1,0.4,0.3,0.5l1.1,0.7
		c0.1,0.1,0.2,0.1,0.3,0.1c0.2,0,0.3-0.1,0.5-0.2c1.3-1.3,3-2,4.8-2c1.8,0,3.5,0.7,4.8,2c0.2,0.2,0.5,0.2,0.8,0.1l1.1-0.7
		c0.2-0.1,0.3-0.3,0.3-0.5c0-0.2,0-0.4-0.2-0.5C20.7,7.2,18.2,6.1,15.7,6.1"
            fill="#2F61AD"/>
        <path
            d="M4,19.3c-0.4-1.3-0.6-2.6-0.6-3.9c0-5.8,4.1-10.9,9.9-12.1c0.3-0.1,0.5-0.3,0.5-0.6V0.6
		c0-0.2-0.1-0.3-0.2-0.4C13.3,0,13.1,0,13,0C5.5,1.3,0,7.8,0,15.4c0,1.8,0.3,3.7,1,5.4C1,21,1.1,21.1,1.3,21.2c0.1,0,0.1,0,0.2,0
		c0.1,0,0.2,0,0.3-0.1L3.7,20C3.9,19.9,4,19.6,4,19.3"
            fill="#2F61AD"/>
        <path
            d="M8.8,12.9l-1.1-0.7c-0.2-0.1-0.4-0.1-0.5,0c-0.2,0.1-0.3,0.2-0.4,0.4c-0.3,0.9-0.4,1.8-0.4,2.8
		c0,4.3,3.1,8.1,7.3,9.1c0,0,0.1,0,0.1,0c0.1,0,0.3,0,0.4-0.1c0.2-0.1,0.2-0.3,0.2-0.5v-1.3c0-0.3-0.2-0.5-0.5-0.6
		c-3-0.8-5-3.5-5-6.5c0-0.6,0.1-1.2,0.2-1.8C9.2,13.4,9.1,13.1,8.8,12.9"
            fill="#2F61AD"/>
        <path
            d="M18.3,0c-0.2,0-0.3,0-0.5,0.1c-0.1,0.1-0.2,0.3-0.2,0.4v2.2c0,0.3,0.2,0.5,0.5,0.6C23.8,4.5,28,9.6,28,15.4
		c0,1.3-0.2,2.6-0.6,3.9c-0.1,0.3,0,0.6,0.3,0.7l1.9,1.1c0.1,0.1,0.2,0.1,0.3,0.1c0.1,0,0.1,0,0.2,0c0.2-0.1,0.3-0.2,0.3-0.3
		c0.6-1.7,1-3.5,1-5.4C31.3,7.8,25.9,1.3,18.3,0"
            fill="#2F61AD"/>
    </g>
</svg>
