<?xml version="1.0" encoding="utf-8"?>
<!-- Generator: Adobe Illustrator 17.1.0, SVG Export Plug-In . SVG Version: 6.00 Build 0)  -->
<!DOCTYPE svg PUBLIC "-//W3C//DTD SVG 1.1//EN" "http://www.w3.org/Graphics/SVG/1.1/DTD/svg11.dtd">
<svg version="1.1" id="Layer_1" xmlns="http://www.w3.org/2000/svg" xmlns:xlink="http://www.w3.org/1999/xlink" x="0px" y="0px"
	 viewBox="0 0 139.5 139.5" enable-background="new 0 0 139.5 139.5" xml:space="preserve">
<rect x="0" y="0" fill="#C2C2C2" width="139.5" height="139.5"/>
<path fill="#FFFFFF" d="M69.8,142.2C57.9,140.4,46,159,34.2,156.7c-5.1-1-14-11.1-14.9-17.2c-2.8-17.1,4.9-24.3,10.1-27.7
	c6.9-4.5,14.2-8.4,21.6-12c7.8-3.8,8.9-8,3.6-15c-8.4-11.1-12.4-23.3-8.3-37.2c3-10.3,12.1-16.7,23.4-16.7
	c11.6,0,20.6,6.3,23.8,16.8c3.9,13.1,0.1,24.6-7.1,35.5c-0.9,1.3-2.1,2.5-2.9,3.8c-3.2,5-1.5,9.8,3.8,12.4
	c7.4,3.6,16.5,8.4,21.9,11.4c18.6,10.6,15.6,38.8,1.3,43.8c-8.8,3.1-17.1-13.9-26.1-13.2C79.6,141.8,69.8,141.7,69.8,142.2z"/>
</svg>
