<?xml version="1.0" encoding="iso-8859-1"?>
<!-- Generator: Adobe Illustrator 16.0.0, SVG Export Plug-In . SVG Version: 6.00 Build 0)  -->
<!DOCTYPE svg PUBLIC "-//W3C//DTD SVG 1.1//EN" "http://www.w3.org/Graphics/SVG/1.1/DTD/svg11.dtd">
<svg xmlns="http://www.w3.org/2000/svg" xmlns:xlink="http://www.w3.org/1999/xlink" version="1.1" id="Capa_1" x="0px" y="0px" width="512px" height="512px" viewBox="0 0 344.339 344.339" style="enable-background:new 0 0 344.339 344.339;" xml:space="preserve">
<g>
	<g>
		<path d="M0,2.369V341.97h344.339V2.369H0z M303.062,27.163c5.836,0,10.592,4.753,10.592,10.602    c0,5.839-4.756,10.595-10.592,10.595c-5.843,0-10.604-4.756-10.604-10.595C292.458,31.916,297.22,27.163,303.062,27.163z     M271.291,27.163c5.83,0,10.593,4.753,10.593,10.602c0,5.839-4.75,10.595-10.593,10.595s-10.599-4.756-10.599-10.595    C260.692,31.916,265.448,27.163,271.291,27.163z M32.264,27.526h69.581v17.033H32.264V27.526z M334.396,332.044H9.95V75.222    h324.445V332.044z" fill="#3289c7"/>
	</g>
</g>
<g>
</g>
<g>
</g>
<g>
</g>
<g>
</g>
<g>
</g>
<g>
</g>
<g>
</g>
<g>
</g>
<g>
</g>
<g>
</g>
<g>
</g>
<g>
</g>
<g>
</g>
<g>
</g>
<g>
</g>
</svg>
