<?xml version="1.0" encoding="utf-8"?>
<!-- Generator: Adobe Illustrator 17.1.0, SVG Export Plug-In . SVG Version: 6.00 Build 0)  -->
<!DOCTYPE svg PUBLIC "-//W3C//DTD SVG 1.1//EN" "http://www.w3.org/Graphics/SVG/1.1/DTD/svg11.dtd">
<svg version="1.1" id="Layer_1" xmlns="http://www.w3.org/2000/svg" xmlns:xlink="http://www.w3.org/1999/xlink" x="0px" y="0px"
	 viewBox="0 0 102.5 102" enable-background="new 0 0 102.5 102" xml:space="preserve">
<g>
	<path fill="#414042" d="M95.2,88.1c-5.4-17.3-20.1-29.6-37.7-31.9V32.7c0,2.6,4.4,2.6,4.4,0V17.4c0-3.1-2.2-6.6-5.9-6.6H51h-4.9
		c-3.7,0-6.1,3.5-6.1,6.6v15.3c0,2.6,4.4,2.6,4.4,0v23.6C27,58.8,12.6,71,7.3,88.2l3.8,1.2c1.4-4.6,3.5-8.8,6.2-12.5
		c2.8,3.6,9.6,6.3,17.9,7.8c-0.8,5.6-1.2,11.5-1.2,17.3h3.9c0-6.1,0.4-11.7,1.2-16.7c4,0.5,8.1,0.8,12.3,0.8c4.1,0,8.3-0.3,12.3-0.8
		c0.7,5,1.2,10.6,1.2,16.7h3.9c0-5.8-0.4-11.7-1.2-17.3c8.2-1.5,15-4.2,17.9-7.8c2.7,3.7,4.8,7.8,6.2,12.3L95.2,88.1z M50.5,34.4
		h0.9v21.3c0,0-0.1,0-0.1,0c-0.3,0-0.5,0-0.8,0V34.4z M19.9,73.7c6.1-6.9,14.4-11.6,23.7-13.3c-3.6,4.4-6.2,11.9-7.8,20.5
		C26.5,79.1,20.7,76.1,19.9,73.7z M51.3,82.2c-4.2,0-8.1-0.3-11.6-0.7C42.2,68.2,46.9,60,51.3,60s9.1,8.2,11.6,21.5
		C59.4,81.9,55.5,82.2,51.3,82.2z M66.8,80.8c-1.6-8.6-4.2-16-7.8-20.5c9.3,1.7,17.5,6.4,23.7,13.3C81.9,76.1,76,79.1,66.8,80.8z"/>
	<path fill="#414042" d="M51,9.9c2.7,0,4.9-2.2,4.9-4.9C56,2.2,53.8,0,51,0c-2.7,0-4.9,2.2-4.9,4.9S48.3,9.9,51,9.9z"/>
</g>
</svg>
