<?xml version="1.0" encoding="utf-8"?>
<!-- Generator: Adobe Illustrator 17.1.0, SVG Export Plug-In . SVG Version: 6.00 Build 0)  -->
<!DOCTYPE svg PUBLIC "-//W3C//DTD SVG 1.1//EN" "http://www.w3.org/Graphics/SVG/1.1/DTD/svg11.dtd">
<svg version="1.1" id="Layer_1" xmlns="http://www.w3.org/2000/svg" xmlns:xlink="http://www.w3.org/1999/xlink" x="0px" y="0px"
	 viewBox="0 0 102.5 102" enable-background="new 0 0 102.5 102" xml:space="preserve">
<g>
	<g>
		<path fill="#414042" d="M89.9,102H78.8c-4.9,0-8.8-4-8.8-8.8v-63c0-4.9,4-8.8,8.8-8.8h11.1c4.9,0,8.8,4,8.8,8.8v63
			C98.7,98,94.8,102,89.9,102z M78.8,25.3c-2.7,0-4.9,2.2-4.9,4.9v63c0,2.7,2.2,4.9,4.9,4.9h11.1c2.7,0,4.9-2.2,4.9-4.9v-63
			c0-2.7-2.2-4.9-4.9-4.9H78.8z"/>
	</g>
	<g>
		<path fill="#414042" d="M56.1,102H45c-4.9,0-8.8-4-8.8-8.8V46.6c0-4.9,4-8.8,8.8-8.8h11.1c4.9,0,8.8,4,8.8,8.8v46.6
			C64.9,98,60.9,102,56.1,102z M45,41.7c-2.7,0-4.9,2.2-4.9,4.9v46.6c0,2.7,2.2,4.9,4.9,4.9h11.1c2.7,0,4.9-2.2,4.9-4.9V46.6
			c0-2.7-2.2-4.9-4.9-4.9H45z"/>
	</g>
	<g>
		<path fill="#414042" d="M23.7,102H12.6c-4.9,0-8.8-4-8.8-8.8V69.9c0-4.9,4-8.8,8.8-8.8h11.1c4.9,0,8.8,4,8.8,8.8v23.3
			C32.5,98,28.6,102,23.7,102z M12.6,65c-2.7,0-4.9,2.2-4.9,4.9v23.3c0,2.7,2.2,4.9,4.9,4.9h11.1c2.7,0,4.9-2.2,4.9-4.9V69.9
			c0-2.7-2.2-4.9-4.9-4.9H12.6z"/>
	</g>
	<g>
		<path fill="#0086CA" d="M37,31.9c-1.7,0-3.1-1-5-2.8c-1.8-1.7-2.6-3.3-2.5-5c0-1.8,1-3.4,3-5.2c0.8-0.7,1.6-1.5,2.4-2.3l0.4-0.4
			c0.4-0.5,1-0.9,1.5-1.3c0.8-0.7,1.9-1.6,1.9-2.2c-0.1-0.3-1.1-0.8-1.5-1c-0.7-0.3-1.5-0.7-2.1-1.2c-2.1-1.8-2.2-3.3-2-4.2
			c0.2-0.9,1-2,3.3-2.5c4.8-1,9.6-1.9,14.3-2.7c1.9-0.3,3.9-0.7,5.9-1l0.2,0c2.1-0.1,3.2,0.7,3.7,1.3c0.8,0.9,1,2.2,0.8,3.8
			C60.6,9,59.9,13,59.2,16.9c-0.4,2.5-0.9,5-1.3,7.4c-0.2,1.1-0.6,3.5-3.3,3.8c-0.2,0-0.3,0-0.5,0c-1,0-2.7-0.4-3.8-3
			c-0.8-1.9-1.4-2.4-1.7-2.4c-0.2,0-1,0.2-2.6,2.2c-0.8,1-1.7,1.9-2.7,2.8c-0.3,0.3-0.7,0.6-1,0.9C40.3,30.8,38.8,31.9,37,31.9z
			 M57,2.9c-1.9,0.3-3.8,0.7-5.8,1C46.5,4.8,41.7,5.6,37,6.6C36.1,6.8,35.9,7,35.9,7c0,0,0.2,0.5,1,1.2c0.3,0.3,0.9,0.6,1.5,0.8
			c1.4,0.7,3.5,1.7,3.2,4c-0.2,1.7-1.6,2.9-2.9,4c-0.5,0.4-0.9,0.8-1.3,1.2l-0.4,0.4c-0.8,0.9-1.7,1.7-2.6,2.6c-1.3,1.1-2,2.1-2,3
			c0,0.8,0.5,1.7,1.6,2.8c1.5,1.4,2.3,2,3,2c0.7,0,1.6-0.7,3.3-2.3c0.3-0.3,0.7-0.7,1-1c0.9-0.8,1.7-1.6,2.3-2.4
			c1.2-1.6,2.9-3.4,4.9-3.4c2.7,0,4,3.2,4.4,4.2c0.5,1.1,0.9,1.1,1,1.1c0,0,0.1,0,0.1,0c0.3,0,0.5-0.1,0.8-1.4
			c0.4-2.5,0.9-5,1.3-7.4c0.7-3.9,1.4-7.8,2.1-11.8c0.1-0.6,0.1-1.1-0.1-1.4c-0.2-0.2-0.6-0.3-1.1-0.3L57,2.9z"/>
	</g>
</g>
</svg>
