<?xml version="1.0" encoding="utf-8"?>
<!-- Generator: Adobe Illustrator 17.1.0, SVG Export Plug-In . SVG Version: 6.00 Build 0)  -->
<!DOCTYPE svg PUBLIC "-//W3C//DTD SVG 1.1//EN" "http://www.w3.org/Graphics/SVG/1.1/DTD/svg11.dtd">
<svg version="1.1" id="Layer_1" xmlns="http://www.w3.org/2000/svg" xmlns:xlink="http://www.w3.org/1999/xlink" x="0px" y="0px"
	 viewBox="0 0 102.5 102" enable-background="new 0 0 102.5 102" xml:space="preserve">
<g>
	<path fill="#FFFFFF" d="M16.6,101.8c-1-1.9-2.8-1.4-4-2.3c-3-2.4-5.1-5.1-5.1-9.3c0.1-25.5,0-51-0.1-76.5C7.3,3.8,11.1,0.1,20.9,0
		c19.9,0,39.9,0,59.8,0c1.1,0,2.1,0,3.2,0c1.2,0.1,2,0.9,2,2.1c0,1.2-0.7,2.1-2,2c-4.2-0.3-4.3,2.8-4.5,5.5
		c-0.4,4.2,3.2,8.2,7.4,8.6c2,0.2,2.8,1,2.8,2.9c0,18.4,0,36.7,0,55.1c0,1.4-0.3,2.8-1.9,2.9c-1.9,0.1-2.2-1.4-2.2-3
		c0-1.1-0.1-2.1-0.2-3.2c0-4,0-7.9,0-11.9c0-6.6,0-13.2,0-19.8c0-4,0-7.9,0-11.9c0-1.3,0-2.7,0-4c0.5-1.9,0.1-3-2.2-2.9
		c-2.9,0.1-5.8,0.1-8.7,0.1c-12.7-0.4-25.4-0.3-38,0c-3.2-0.3-6.3-0.3-9.5,0c-1.6,0-3.1,0-4.7,0c-3.4-0.4-7.4,0.3-10.3-1.9
		c0,4.5,0,8.6,0,12.7c0,1.3,0,2.6,0,4c0,4,0,7.9,0,11.9c0,1.3,0,2.6,0,4c0,4,0,7.9,0,11.9c0,1.3,0,2.6,0,4c0,4,0,7.9,0,11.9
		c0,1.3,0,2.6,0,4c0,3.6-1.3,7.5,2.4,10.3c1,1.2,2.3,1.7,3.9,1.6c3.7,1.1,7.4,0.6,11.1,0.4c1.6,0.4,3.2,0.3,4.8,0
		c9,0.3,17.9,0.4,26.9,0c1.6,0.4,3.2,0.3,4.8,0c3.7,0.3,7.4,0.4,11.1,0c3.1,0.1,6.2,0.4,9.3,0.4c3.2,0,4.4,0.5,2.6,4.3
		C64.6,101.8,40.6,101.8,16.6,101.8z M56.2,4.4c-3.7-0.3-7.4-0.3-11.1,0c-1.6,0-3.2,0-4.8,0c-7.3-0.1-14.6-0.2-22-0.2
		c-2.8,0-5.5,0.9-6.2,3.8c-0.7,3.1-1.6,6.5,1.9,8.8c0.9,1,2,1.4,3.2,1.2c4,0,7.9,0,11.9,0c1.3,0,2.6,0,4,0c4,0,7.9,0,11.9,0
		c1.3,0,2.6,0,4,0c4,0,7.9,0,11.9,0c1.3,0,2.6,0,4,0c4,0,7.9,0,11.9,0c0.4-0.1,0.9-0.2,1.3-0.3c-0.4-0.5-0.8-0.9-1.2-1.4
		c-1.4-3.3-2.1-6.7-1.5-10.3c0.4-0.6,1.2-1.3-0.2-1.7c-4.7-0.3-9.5-0.3-14.2,0C59.4,4.4,57.8,4.4,56.2,4.4z"/>
	<path fill="#FFFFFF" d="M79,77.8c4.8,4.9,9.5,9.8,14.3,14.6c1.3,1.3,2.6,2.8,1.2,4.4c-1.8,1.9-3-0.2-4.2-1.3
		c-2.1-1.9-4.2-3.9-6.3-5.9c-1.9-2.4-4.1-4.6-6.5-6.5c-0.3-0.7-0.7-1.2-1.5-1.5c-2.5-2.6-5.1-5.2-7.6-7.9c-1-1.1-1.8-1.1-3-0.2
		c-4.9,3.7-10.5,5.2-16.5,5.2c-1.1-0.1-2.2-0.2-3.3-0.3c-2.9-1.1-5.8-2.2-8.7-3.3c-0.4-0.3-0.8-0.5-1.2-0.8c-2-1.8-3.9-3.6-5.9-5.4
		c-0.8-1.1-1.6-2.2-2.4-3.4c-0.9-2.4-1.8-4.7-2.7-7.1c-0.2-1.3-0.5-2.5-0.7-3.8c-0.1-5,0.8-9.7,3-14.2c1.9-3,4-5.8,6.8-8.1
		c9.5-7.7,20-7.9,32.4-0.6c1.8,1.9,3.6,3.7,5.4,5.6c0.5,0.8,1,1.6,1.5,2.4c0.9,2.6,1.9,5.2,2.8,7.8c1.1,6.7,0.1,13.1-3.8,18.7
		c-2.1,2.9-1.5,4.5,1.2,6C75.1,74.3,77,76.2,79,77.8z M72,54.7c0.6-4.2,0.2-8.2-2-11.9c-0.1-0.6-0.2-1.3-0.9-1.6
		c-1.3-3-3.6-5.1-6.3-6.8c-0.8-0.4-1.6-0.9-2.4-1.3c-3.2-2-6.7-2.6-10.4-2.1c-11.8-0.3-21,9.1-21.1,21.4c-0.2,3.4,0.4,6.6,2.1,9.5
		c0.2,1.5,1.1,2.6,2.1,3.7c1.4,2.2,3.1,4.1,5.5,5.1c0.8,1,1.9,1.5,3.1,1.6c3.3,1.8,6.9,2.4,10.6,1.8C63.4,73.1,71.6,65.1,72,54.7z"
		/>
</g>
</svg>
