<?xml version="1.0" encoding="utf-8"?>
<!-- Generator: Adobe Illustrator 17.1.0, SVG Export Plug-In . SVG Version: 6.00 Build 0)  -->
<!DOCTYPE svg PUBLIC "-//W3C//DTD SVG 1.1//EN" "http://www.w3.org/Graphics/SVG/1.1/DTD/svg11.dtd">
<svg version="1.1" id="Layer_1" xmlns="http://www.w3.org/2000/svg" xmlns:xlink="http://www.w3.org/1999/xlink" x="0px" y="0px"
	 viewBox="0 0 102.5 102" enable-background="new 0 0 102.5 102" xml:space="preserve">
<g>
	<path fill="#FFFFFF" d="M28.2,0c2.7,1.9,5.8,3.2,7.9,5.5c3.4,3.6,4.3,8.2,2.3,12.9c-1,2.3-0.4,3.5,1.2,5.1
		c6.2,6.2,10,13.8,10.3,22.8c0,0.9-0.1,1.4-0.2,3.3c-16.6,0-33,0-49.5,0c0-2.8,0-5.2,0-7.6c2.4-8,6-15.2,12.5-20.6
		c-2.7-8.3-2.1-12.9,2.6-17.2c1.9-1.8,4.3-3.2,6.5-4.2C23.9,0,26.1,0,28.2,0z M4.8,44.9c13.8,0,27.1,0,40.8,0
		c-0.9-8.4-4.8-14.9-10.8-20.2c-8.3,4.4-11.2,4.4-19.2-0.1C9.6,30,5.5,36.5,4.8,44.9z M25.1,23.7c5.7,0,9.8-4,9.9-9.6
		c0.1-5.8-4.1-10.1-9.9-10.2c-5.6,0-9.8,4.1-9.8,9.7C15.2,19.7,19.2,23.7,25.1,23.7z"/>
	<path fill="#FFFFFF" d="M52.9,102c-1-10.3,3.2-18.6,10-26c0.9-1,1.7-3,1.4-4.2c-2-7-0.3-13,5.3-16.9c5.2-3.7,11.6-3.4,16.6,0.6
		c5.3,4.3,6.7,10.3,3.9,17.2c-0.1,0.2-0.3,0.5-0.5,1.1c6.5,5.5,10.7,12.7,12.6,20.9c0,2.4,0,4.5,0,7.3C86.4,102,69.4,102,52.9,102z
		 M97.9,97.3C97.2,88.9,93,82.5,87,77c-6.3,4.7-12.6,4.7-18.8,0c-6.2,5.5-10.2,11.9-11,20.3C70.8,97.3,84.1,97.3,97.9,97.3z
		 M87.4,66.7c0.1-5.9-4-10.2-9.8-10.2c-5.6,0-9.8,4.1-10,9.7c-0.2,5.7,4.1,10.1,9.9,10.2C83.2,76.4,87.3,72.4,87.4,66.7z"/>
	<path fill="#FFFFFF" d="M11.9,62.7c-1.4,1.7-2.3,3.1-3.5,4C7.5,67.3,6.1,67,5,67.2c0.1-1.1-0.3-2.4,0.3-3.1c2.6-3.4,5.4-6.6,8.2-10
		c3.3,2.6,6.6,4.9,9.6,7.5c0.7,0.6,0.6,2.2,0.9,3.4c-1.2,0-2.5,0.2-3.5-0.2c-1.3-0.5-2.4-1.6-3.7-2.6C16.7,73.9,26.9,85.8,39.6,89
		c2,0.5,4.2,0.5,6.3,1c1.4,0.4,2.6,1.4,3.9,2.2c-1.5,0.6-3,1.9-4.4,1.9c-15.4-1-28.5-11.9-32.5-26.8C12.7,65.9,12.4,64.6,11.9,62.7z
		"/>
	<path fill="#FFFFFF" d="M85.6,49.4c-3.3-2.5-6.4-4.7-9.2-7.1c-0.9-0.8-1-2.3-1.5-3.5c1.4,0.1,2.8,0,4.1,0.4
		c1.1,0.3,1.9,1.3,3.7,2.6c-0.3-2.2-0.4-3.6-0.7-4.9c-3.4-12.6-13.5-21.4-26.6-23.1c-1.2-0.1-2.5,0-3.5-0.4c-1-0.3-1.7-1.2-2.6-1.9
		c0.9-0.7,2-2.3,2.7-2.1c5.4,1.2,11.1,1.9,16,4.2c9.8,4.8,15.8,13.1,18.5,23.7c0.2,0.9,0.5,1.7,0.9,3.1c1.2-1.4,2-2.7,3.1-3.5
		c0.9-0.6,2.2-0.6,3.4-0.9c0,1.2,0.4,2.7-0.2,3.5C91.2,42.9,88.5,46,85.6,49.4z"/>
</g>
</svg>
