<?xml version="1.0" encoding="utf-8"?>
<!-- Generator: Adobe Illustrator 17.1.0, SVG Export Plug-In . SVG Version: 6.00 Build 0)  -->
<!DOCTYPE svg PUBLIC "-//W3C//DTD SVG 1.1//EN" "http://www.w3.org/Graphics/SVG/1.1/DTD/svg11.dtd">
<svg version="1.1" id="Layer_1" xmlns="http://www.w3.org/2000/svg" xmlns:xlink="http://www.w3.org/1999/xlink" x="0px" y="0px"
	 viewBox="0 0 102.5 102" enable-background="new 0 0 102.5 102" xml:space="preserve">
<g>
	<path fill="#FFFFFF" d="M82.6,50.8C92.8,41,98.7,30.9,94.9,24.6c-1.3-2.2-4.4-4.7-11.5-4.7c-4.6,0-10.2,1.1-16.4,3.1
		C63.9,9.7,58.5,0,51.3,0c-7.1,0-12.5,9.5-15.7,22.5c-6.2-2-11.9-3.1-16.5-3.1C12,19.4,9,22,7.6,24.2c-3.9,6.4,2.2,16.7,12.7,26.6
		C9.9,60.8,3.7,71,7.6,77.4c1.3,2.2,4.4,4.7,11.5,4.7c4.6,0,10.2-1.1,16.4-3.1c3.1,13.2,8.6,22.9,15.8,22.9
		c7.3,0,12.7-9.9,15.9-23.3c6.1,2,11.7,3.1,16.3,3.1c0,0,0,0,0,0c7.1,0,10.1-2.6,11.5-4.7C98.7,70.7,92.8,60.6,82.6,50.8z
		 M83.4,23.3c3,0,6.9,0.5,8.4,3.1c2.4,4-1.9,12.6-11.8,22c-3.2-2.8-6.7-5.6-10.3-8.3c-0.4-4.8-1-9.5-1.9-13.8
		C73.7,24.4,79.1,23.3,83.4,23.3z M59.2,64.1c-2.5,1.5-5.1,2.9-7.6,4.3c-2.8-1.4-5.6-3-8.3-4.7c-2.5-1.5-4.9-3.1-7.2-4.6
		c-0.2-2.6-0.2-5.3-0.2-8.1c0-2.9,0.1-5.8,0.3-8.5c2.3-1.6,4.6-3.1,7.1-4.6c2.8-1.7,5.6-3.2,8.3-4.7c2.5,1.3,5.1,2.7,7.6,4.3
		c2.5,1.5,4.9,3.1,7.1,4.6c0.2,2.9,0.3,5.8,0.3,8.9c0,2.9-0.1,5.8-0.3,8.5C64.1,61.1,61.7,62.6,59.2,64.1z M66,64
		c-0.3,3.6-0.8,7-1.4,10.1c-2.9-1.1-6-2.4-9-3.8c1.8-1,3.7-2.1,5.5-3.2C62.7,66.1,64.4,65.1,66,64z M47.8,70.3
		c-3.3,1.6-6.6,3-9.8,4.2c-0.7-3.4-1.2-7-1.5-10.9c1.6,1.1,3.3,2.2,5,3.2C43.6,68,45.7,69.2,47.8,70.3z M32.5,56.5
		c-2.5-1.9-4.9-3.8-7-5.7c2.1-1.9,4.5-3.8,7-5.7c-0.1,2-0.1,3.9-0.1,5.9C32.4,52.8,32.4,54.6,32.5,56.5z M36.5,38
		c0.4-3.9,0.9-7.5,1.6-10.9c3.1,1.2,6.4,2.5,9.7,4.1c-2.1,1.1-4.2,2.3-6.3,3.6C39.8,35.9,38.2,36.9,36.5,38z M55.5,31.3
		c3.1-1.4,6.1-2.7,9-3.8c0.6,3.1,1.1,6.5,1.5,10.1c-1.6-1.1-3.3-2.1-4.9-3.1C59.2,33.4,57.4,32.3,55.5,31.3z M70,44.7
		c2.7,2,5.2,4.1,7.5,6.1c-2.3,2-4.8,4-7.5,6.1c0.1-2,0.1-3.9,0.1-5.9C70.1,48.9,70.1,46.8,70,44.7z M51.3,3.5
		c4.6,0,9.5,7.8,12.5,20.5c-3.9,1.4-8,3.2-12.1,5.2c-4.4-2.2-8.7-4.1-12.8-5.6C41.9,11.1,46.7,3.5,51.3,3.5z M10.7,26
		c1.5-2.5,5.4-3.1,8.4-3.1c4.4,0,9.8,1.1,15.7,3c-0.9,4.6-1.6,9.6-2,14.6c-3.5,2.5-6.8,5.2-9.9,7.8C12.7,38.8,8.2,30.1,10.7,26z
		 M19.1,78.7c-3,0-6.9-0.5-8.4-3.1c-2.5-4.1,2.1-12.8,12.3-22.5c3,2.7,6.4,5.3,9.8,7.8c0.4,5.1,1,10.1,2,14.7
		C28.8,77.6,23.4,78.7,19.1,78.7z M51.3,98.5c-4.6,0-9.5-7.8-12.5-20.5c4.2-1.5,8.5-3.4,12.9-5.6c4.1,2.1,8.2,3.8,12.2,5.3
		C60.8,90.6,55.9,98.5,51.3,98.5z M91.9,75.2c-1.5,2.5-5.4,3.1-8.4,3.1c0,0,0,0,0,0c-4.3,0-9.7-1.1-15.5-3c0.9-4.4,1.5-9.1,1.9-13.9
		c3.7-2.6,7.2-5.4,10.3-8.2C89.9,62.6,94.3,71.2,91.9,75.2z"/>
	<path fill="#FFFFFF" d="M51.3,40.8c-5.4,0-9.8,4.4-9.8,9.8c0,5.4,4.4,9.8,9.8,9.8c5.4,0,9.8-4.4,9.8-9.8
		C61.1,45.2,56.7,40.8,51.3,40.8z"/>
</g>
</svg>
