<?xml version="1.0" encoding="utf-8"?>
<!-- Generator: Adobe Illustrator 17.1.0, SVG Export Plug-In . SVG Version: 6.00 Build 0)  -->
<!DOCTYPE svg PUBLIC "-//W3C//DTD SVG 1.1//EN" "http://www.w3.org/Graphics/SVG/1.1/DTD/svg11.dtd">
<svg version="1.1" id="Layer_1" xmlns="http://www.w3.org/2000/svg" xmlns:xlink="http://www.w3.org/1999/xlink" x="0px" y="0px"
	 viewBox="0 0 102.5 102" enable-background="new 0 0 102.5 102" xml:space="preserve">
<g>
	<path fill="#414042" d="M102.5,35.6c-0.3,0.6-0.6,1.1-0.9,1.7c-2.4,6-3.9,7.1-10.1,6.3c-9.7-1.2-19.3-2.5-29-3.7
		c-1.3-0.2-2.6-0.2-4.6-0.4c0.7,1.7,1.2,2.8,1.8,4C67,58.9,74.3,74.3,81.6,89.8c0.3,0.7,0.9,1.4,0.9,2.2c0,1.3-0.3,2.5-0.5,3.8
		c-1.1-0.6-2.8-1-3.2-1.9c-3.5-6.9-6.7-13.9-10-20.9c-3.7-7.8-7.4-15.6-11.6-24.5c-0.2,1.9-0.4,2.8-0.4,3.7c0,14.8,0,29.6,0,44.4
		c0,1.1,0.3,2.3-0.1,3.2c-0.4,0.9-1.4,1.5-2.2,2.3c-0.6-0.7-1.7-1.5-1.8-2.3c-0.2-2.5-0.1-5.1-0.1-7.6c0-13.1,0-26.2,0-39.2
		c0-1.1,0-2.2-0.7-3.5c-0.6,1.1-1.2,2.2-1.7,3.4C44.2,65.7,38.1,78.5,32,91.4c-0.4,0.8-0.6,1.9-1.3,2.5c-1,0.8-2.2,1.2-3.4,1.8
		c-0.1-1.2-0.8-2.6-0.4-3.5c2.4-5.6,5.1-11.1,7.7-16.7c5.7-12,11.4-24.1,17.4-36.8c-5.6-0.8-10.9-1.6-16.3-2.2
		c-9.4-1.2-18.8-2.3-28.2-3.4c-4-0.5-6-2.8-7-6.5C-1.9,16.9,2.8,5.7,12,0c1.6,0,3.2,0,4.8,0c0.7,0,1.4,0.9,2.2,1.1
		c26.6,8.6,53.2,17.1,79.7,25.8c1.5,0.5,2.6,2,3.8,3C102.5,31.8,102.5,33.7,102.5,35.6z M21.4,6.2c-0.4,4.2-0.4,8.3-1.4,12
		c-1.1,3.8-3.2,7.4-5,11.3c5.3,0.7,10.7,1.5,16.1,2.1c7.2,0.8,9.1-0.5,11.2-7.5c0.7-2.4,1.2-5,1-7.4c-0.1-1.5-1.5-3.7-2.8-4.2
		C34.1,10.1,27.6,8.2,21.4,6.2z M43.5,33.2c8.8,1.1,18.4,2.4,28,3.5c1.1,0.1,3-0.5,3.4-1.4c1.2-2.7,2.1-5.7,2.7-8.6
		c0.2-0.8-0.9-2.4-1.7-2.7c-9.4-3.2-18.8-6.2-27.3-9C46.8,21.2,45.2,27.1,43.5,33.2z M18,11.1c-0.3-0.1-0.7-0.3-1-0.4
		c0-0.5,0.2-1.1,0-1.6c-0.8-1.7-1.3-4.3-2.6-4.7C13.1,4,10.6,5.3,9.5,6.6c-3.9,4.8-5.6,10.5-5.3,16.7C4.3,25,5.7,27.9,6.7,28
		c1.7,0.2,4.4-1.1,5.1-2.5C14.3,20.9,16,15.9,18,11.1z M82.4,26c-1.2,4.2-2.2,7.9-3.2,11.7c4.5,0.6,9,1.1,13.5,1.8
		c2.8,0.5,4.3-0.6,4.8-3.3c0.3-1.6,0.7-3.3,1.1-5.1C92.9,29.4,87.6,27.6,82.4,26z"/>
</g>
</svg>
