<?xml version="1.0" encoding="utf-8"?>
<!-- Generator: Adobe Illustrator 17.1.0, SVG Export Plug-In . SVG Version: 6.00 Build 0)  -->
<!DOCTYPE svg PUBLIC "-//W3C//DTD SVG 1.1//EN" "http://www.w3.org/Graphics/SVG/1.1/DTD/svg11.dtd">
<svg version="1.1" id="Layer_1" xmlns="http://www.w3.org/2000/svg" xmlns:xlink="http://www.w3.org/1999/xlink" x="0px" y="0px"
	 viewBox="0 0 720.8 7.1" enable-background="new 0 0 720.8 7.1" xml:space="preserve">
<g>
	<polyline fill="none" stroke="#CACACA" stroke-linecap="round" stroke-linejoin="round" points="0.5,6.6 6.6,0.5 12.3,6.2 	"/>
	<polyline fill="none" stroke="#CACACA" stroke-linecap="round" stroke-linejoin="round" points="12.5,6.6 18.6,0.5 24.3,6.2 	"/>
	<polyline fill="none" stroke="#CACACA" stroke-linecap="round" stroke-linejoin="round" points="24.5,6.6 30.6,0.5 36.3,6.2 	"/>
	<polyline fill="none" stroke="#CACACA" stroke-linecap="round" stroke-linejoin="round" points="36.5,6.6 42.6,0.5 48.3,6.2 	"/>
	<polyline fill="none" stroke="#CACACA" stroke-linecap="round" stroke-linejoin="round" points="48.5,6.6 54.6,0.5 60.3,6.2 	"/>
	<polyline fill="none" stroke="#CACACA" stroke-linecap="round" stroke-linejoin="round" points="60.5,6.6 66.6,0.5 72.3,6.2 	"/>
	<polyline fill="none" stroke="#CACACA" stroke-linecap="round" stroke-linejoin="round" points="72.5,6.6 78.6,0.5 84.3,6.2 	"/>
	<polyline fill="none" stroke="#CACACA" stroke-linecap="round" stroke-linejoin="round" points="84.5,6.6 90.6,0.5 96.3,6.2 	"/>
	<polyline fill="none" stroke="#CACACA" stroke-linecap="round" stroke-linejoin="round" points="96.5,6.6 102.6,0.5 108.3,6.2 	"/>
	<polyline fill="none" stroke="#CACACA" stroke-linecap="round" stroke-linejoin="round" points="108.5,6.6 114.6,0.5 120.3,6.2 	
		"/>
	<polyline fill="none" stroke="#CACACA" stroke-linecap="round" stroke-linejoin="round" points="120.5,6.6 126.6,0.5 132.3,6.2 	
		"/>
	<polyline fill="none" stroke="#CACACA" stroke-linecap="round" stroke-linejoin="round" points="132.5,6.6 138.6,0.5 144.3,6.2 	
		"/>
	<polyline fill="none" stroke="#CACACA" stroke-linecap="round" stroke-linejoin="round" points="144.5,6.6 150.6,0.5 156.3,6.2 	
		"/>
	<polyline fill="none" stroke="#CACACA" stroke-linecap="round" stroke-linejoin="round" points="156.5,6.6 162.6,0.5 168.3,6.2 	
		"/>
	<polyline fill="none" stroke="#CACACA" stroke-linecap="round" stroke-linejoin="round" points="168.5,6.6 174.6,0.5 180.3,6.2 	
		"/>
	<polyline fill="none" stroke="#CACACA" stroke-linecap="round" stroke-linejoin="round" points="180.5,6.6 186.6,0.5 192.3,6.2 	
		"/>
	<polyline fill="none" stroke="#CACACA" stroke-linecap="round" stroke-linejoin="round" points="192.5,6.6 198.6,0.5 204.3,6.2 	
		"/>
	<polyline fill="none" stroke="#CACACA" stroke-linecap="round" stroke-linejoin="round" points="204.5,6.6 210.6,0.5 216.3,6.2 	
		"/>
	<polyline fill="none" stroke="#CACACA" stroke-linecap="round" stroke-linejoin="round" points="216.5,6.6 222.6,0.5 228.3,6.2 	
		"/>
	<polyline fill="none" stroke="#CACACA" stroke-linecap="round" stroke-linejoin="round" points="228.5,6.6 234.6,0.5 240.3,6.2 	
		"/>
	<polyline fill="none" stroke="#CACACA" stroke-linecap="round" stroke-linejoin="round" points="240.5,6.6 246.6,0.5 252.3,6.2 	
		"/>
	<polyline fill="none" stroke="#CACACA" stroke-linecap="round" stroke-linejoin="round" points="252.5,6.6 258.6,0.5 264.3,6.2 	
		"/>
	<polyline fill="none" stroke="#CACACA" stroke-linecap="round" stroke-linejoin="round" points="264.5,6.6 270.6,0.5 276.3,6.2 	
		"/>
	<polyline fill="none" stroke="#CACACA" stroke-linecap="round" stroke-linejoin="round" points="276.5,6.6 282.6,0.5 288.3,6.2 	
		"/>
	<polyline fill="none" stroke="#CACACA" stroke-linecap="round" stroke-linejoin="round" points="288.5,6.6 294.6,0.5 300.3,6.2 	
		"/>
	<polyline fill="none" stroke="#CACACA" stroke-linecap="round" stroke-linejoin="round" points="300.5,6.6 306.6,0.5 312.3,6.2 	
		"/>
	<polyline fill="none" stroke="#CACACA" stroke-linecap="round" stroke-linejoin="round" points="312.5,6.6 318.6,0.5 324.3,6.2 	
		"/>
	<polyline fill="none" stroke="#CACACA" stroke-linecap="round" stroke-linejoin="round" points="324.5,6.6 330.6,0.5 336.3,6.2 	
		"/>
	<polyline fill="none" stroke="#CACACA" stroke-linecap="round" stroke-linejoin="round" points="336.5,6.6 342.6,0.5 348.3,6.2 	
		"/>
	<polyline fill="none" stroke="#CACACA" stroke-linecap="round" stroke-linejoin="round" points="348.5,6.6 354.6,0.5 360.3,6.2 	
		"/>
	<polyline fill="none" stroke="#CACACA" stroke-linecap="round" stroke-linejoin="round" points="360.5,6.6 366.6,0.5 372.3,6.2 	
		"/>
	<polyline fill="none" stroke="#CACACA" stroke-linecap="round" stroke-linejoin="round" points="372.5,6.6 378.6,0.5 384.3,6.2 	
		"/>
	<polyline fill="none" stroke="#CACACA" stroke-linecap="round" stroke-linejoin="round" points="384.5,6.6 390.6,0.5 396.3,6.2 	
		"/>
	<polyline fill="none" stroke="#CACACA" stroke-linecap="round" stroke-linejoin="round" points="396.5,6.6 402.6,0.5 408.3,6.2 	
		"/>
	<polyline fill="none" stroke="#CACACA" stroke-linecap="round" stroke-linejoin="round" points="408.5,6.6 414.6,0.5 420.3,6.2 	
		"/>
	<polyline fill="none" stroke="#CACACA" stroke-linecap="round" stroke-linejoin="round" points="420.5,6.6 426.6,0.5 432.3,6.2 	
		"/>
	<polyline fill="none" stroke="#CACACA" stroke-linecap="round" stroke-linejoin="round" points="432.5,6.6 438.6,0.5 444.3,6.2 	
		"/>
	<polyline fill="none" stroke="#CACACA" stroke-linecap="round" stroke-linejoin="round" points="444.5,6.6 450.6,0.5 456.3,6.2 	
		"/>
	<polyline fill="none" stroke="#CACACA" stroke-linecap="round" stroke-linejoin="round" points="456.5,6.6 462.6,0.5 468.3,6.2 	
		"/>
	<polyline fill="none" stroke="#CACACA" stroke-linecap="round" stroke-linejoin="round" points="468.5,6.6 474.6,0.5 480.3,6.2 	
		"/>
	<polyline fill="none" stroke="#CACACA" stroke-linecap="round" stroke-linejoin="round" points="480.5,6.6 486.6,0.5 492.3,6.2 	
		"/>
	<polyline fill="none" stroke="#CACACA" stroke-linecap="round" stroke-linejoin="round" points="492.5,6.6 498.6,0.5 504.3,6.2 	
		"/>
	<polyline fill="none" stroke="#CACACA" stroke-linecap="round" stroke-linejoin="round" points="504.5,6.6 510.6,0.5 516.3,6.2 	
		"/>
	<polyline fill="none" stroke="#CACACA" stroke-linecap="round" stroke-linejoin="round" points="516.5,6.6 522.6,0.5 528.3,6.2 	
		"/>
	<polyline fill="none" stroke="#CACACA" stroke-linecap="round" stroke-linejoin="round" points="528.5,6.6 534.6,0.5 540.3,6.2 	
		"/>
	<polyline fill="none" stroke="#CACACA" stroke-linecap="round" stroke-linejoin="round" points="540.5,6.6 546.6,0.5 552.3,6.2 	
		"/>
	<polyline fill="none" stroke="#CACACA" stroke-linecap="round" stroke-linejoin="round" points="552.5,6.6 558.6,0.5 564.3,6.2 	
		"/>
	<polyline fill="none" stroke="#CACACA" stroke-linecap="round" stroke-linejoin="round" points="564.5,6.6 570.6,0.5 576.3,6.2 	
		"/>
	<polyline fill="none" stroke="#CACACA" stroke-linecap="round" stroke-linejoin="round" points="576.5,6.6 582.6,0.5 588.3,6.2 	
		"/>
	<polyline fill="none" stroke="#CACACA" stroke-linecap="round" stroke-linejoin="round" points="588.5,6.6 594.6,0.5 600.3,6.2 	
		"/>
	<polyline fill="none" stroke="#CACACA" stroke-linecap="round" stroke-linejoin="round" points="600.5,6.6 606.6,0.5 612.3,6.2 	
		"/>
	<polyline fill="none" stroke="#CACACA" stroke-linecap="round" stroke-linejoin="round" points="612.5,6.6 618.6,0.5 624.3,6.2 	
		"/>
	<polyline fill="none" stroke="#CACACA" stroke-linecap="round" stroke-linejoin="round" points="624.5,6.6 630.6,0.5 636.3,6.2 	
		"/>
	<polyline fill="none" stroke="#CACACA" stroke-linecap="round" stroke-linejoin="round" points="636.5,6.6 642.6,0.5 648.3,6.2 	
		"/>
	<polyline fill="none" stroke="#CACACA" stroke-linecap="round" stroke-linejoin="round" points="648.5,6.6 654.6,0.5 660.3,6.2 	
		"/>
	<polyline fill="none" stroke="#CACACA" stroke-linecap="round" stroke-linejoin="round" points="660.5,6.6 666.6,0.5 672.3,6.2 	
		"/>
	<polyline fill="none" stroke="#CACACA" stroke-linecap="round" stroke-linejoin="round" points="672.5,6.6 678.6,0.5 684.3,6.2 	
		"/>
	<polyline fill="none" stroke="#CACACA" stroke-linecap="round" stroke-linejoin="round" points="684.5,6.6 690.6,0.5 696.3,6.2 	
		"/>
	<polyline fill="none" stroke="#CACACA" stroke-linecap="round" stroke-linejoin="round" points="696.5,6.6 702.6,0.5 708.3,6.2 	
		"/>
	<polyline fill="none" stroke="#CACACA" stroke-linecap="round" stroke-linejoin="round" points="708.5,6.6 714.6,0.5 720.3,6.2 	
		"/>
</g>
</svg>
