<?xml version="1.0" encoding="iso-8859-1"?>
<!-- Generator: Adobe Illustrator 16.0.0, SVG Export Plug-In . SVG Version: 6.00 Build 0)  -->
<!DOCTYPE svg PUBLIC "-//W3C//DTD SVG 1.1//EN" "http://www.w3.org/Graphics/SVG/1.1/DTD/svg11.dtd">
<svg xmlns="http://www.w3.org/2000/svg" xmlns:xlink="http://www.w3.org/1999/xlink" version="1.1" id="Capa_1" x="0px" y="0px" width="512px" height="512px" viewBox="0 0 96.209 96.209" style="enable-background:new 0 0 96.209 96.209;" xml:space="preserve">
<g>
	<g>
		<path d="M83.05,0H24.596C22.96,0,21.63,1.33,21.63,2.965v13.608h-8.473c-1.635,0-2.965,1.331-2.965,2.966v73.705    c0,1.635,1.33,2.965,2.965,2.965h22.68H48.93h22.68c1.636,0,2.966-1.33,2.966-2.965v-7.791h8.477c1.635,0,2.965-1.33,2.965-2.965    V62.066V8.783V2.964C86.016,1.33,84.686,0,83.05,0z M80.066,3.43c1.067,0,1.935,0.866,1.935,1.935    c0,1.069-0.865,1.935-1.935,1.935S78.13,6.434,78.13,5.365C78.13,4.296,78.999,3.43,80.066,3.43z M71.542,3.43    c1.068,0,1.937,0.866,1.937,1.935c0,1.069-0.867,1.935-1.937,1.935c-1.068,0-1.934-0.866-1.934-1.935    C69.608,4.296,70.475,3.43,71.542,3.43z M63.072,3.43c1.068,0,1.935,0.866,1.935,1.935c0,1.069-0.865,1.935-1.935,1.935    s-1.936-0.866-1.936-1.935C61.137,4.296,62.001,3.43,63.072,3.43z M72.038,27.574l-0.004,0.012v55.326v2.541v7.791    c0,0.232-0.189,0.424-0.425,0.424H48.031H36.735H13.159c-0.234,0-0.424-0.189-0.424-0.424V27.586h58.879    c0.148,0,0.289-0.024,0.425-0.06V27.574z M49.702,21.939c0-1.068,0.864-1.935,1.934-1.935c1.068,0,1.934,0.866,1.934,1.935    s-0.865,1.935-1.934,1.935C50.566,23.874,49.702,23.007,49.702,21.939z M58.171,21.939c0-1.068,0.865-1.935,1.937-1.935    c1.065,0,1.935,0.866,1.935,1.935s-0.867,1.935-1.935,1.935C59.038,23.874,58.171,23.007,58.171,21.939z M66.695,21.939    c0-1.068,0.865-1.935,1.935-1.935c1.068,0,1.934,0.866,1.934,1.935s-0.865,1.935-1.934,1.935    C67.561,23.874,66.695,23.007,66.695,21.939z M83.475,16.831v44.397v21.26c0,0.232-0.188,0.424-0.425,0.424h-8.475V60.947h0.006    V19.539c0-1.635-1.332-2.966-2.968-2.966H24.171v-5.56H83.05c0.148,0,0.289-0.025,0.425-0.061V16.831z" fill="#68a1e3"/>
		<rect x="27.205" y="33.562" width="8.433" height="7" fill="#68a1e3"/>
		<rect x="40.818" y="33.562" width="8.433" height="7" fill="#68a1e3"/>
		<rect x="54.854" y="33.562" width="8.434" height="7" fill="#68a1e3"/>
		<rect x="27.205" y="44.229" width="8.433" height="7" fill="#68a1e3"/>
		<rect x="40.818" y="44.229" width="8.433" height="7" fill="#68a1e3"/>
		<rect x="54.854" y="44.229" width="8.434" height="7" fill="#68a1e3"/>
		<rect x="27.205" y="55.646" width="8.433" height="7" fill="#68a1e3"/>
		<rect x="40.818" y="55.646" width="8.433" height="7" fill="#68a1e3"/>
		<rect x="54.854" y="55.646" width="8.434" height="7" fill="#68a1e3"/>
		<rect x="16.604" y="33.562" width="3.667" height="29.083" fill="#68a1e3"/>
	</g>
</g>
<g>
</g>
<g>
</g>
<g>
</g>
<g>
</g>
<g>
</g>
<g>
</g>
<g>
</g>
<g>
</g>
<g>
</g>
<g>
</g>
<g>
</g>
<g>
</g>
<g>
</g>
<g>
</g>
<g>
</g>
</svg>
