<?xml version="1.0" encoding="iso-8859-1"?>
<!-- Generator: Adobe Illustrator 19.0.0, SVG Export Plug-In . SVG Version: 6.00 Build 0)  -->
<svg version="1.1" id="Capa_1" xmlns="http://www.w3.org/2000/svg" xmlns:xlink="http://www.w3.org/1999/xlink" x="0px" y="0px"
	 viewBox="0 0 512 512" style="enable-background:new 0 0 512 512;" xml:space="preserve">
<path style="fill:#319CD6;" d="M416.239,338.457H55.625c-16.567,0-29.996-13.429-29.996-29.996V82.348
	c0-16.567,13.429-29.996,29.996-29.996h360.614c16.567,0,29.996,13.429,29.996,29.996v226.114
	C446.235,325.027,432.805,338.457,416.239,338.457z"/>
<path style="fill:#55D8EF;" d="M235.932,52.352H55.625c-16.567,0-29.996,13.429-29.996,29.996v226.114
	c0,16.567,13.429,29.996,29.996,29.996h180.307V52.352H235.932z"/>
<rect x="199.371" y="328.492" style="fill:#B1B4BF;" width="73.119" height="65.03"/>
<g>
	<rect x="199.371" y="328.492" style="fill:#D2D6E3;" width="36.562" height="65.03"/>
	<path style="fill:#D2D6E3;" d="M25.629,284.526v23.935c0,16.567,13.429,29.996,29.996,29.996h360.614
		c16.566,0,29.996-13.429,29.996-29.996v-23.935H25.629z"/>
</g>
<path style="fill:#F2F4F9;" d="M235.932,284.526H25.629v23.935c0,16.567,13.429,29.996,29.996,29.996h180.307v-53.931H235.932z"/>
<path style="fill:#D2D6E3;" d="M303.372,389.403H168.492c-6.805,0-12.322,5.517-12.322,12.322c0,6.805,5.517,12.322,12.322,12.322
	h134.878c6.805,0,12.322-5.517,12.322-12.322C315.694,394.92,310.177,389.403,303.372,389.403z"/>
<path style="fill:#F2F4F9;" d="M235.932,389.403h-67.439c-6.805,0-12.322,5.517-12.322,12.322c0,6.805,5.517,12.322,12.322,12.322
	h67.439L235.932,389.403L235.932,389.403z"/>
<path style="fill:#319CD6;" d="M497.002,161.847H308.208c-8.27,0-14.998,6.728-14.998,14.998V444.65
	c0,8.27,6.728,14.998,14.998,14.998h188.794c8.27,0,14.998-6.728,14.998-14.998V176.845
	C512,168.575,505.273,161.847,497.002,161.847z"/>
<path style="fill:#55D8EF;" d="M402.605,161.847h-94.397c-8.27,0-14.998,6.728-14.998,14.998V444.65
	c0,8.27,6.728,14.998,14.998,14.998h94.397V161.847z"/>
<path style="fill:#D2D6E3;" d="M512,200.7v-23.855c0-8.27-6.728-14.998-14.998-14.998H308.208c-8.27,0-14.998,6.728-14.998,14.998
	V200.7H512z"/>
<path style="fill:#F2F4F9;" d="M402.605,161.847h-94.397c-8.27,0-14.998,6.728-14.998,14.998V200.7h109.395V161.847z"/>
<path style="fill:#D2D6E3;" d="M293.21,419.685v24.965c0,8.27,6.728,14.998,14.998,14.998h188.794
	c8.27,0,14.998-6.728,14.998-14.998v-24.965H293.21z"/>
<path style="fill:#F2F4F9;" d="M402.605,419.685H293.21v24.965c0,8.27,6.728,14.998,14.998,14.998h94.397V419.685z"/>
<path style="fill:#319CD6;" d="M97.559,215.809H14.998C6.728,215.809,0,222.537,0,230.807v208.363
	c0,8.27,6.728,14.998,14.998,14.998h82.561c8.27,0,14.998-6.728,14.998-14.998V230.807
	C112.557,222.537,105.829,215.809,97.559,215.809z"/>
<path style="fill:#55D8EF;" d="M56.279,215.809H14.998C6.728,215.809,0,222.537,0,230.807v208.363
	c0,8.27,6.728,14.998,14.998,14.998h41.281V215.809z"/>
<g>
	<path style="fill:#D2D6E3;" d="M112.557,252.824v-22.018c0-8.27-6.728-14.998-14.998-14.998H14.998
		C6.728,215.808,0,222.536,0,230.806v22.018H112.557z"/>
	<path style="fill:#D2D6E3;" d="M0,416.845v22.325c0,8.27,6.728,14.998,14.998,14.998h82.561c8.27,0,14.998-6.728,14.998-14.998
		v-22.325H0z"/>
</g>
<g>
	<path style="fill:#F2F4F9;" d="M56.279,215.809H14.998C6.728,215.809,0,222.537,0,230.807v22.018h56.279V215.809z"/>
	<path style="fill:#F2F4F9;" d="M56.279,416.845H0v22.325c0,8.27,6.728,14.998,14.998,14.998h41.281V416.845z"/>
</g>
<g>
</g>
<g>
</g>
<g>
</g>
<g>
</g>
<g>
</g>
<g>
</g>
<g>
</g>
<g>
</g>
<g>
</g>
<g>
</g>
<g>
</g>
<g>
</g>
<g>
</g>
<g>
</g>
<g>
</g>
</svg>
