<?xml version="1.0" encoding="utf-8"?>
<!-- Generator: Adobe Illustrator 17.1.0, SVG Export Plug-In . SVG Version: 6.00 Build 0)  -->
<!DOCTYPE svg PUBLIC "-//W3C//DTD SVG 1.1//EN" "http://www.w3.org/Graphics/SVG/1.1/DTD/svg11.dtd">
<svg version="1.1" id="Layer_1" xmlns="http://www.w3.org/2000/svg" xmlns:xlink="http://www.w3.org/1999/xlink" x="0px" y="0px"
	 viewBox="0 0 178.6 43.5" enable-background="new 0 0 178.6 43.5" xml:space="preserve">
<g>
	<g>
		<path fill="#00619E" d="M60.4,14.9v11.5c0,3.5,1.3,5.2,3.6,5.2c2.4,0,3.7-1.7,3.7-5.2V14.9h4.5v11.3c0,6.2-3.1,9.1-8.4,9.1
			c-5.1,0-8-2.8-8-9.2V14.9H60.4z"/>
		<path fill="#00619E" d="M76,25.3c0-1.9-0.1-3.5-0.1-4.9h3.9l0.2,2h0.1c1.1-1.5,2.7-2.4,4.9-2.4c3.2,0,6,2.8,6,7.4
			c0,5.3-3.4,7.8-6.6,7.8c-1.8,0-3.1-0.7-3.8-1.7h-0.1v7.2H76V25.3z M80.5,28.7c0,0.4,0,0.7,0.1,1c0.3,1.2,1.3,2.1,2.7,2.1
			c2,0,3.1-1.6,3.1-4.1c0-2.3-1-4.1-3.1-4.1c-1.3,0-2.4,1-2.7,2.3c-0.1,0.2-0.1,0.5-0.1,0.8V28.7z"/>
		<path fill="#00619E" d="M93.8,31c0.8,0.5,2.6,1.1,3.9,1.1c1.4,0,1.9-0.4,1.9-1.2c0-0.8-0.4-1.1-2.1-1.7c-3-1-4.2-2.7-4.2-4.4
			c0-2.7,2.3-4.8,5.9-4.8c1.7,0,3.2,0.4,4.1,0.9l-0.8,3.1c-0.7-0.4-1.9-0.8-3.2-0.8c-1.1,0-1.7,0.4-1.7,1.2c0,0.7,0.6,1.1,2.4,1.7
			c2.8,1,3.9,2.4,3.9,4.5c0,2.7-2.1,4.7-6.3,4.7c-1.9,0-3.6-0.4-4.7-1L93.8,31z"/>
		<path fill="#00619E" d="M121.2,27.5c0,5.3-3.8,7.8-7.7,7.8c-4.3,0-7.5-2.8-7.5-7.5c0-4.7,3.1-7.7,7.8-7.7
			C118.2,20,121.2,23.1,121.2,27.5z M110.6,27.6c0,2.5,1,4.4,3,4.4c1.8,0,2.9-1.8,2.9-4.4c0-2.1-0.8-4.4-2.9-4.4
			C111.4,23.3,110.6,25.5,110.6,27.6z"/>
		<path fill="#00619E" d="M137.7,30.3c0,1.9,0.1,3.5,0.1,4.7h-3.9l-0.2-2.1h-0.1c-0.6,0.9-1.9,2.4-4.6,2.4c-3,0-5.1-1.8-5.1-6.3
			v-8.6h4.5v7.8c0,2.1,0.7,3.4,2.3,3.4c1.3,0,2-0.9,2.3-1.6c0.1-0.3,0.2-0.6,0.2-1v-8.7h4.5V30.3z"/>
		<path fill="#00619E" d="M141.3,25.2c0-2.1,0-3.5-0.1-4.8h3.9l0.2,2.7h0.1c0.7-2.1,2.5-3,3.9-3c0.4,0,0.6,0,1,0.1v4.3
			c-0.4-0.1-0.7-0.1-1.2-0.1c-1.7,0-2.8,0.9-3.1,2.3c-0.1,0.3-0.1,0.7-0.1,1v7.4h-4.5V25.2z"/>
		<path fill="#00619E" d="M163.4,34.6c-0.8,0.4-2.3,0.7-4.1,0.7c-4.7,0-7.7-2.9-7.7-7.5c0-4.3,2.9-7.7,8.3-7.7
			c1.2,0,2.5,0.2,3.5,0.6l-0.7,3.4c-0.5-0.2-1.3-0.4-2.5-0.4c-2.4,0-3.9,1.7-3.9,4.1c0,2.7,1.8,4.1,4,4.1c1.1,0,1.9-0.2,2.6-0.5
			L163.4,34.6z"/>
		<path fill="#00619E" d="M169,29.1c0.1,1.9,2,2.8,4.1,2.8c1.5,0,2.8-0.2,4-0.6l0.6,3.1c-1.5,0.6-3.3,0.9-5.3,0.9
			c-4.9,0-7.8-2.9-7.8-7.4c0-3.7,2.3-7.8,7.4-7.8c4.7,0,6.5,3.7,6.5,7.3c0,0.8-0.1,1.5-0.1,1.8H169z M174.4,26c0-1.1-0.5-3-2.6-3
			c-1.9,0-2.7,1.8-2.8,3H174.4z"/>
	</g>
	<g>
		<circle fill="#F68A20" cx="18.1" cy="18" r="5.1"/>
		<path fill="#F68A20" d="M24.6,36.8c-2,1.2-4.3,2.1-6.4,2.1c0,0,0,0-0.1,0v0v0c0,0,0,0-0.1,0c-2.1,0-4.4-0.9-6.4-2.1
			c-0.1,3.1-0.3,6.7,6.4,6.7c0,0,0,0,0.1,0v0v0c0,0,0,0,0.1,0C24.9,43.5,24.7,39.9,24.6,36.8z"/>
		<path fill="#00619E" d="M18.1,0L18.1,0C18.1,0,18.1,0,18.1,0L18.1,0L18.1,0L18.1,0L18.1,0L18.1,0L18.1,0C18.1,0,18,0,18,0h0
			C8.1,0,0,7.4,0,16.6C0,22,2.8,27.1,7.3,31.2c3,2.8,7.5,5.6,10.8,5.6h0c0,0,0,0,0,0v0v0c0,0,0,0,0,0l0,0c3.3,0,7.8-2.8,10.8-5.6
			c4.5-4.1,7.3-9.2,7.3-14.6C36.1,7.4,28.1,0,18.1,0z M18.2,28.6H18c-2.5,0-8.5-4.9-8.5-11.2c0-2,0.9-4,2.5-5.4
			c1.6-1.4,3.7-2.2,6-2.2c0,0,0,0,0.1,0v0l0,0v0v0l0,0v0c0,0,0,0,0.1,0c2.3,0,4.4,0.8,6,2.2c1.6,1.4,2.5,3.4,2.5,5.4
			C26.6,23.7,20.6,28.6,18.2,28.6z"/>
	</g>
</g>
</svg>
