<?xml version="1.0" encoding="utf-8"?>
<!-- Generator: Adobe Illustrator 17.1.0, SVG Export Plug-In . SVG Version: 6.00 Build 0)  -->
<!DOCTYPE svg PUBLIC "-//W3C//DTD SVG 1.1//EN" "http://www.w3.org/Graphics/SVG/1.1/DTD/svg11.dtd">
<svg version="1.1" id="Layer_1" xmlns="http://www.w3.org/2000/svg" xmlns:xlink="http://www.w3.org/1999/xlink" x="0px" y="0px"
	 viewBox="0 0 249.5 70.4" enable-background="new 0 0 249.5 70.4" xml:space="preserve">
<g>
	<g>
		<path fill="#00619E" d="M247.8,23.6c-5.2-2.3-7.3-3.1-10.4-3.1c-2.9,0-4.2,1.1-4.2,2.9c0,5.3,16.4,3.8,16.4,16.1
			c0,6.7-4.8,10.8-12.9,10.8c-5,0-7.3-1.7-10.9-3.5v-7.6c5.2,3.3,7.3,4.6,11.3,4.6c3,0,4.2-1.2,4.2-3.3c0-5.8-16.3-3.6-16.3-16.4
			c0-6.1,3.3-10.1,11.7-10.1c4.1,0,6.6,0.8,11.2,2.8V23.6z"/>
		<path fill="#00619E" d="M115.3,28.8h3.7c2.6,0,5-1,5-4c0-2.7-1.8-4-5.2-4h-3.5V28.8z M121.5,14.3c7.5,0,10.7,4.9,10.7,10.1
			c0,3.8-2,6.7-6.2,8.6c-1.2,0.4-1.8,0.5-2.6,0.7L136,49.6h-8.8l-11.8-14.4v14.4h-8V14.3H121.5z"/>
		<path fill="#00619E" d="M154.9,22.6l-4.2,13.8h9L154.9,22.6z M173.9,49.6h-8.6l-3-7h-14.1l-2.7,7h-8.5l13.5-35.3h8.4L173.9,49.6z"
			/>
		<rect x="176.6" y="14.3" fill="#00619E" width="8" height="35.3"/>
		<polygon fill="#00619E" points="221.5,49.6 215,49.6 198.2,26.9 198.2,49.6 190.2,49.6 190.2,14.3 197.4,14.3 213.6,35.8 
			213.6,14.3 221.5,14.3 		"/>
		<path fill="#00619E" d="M88.4,43h-2.9v-8.3h4.2c3.2,0,5.5,1.3,5.5,3.9C95.2,41.8,93.4,43,88.4,43 M95.9,30.1c3.1-1.4,5-4,5-7
			c0-1.6-0.4-3.3-1.4-4.8c-2.9,2-6.2,4.2-7.1,4.9c0.2,0.4,0.2,0.8,0.2,1.2c0,1.9-1.3,3.8-4.6,3.8h-2.6v-1.8v-5.7v-0.9l9.5-4.8
			c-1.4-0.5-3-0.7-5-0.7H77.5v35.3h13.3c10.7,0,12.9-6.3,12.9-10.3C103.7,35.1,101.1,31.4,95.9,30.1"/>
	</g>
	<g>
		<path fill="#F68A20" d="M107.2,10.1c-0.5-0.2-6.3,2.6-10,4.6l-1.3,0.7l-9.4,4.9v5.4c2-1.1,3.6-2.1,4.8-3l7-4.7
			c0,0,3.5-2.4,5.3-3.9l0.7-0.5c0.5-0.4,0.9-0.6,0.9-0.9c0,0,0,0,0-0.1C105.2,12.5,107.5,10.2,107.2,10.1"/>
		<path fill="#F68A20" d="M43.5,37.7c-0.1-1.9-0.6-4.3,2.5-5.6c1.2-0.5,1.9-0.2,2.3,0.1C49.2,32.9,47.3,35.8,43.5,37.7 M16.8,59.1
			c-2.2-1.4-3.2-2.5-4.8-5.5c-2.7-5,1-6.6,7.7-9.5C19,49.5,18.4,60.4,16.8,59.1 M70.5,33.2l5.7-3v-5.4l-5.1,2.6c0,0-4.6,2.3-6.1,3.1
			c0.1-0.7,0.2-1.4,0.2-1.4c0.8-4.6,1.5-9.2,1.5-12.3c0-1.5-0.2-2.6-0.6-3.2c-0.3-0.4-0.8-0.7-1.3-0.8c-0.7-0.1-1.6,0.1-2.5,0.6
			c-2.6,1.4-3.9,5.6-3.9,12.6c0,2.3,0.1,4.9,0.4,7.7c-0.3,0.2-1.8,1.3-1.8,1.3c0,0-2.6,1.8-2.6,1.8c0,0-0.1,0.1-0.1,0.1
			c-2.4,1.7-3.9,2.6-4.5,2.8c-0.7,0.2-1.4,0.3-1.9,0.2c3.3-1.9,6-5.9,6-8.3c0-0.3,0-0.5-0.1-0.8c-0.5-1.6-1.6-2.8-3.1-3.4
			c-1.4-0.6-3.2-0.6-5.2-0.1l-0.8,0.2C41,28.7,30,33.5,26.6,35C27,31.3,29,14.2,29.6,5.1c0.4-5.8,0-2.2,0-3.3c0-4.2-6.9,0-10.6,3
			c-1.6,1.2-6.6,4.8-4.8,7.5c1.9,2.9,4,1.9,5.1,6.9c1.9,8.8,0.4,17.7,0.4,18.3c-0.6,0.2-5.3,2-5.3,2C6.2,42.3,0,44.5,0,48.2
			c0,0.6,0.2,1.2,0.5,1.8C7.2,63.7,16.4,71.1,20,70.3c5.3-1.1,5.5-6.5,5.8-14.6c0.2-4.1,0.3-8.6,1.2-13.8c0.4-0.2,9.3-5.3,10.9-6.1
			c-0.8,1.2-0.8,2.4-0.8,3.1c0,1.6,0.3,2.9,0.7,3.6c0.7,1.2,1.3,2,3,2.6c2.1,0.8,3.8,1,7.4-0.1c1.6-0.5,4.3-1.9,7.3-3.9
			c0.6,0.8,3.2,4.3,3.2,4.3l2.4,3.2c1.1,1.5,2.8,1.9,4.7,1.2c1.4-0.6,2.4-1.1,2.7-1.8c0.1-0.2,0.1-0.3,0.1-0.4c0-0.5-0.3-1-0.5-1.3
			c-2.7-3.8-2.9-7.1-2.9-9.6c0-0.2,0-0.3,0-0.5C65.5,35.8,70.5,33.2,70.5,33.2"/>
	</g>
</g>
</svg>
