<?xml version="1.0" encoding="utf-8"?>
<!-- Generator: Adobe Illustrator 17.1.0, SVG Export Plug-In . SVG Version: 6.00 Build 0)  -->
<!DOCTYPE svg PUBLIC "-//W3C//DTD SVG 1.1//EN" "http://www.w3.org/Graphics/SVG/1.1/DTD/svg11.dtd">
<svg enable-background="new 0 0 227.7 48.4" id="Layer_1" version="1.1" viewBox="0 0 227.7 48.4" x="0px" xml:space="preserve" xmlns:xlink="http://www.w3.org/1999/xlink" xmlns="http://www.w3.org/2000/svg" y="0px">
    <g>
        <path d="M177.3,11.7h-5.3c-0.5,0-0.9,0.4-0.9,0.9v4.7c0,0.5,0.4,0.9,0.9,0.9h5.3c0.5,0,0.9-0.4,0.9-0.9v-4.7
		C178.2,12.1,177.8,11.7,177.3,11.7" fill="#2F61AD"/>
        <path
            d="M66.4,13c-0.1-0.4-0.5-0.6-0.9-0.6h-8.4c-0.4,0-0.7,0.3-0.9,0.6L45.7,46.7c-0.1,0.3,0,0.6,0.1,0.8
		c0.2,0.2,0.4,0.4,0.7,0.4h5.8c0.4,0,0.8-0.3,0.9-0.6l7.3-24.8c0,0,0.2-0.6,0.9-0.6c0.7,0,0.8,0.6,0.8,0.6l3.4,11.8H61
		c-0.4,0-0.8,0.3-0.9,0.7l-1.3,4.7c-0.1,0.3,0,0.6,0.1,0.8c0.2,0.2,0.4,0.4,0.7,0.4h7.8l2,6.6c0.1,0.4,0.5,0.6,0.9,0.6h5.8
		c0.3,0,0.6-0.1,0.7-0.4c0.2-0.2,0.2-0.5,0.1-0.8L66.4,13z"
            fill="#2F61AD"/>
        <path
            d="M91.7,42.7c0-0.3-0.2-0.5-0.4-0.6c-0.2-0.1-0.5-0.2-0.7-0.1c-0.9,0.2-1.8,0.4-2.5,0.4
		c-1.3,0-1.9-0.6-1.9-1.9V27.5h5.2c0.5,0,0.9-0.4,0.9-0.9v-4c0-0.5-0.4-0.9-0.9-0.9h-5.2v-6.2c0-0.3-0.1-0.5-0.3-0.7
		c-0.2-0.2-0.5-0.3-0.7-0.2l-5.3,0.7c-0.4,0.1-0.8,0.4-0.8,0.9v5.5h-2.9c-0.5,0-0.9,0.4-0.9,0.9v4c0,0.5,0.4,0.9,0.9,0.9H79v13.8
		c0,4.7,2.5,7.1,7.4,7.1c1.4,0,3.8-0.3,5.3-0.9c0.4-0.1,0.7-0.6,0.6-1L91.7,42.7z"
            fill="#2F61AD"/>
        <path d="M101.6,11.7h-5.3c-0.5,0-0.9,0.4-0.9,0.9V47c0,0.5,0.4,0.9,0.9,0.9h5.3c0.5,0,0.9-0.4,0.9-0.9V12.6
		C102.5,12.1,102.1,11.7,101.6,11.7" fill="#2F61AD"/>
        <path
            d="M115.3,21.2c-2.7,0-6,0.4-8.4,1.1c-0.4,0.1-0.7,0.6-0.6,1l0.6,3.9c0,0.2,0.2,0.5,0.4,0.6
		c0.2,0.1,0.4,0.2,0.7,0.1c2.2-0.4,4.5-0.7,6.4-0.7c3.8,0,4.5,0.8,4.5,3.4v2.3h-5.7c-5.5,0-7.8,2.3-7.8,7.5c0,5.1,2.6,8,7,8
		c2.6,0,5.2-0.7,7.3-2l0.2,0.8c0.1,0.4,0.5,0.7,0.9,0.7h4.3c0.5,0,0.9-0.4,0.9-0.9V30.8C126,23.8,123.1,21.2,115.3,21.2 M118.9,38.3
		v3.1c-0.9,0.5-2.5,1.1-4.4,1.1c-1.7,0-2.2-0.5-2.2-2.2c0-1.6,0.3-2.1,2.3-2.1H118.9z"
            fill="#2F61AD"/>
        <path
            d="M139.4,31.7c-3.3-0.9-3.3-0.9-3.3-2.7c0-1.2,0.1-1.8,2.8-1.8c1.9,0,4.6,0.3,6.4,0.6c0.2,0,0.5,0,0.7-0.2
		c0.2-0.1,0.3-0.4,0.4-0.6l0.5-4.1c0.1-0.5-0.2-0.9-0.7-1c-2-0.5-4.9-0.8-7.3-0.8c-8.2,0-9.9,3.1-9.9,7.7c0,5.1,1,6.8,7.2,8.4
		c4.1,1,4.1,1.7,4.1,3c0,1.6-0.1,2.2-2.8,2.2c-2.2,0-4.7-0.3-6.9-0.9c-0.2-0.1-0.5,0-0.7,0.1c-0.2,0.1-0.4,0.4-0.4,0.6l-0.7,3.9
		c-0.1,0.4,0.2,0.9,0.6,1c2.4,0.8,5.9,1.3,8.5,1.3c7.9,0,9.6-3.3,9.6-8.3C147.5,34.6,146.5,33.6,139.4,31.7"
            fill="#2F61AD"/>
        <path
            d="M160,31.7c-3.3-0.9-3.3-0.9-3.3-2.7c0-1.2,0.1-1.8,2.8-1.8c1.9,0,4.6,0.3,6.4,0.6c0.2,0,0.5,0,0.7-0.2
		c0.2-0.1,0.3-0.4,0.4-0.6l0.5-4.1c0.1-0.5-0.2-0.9-0.7-1c-2-0.5-4.9-0.8-7.3-0.8c-8.2,0-9.9,3.1-9.9,7.7c0,5.1,1,6.8,7.2,8.4
		c4.1,1,4.1,1.7,4.1,3c0,1.6-0.1,2.2-2.8,2.2c-2.2,0-4.7-0.3-6.9-0.9c-0.2-0.1-0.5,0-0.7,0.1c-0.2,0.1-0.4,0.4-0.4,0.6l-0.7,3.9
		c-0.1,0.4,0.2,0.9,0.6,1c2.4,0.8,5.9,1.3,8.5,1.3c7.9,0,9.6-3.3,9.6-8.3C168.1,34.6,167.1,33.6,160,31.7"
            fill="#2F61AD"/>
        <path d="M177.3,21.7h-5.3c-0.5,0-0.9,0.4-0.9,0.9V47c0,0.5,0.4,0.9,0.9,0.9h5.3c0.5,0,0.9-0.4,0.9-0.9V22.6
		C178.2,22.1,177.8,21.7,177.3,21.7" fill="#2F61AD"/>
        <path
            d="M191.1,21.2c-2.7,0-6,0.4-8.4,1.1c-0.4,0.1-0.7,0.6-0.6,1l0.6,3.9c0,0.2,0.2,0.5,0.4,0.6
		c0.2,0.1,0.4,0.2,0.7,0.1c2.2-0.4,4.5-0.7,6.4-0.7c3.8,0,4.5,0.8,4.5,3.4v2.3H189c-5.5,0-7.8,2.3-7.8,7.5c0,5.1,2.6,8,7,8
		c2.6,0,5.2-0.7,7.3-2l0.2,0.8c0.1,0.4,0.5,0.7,0.9,0.7h4.3c0.5,0,0.9-0.4,0.9-0.9V30.8C201.8,23.8,198.9,21.2,191.1,21.2
		 M194.7,38.3v3.1c-0.9,0.5-2.5,1.1-4.4,1.1c-1.7,0-2.2-0.5-2.2-2.2c0-1.6,0.3-2.1,2.3-2.1H194.7z"
            fill="#2F61AD"/>
        <path
            d="M221.6,21.2c-2.8,0-6.7,1-9.9,2.5l-0.4-1.3c-0.1-0.4-0.5-0.6-0.9-0.6h-4c-0.5,0-0.9,0.4-0.9,0.9V47
		c0,0.5,0.4,0.9,0.9,0.9h5.3c0.5,0,0.9-0.4,0.9-0.9V30.1c1.9-1,4.6-2,6.2-2c1.2,0,1.6,0.4,1.6,1.6V47c0,0.5,0.4,0.9,0.9,0.9h5.3
		c0.5,0,0.9-0.4,0.9-0.9V29.1C227.7,23.8,225.6,21.2,221.6,21.2"
            fill="#2F61AD"/>
        <path
            d="M52.2,0.5C52,0.2,51.6,0,51.2,0c-0.2,0-0.4,0.1-0.6,0.1c-7.3,4-15.7,6.1-24.4,6.1S9.1,4.1,1.8,0.1
		C1.6,0.1,1.4,0,1.2,0c-0.4,0-0.8,0.2-1,0.5C-0.1,1-0.1,1.7,0.5,2.2c3.6,2.7,7.7,4.8,12,6.3c4.4,1.5,9.1,2.3,13.8,2.3h0
		c4.7,0,9.4-0.8,13.8-2.3c4.3-1.5,8.3-3.6,12-6.3C52.6,1.7,52.6,1,52.2,0.5"
            fill="#9EC63B"/>
        <path
            d="M43.8,11.9c-0.2-0.1-0.4-0.2-0.6-0.2c-0.1,0-0.2,0-0.3,0.1c-2.1,0.8-4.3,1.4-6.2,1.9
		c-0.4,0.1-0.7,0.4-0.9,0.7c-1.4,3.9-5.1,7.6-8.9,11.5c-0.2,0.1-0.4,0.3-0.7,0.3c-0.3,0-0.6-0.2-0.7-0.3c-3.8-3.9-7.5-7.6-8.9-11.5
		c-0.1-0.4-0.5-0.7-0.9-0.7c-2-0.5-4.1-1.1-6.2-1.9c-0.1,0-0.2-0.1-0.3-0.1c-0.2,0-0.4,0.1-0.6,0.2c-0.3,0.2-0.4,0.5-0.4,0.9
		c0.3,3.2,1.6,6.4,3.9,9.7c2.2,3.1,5,6,7.8,8.8c5.1,5.2,9.8,10,10.3,15.7c0,0.5,0.5,0.9,1,0.9h5.9c0.3,0,0.5-0.1,0.7-0.3
		c0.2-0.2,0.3-0.5,0.3-0.7c-0.2-3.8-1.6-7.6-4.3-11.6c-0.6-0.8-1.2-1.7-1.8-2.5c-0.3-0.3-0.2-0.7,0-0.9c0.2-0.2,0.4-0.4,0.6-0.6
		c2.7-2.8,5.6-5.7,7.8-8.8c2.3-3.3,3.6-6.5,3.9-9.7C44.3,12.4,44.1,12.1,43.8,11.9"
            fill="#44B8EA"/>
        <path
            d="M19.9,35.7c-0.1-0.1-0.3-0.3-0.7-0.3c-0.4,0-0.7,0.3-0.8,0.5c-2.5,3.8-3.8,7.4-4,11c0,0.3,0.1,0.5,0.3,0.7
		c0.2,0.2,0.4,0.3,0.7,0.3h5.9c0.5,0,0.9-0.4,1-0.9c0.1-1.7,0.7-3.5,1.7-5.3c0.3-0.6,0.1-1.2-0.1-1.5C22.8,38.9,21.6,37.5,19.9,35.7
		"
            fill="#44B8EA"/>
        <path
            d="M26.2,14.8c1.9,0,2.9-0.1,3.3-0.1c0.5,0,0.9,0.4,0.9,0.9c0,0.2,0,0.3-0.1,0.4c-0.2,0.7-1.4,3-3.5,5.1
		c-0.2,0.2-0.5,0.3-0.7,0.3c-0.2,0-0.5,0-0.7-0.3c-2.1-2-3.2-4.4-3.5-5.1c0-0.1-0.1-0.2-0.1-0.4c0-0.5,0.4-0.9,0.9-0.9
		C23.3,14.7,24.4,14.8,26.2,14.8L26.2,14.8z"
            fill="#44B8EA"/>
    </g>
</svg>
