<?xml version="1.0" encoding="iso-8859-1"?>
<!-- Generator: Adobe Illustrator 19.0.0, SVG Export Plug-In . SVG Version: 6.00 Build 0)  -->
<svg xmlns="http://www.w3.org/2000/svg" xmlns:xlink="http://www.w3.org/1999/xlink" version="1.1" id="Capa_1" x="0px" y="0px" viewBox="0 0 496 496" style="enable-background:new 0 0 496 496;" xml:space="preserve" width="512px" height="512px">
<g>
	<g>
		<g>
			<path d="M312,144c0-35.288-28.712-64-64-64c-35.288,0-64,28.712-64,64c0,35.288,28.712,64,64,64C283.288,208,312,179.288,312,144     z M248,192c-26.472,0-48-21.528-48-48s21.528-48,48-48s48,21.528,48,48S274.472,192,248,192z" fill="#3289c7"/>
			<rect x="32" y="416" width="48" height="16" fill="#3289c7"/>
			<rect x="32" y="448" width="48" height="16" fill="#3289c7"/>
			<rect x="416" y="416" width="48" height="16" fill="#3289c7"/>
			<rect x="448" y="448" width="16" height="16" fill="#3289c7"/>
			<rect x="416" y="448" width="16" height="16" fill="#3289c7"/>
			<rect x="224" y="416" width="48" height="16" fill="#3289c7"/>
			<rect x="224" y="448" width="48" height="16" fill="#3289c7"/>
			<path d="M448,360c0-13.232-10.768-24-24-24H256v-48h24v-36.752c7.344-2.192,14.44-5.136,21.192-8.8l26,26l45.256-45.256l-26-26     c3.664-6.76,6.6-13.856,8.8-21.192H392v-64h-36.752c-2.192-7.336-5.136-14.432-8.8-21.192l26-26l-45.256-45.256l-26,26     c-6.76-3.664-13.848-6.608-21.192-8.8V0h-64v36.752c-7.344,2.192-14.44,5.136-21.192,8.8l-26-26l-45.256,45.256l26,26     c-3.664,6.76-6.6,13.856-8.8,21.192H104v64h36.752c2.192,7.336,5.136,14.432,8.8,21.192l-26,26l45.256,45.256l26-26     c6.76,3.664,13.848,6.608,21.192,8.8V288h24v48H72c-13.232,0-24,10.768-24,24v24H0v112h112V384H64v-24c0-4.408,3.584-8,8-8h168     v32h-48v112h112V384h-48v-32h168c4.416,0,8,3.592,8,8v24h-48v112h112V384h-48V360z M96,400v80H16v-80H96z M288,400v80h-80v-80     H288z M232,272v-33.224l-6.16-1.456c-9.936-2.352-19.408-6.28-28.152-11.68l-5.384-3.328L168.8,245.816l-22.632-22.632     l23.504-23.504l-3.328-5.384c-5.392-8.744-9.32-18.216-11.68-28.152L153.216,160H120v-32h33.216l1.456-6.16     c2.36-9.936,6.288-19.408,11.68-28.152l3.328-5.384L146.176,64.8l22.632-22.632l23.504,23.504l5.384-3.328     c8.744-5.4,18.208-9.328,28.152-11.68l6.152-1.44V16h32v33.224l6.16,1.456c9.936,2.352,19.408,6.28,28.152,11.68l5.384,3.328     L327.2,42.184l22.632,22.632L326.328,88.32l3.328,5.384c5.392,8.744,9.32,18.216,11.68,28.152l1.448,6.144H376v32h-33.216     l-1.456,6.16c-2.36,9.936-6.288,19.408-11.68,28.152l-3.328,5.384l23.504,23.504l-22.632,22.632l-23.504-23.504l-5.384,3.328     c-8.744,5.4-18.208,9.328-28.152,11.68l-6.152,1.44V272H232z M480,400v80h-80v-80H480z" fill="#3289c7"/>
			<path d="M24,264c13.232,0,24-10.768,24-24c0-10.416-6.712-19.216-16-22.528V72c0-4.408,3.584-8,8-8h25.472     C68.784,73.288,77.584,80,88,80c13.232,0,24-10.768,24-24s-10.768-24-24-24c-10.416,0-19.216,6.712-22.528,16H40     c-13.232,0-24,10.768-24,24v145.472C6.712,220.784,0,229.584,0,240C0,253.232,10.768,264,24,264z M88,48c4.416,0,8,3.592,8,8     s-3.584,8-8,8s-8-3.592-8-8S83.584,48,88,48z M24,232c4.416,0,8,3.592,8,8s-3.584,8-8,8s-8-3.592-8-8S19.584,232,24,232z" fill="#3289c7"/>
			<rect x="48" y="96" width="16" height="16" fill="#3289c7"/>
			<rect x="48" y="128" width="16" height="16" fill="#3289c7"/>
			<rect x="48" y="160" width="16" height="16" fill="#3289c7"/>
			<path d="M384,280c0,13.232,10.768,24,24,24c10.416,0,19.216-6.712,22.528-16H456c13.232,0,24-10.768,24-24V118.528     c9.288-3.312,16-12.112,16-22.528c0-13.232-10.768-24-24-24s-24,10.768-24,24c0,10.416,6.712,19.216,16,22.528V264     c0,4.408-3.584,8-8,8h-25.472c-3.312-9.288-12.112-16-22.528-16C394.768,256,384,266.768,384,280z M472,88c4.416,0,8,3.592,8,8     s-3.584,8-8,8c-4.416,0-8-3.592-8-8S467.584,88,472,88z M408,272c4.416,0,8,3.592,8,8c0,4.408-3.584,8-8,8c-4.416,0-8-3.592-8-8     C400,275.592,403.584,272,408,272z" fill="#3289c7"/>
			<rect x="432" y="224" width="16" height="16" fill="#3289c7"/>
			<rect x="432" y="192" width="16" height="16" fill="#3289c7"/>
			<rect x="432" y="160" width="16" height="16" fill="#3289c7"/>
		</g>
	</g>
</g>
<g>
</g>
<g>
</g>
<g>
</g>
<g>
</g>
<g>
</g>
<g>
</g>
<g>
</g>
<g>
</g>
<g>
</g>
<g>
</g>
<g>
</g>
<g>
</g>
<g>
</g>
<g>
</g>
<g>
</g>
</svg>
