<?xml version="1.0" encoding="iso-8859-1"?>
<!-- Generator: Adobe Illustrator 19.0.0, SVG Export Plug-In . SVG Version: 6.00 Build 0)  -->
<svg version="1.1" id="Capa_1" xmlns="http://www.w3.org/2000/svg" xmlns:xlink="http://www.w3.org/1999/xlink" x="0px" y="0px"
	 viewBox="0 0 512 512" style="enable-background:new 0 0 512 512;" xml:space="preserve">
<path style="fill:#319CD6;" d="M482,384.129H30c-16.569,0-30-13.431-30-30V65.855c0-16.569,13.431-30,30-30h452
	c16.569,0,30,13.431,30,30v288.274C512,370.698,498.569,384.129,482,384.129z"/>
<path style="fill:#55D8EF;" d="M256,35.855H30c-16.569,0-30,13.431-30,30v288.274c0,16.569,13.431,30,30,30h226V35.855z"/>
<rect x="211.49" y="372" style="fill:#B1B4BF;" width="89.01" height="79.16"/>
<g>
	<rect x="211.49" y="372" style="fill:#D2D6E3;" width="44.506" height="79.16"/>
	<path style="fill:#D2D6E3;" d="M0,300.851v53.278c0,16.569,13.431,30,30,30h452c16.569,0,30-13.431,30-30v-53.278H0z"/>
</g>
<path style="fill:#F2F4F9;" d="M256,300.851H0v53.278c0,16.569,13.431,30,30,30h226V300.851z"/>
<path style="fill:#D2D6E3;" d="M338.093,446.145H173.907c-8.284,0-15,6.716-15,15s6.716,15,15,15h164.187c8.284,0,15-6.716,15-15
	S346.377,446.145,338.093,446.145z"/>
<path style="fill:#F2F4F9;" d="M256,446.145h-82.093c-8.284,0-15,6.716-15,15s6.716,15,15,15H256V446.145z"/>
<path style="fill:#3A2370;" d="M304.459,130.678h131.103c8.284,0,15-6.716,15-15s-6.716-15-15-15H304.459c-8.284,0-15,6.716-15,15
	S296.175,130.678,304.459,130.678z"/>
<path style="fill:#3A458F;" d="M370.01,100.678h-65.552c-8.284,0-15,6.716-15,15s6.716,15,15,15h65.552V100.678z"/>
<path style="fill:#3A2370;" d="M304.459,193.715h131.103c8.284,0,15-6.716,15-15s-6.716-15-15-15H304.459c-8.284,0-15,6.716-15,15
	S296.175,193.715,304.459,193.715z"/>
<path style="fill:#3A458F;" d="M370.01,163.715h-65.552c-8.284,0-15,6.716-15,15s6.716,15,15,15h65.552V163.715z"/>
<path style="fill:#3A2370;" d="M304.459,256.752h131.103c8.284,0,15-6.716,15-15s-6.716-15-15-15H304.459c-8.284,0-15,6.716-15,15
	S296.175,256.752,304.459,256.752z"/>
<path style="fill:#3A458F;" d="M370.01,226.752h-65.552c-8.284,0-15,6.716-15,15s6.716,15,15,15h65.552V226.752z"/>
<path style="fill:#FFAE42;" d="M207.042,101.081H63.977c-11.028,0-20,8.972-20,20v114.221c0,11.028,8.972,20,20,20h143.066
	c11.028,0,20-8.972,20-20V121.081C227.042,110.054,218.07,101.081,207.042,101.081z"/>
<path style="fill:#FFDF63;" d="M135.51,101.081H63.977c-11.028,0-20,8.972-20,20v114.221c0,11.028,8.972,20,20,20h71.533V101.081z"
	/>
<g>
</g>
<g>
</g>
<g>
</g>
<g>
</g>
<g>
</g>
<g>
</g>
<g>
</g>
<g>
</g>
<g>
</g>
<g>
</g>
<g>
</g>
<g>
</g>
<g>
</g>
<g>
</g>
<g>
</g>
</svg>
